<svg version="1.1" viewBox="0.0 0.0 700.0 433.0" fill="none" stroke="none" stroke-linecap="square" stroke-miterlimit="10" width="700" height="433" xmlns:xlink="http://www.w3.org/1999/xlink" xmlns="http://www.w3.org/2000/svg"><path fill="#ffffff" d="M0 0L700.0 0L700.0 433.0L0 433.0L0 0Z" fill-rule="nonzero"/><path stroke="#333333" stroke-width="1.0" stroke-linecap="butt" d="M162.5 83.5L162.5 323.5" fill-rule="nonzero"/><path stroke="#cccccc" stroke-width="1.0" stroke-linecap="butt" d="M334.5 83.5L334.5 323.5" fill-rule="nonzero"/><path stroke="#cccccc" stroke-width="1.0" stroke-linecap="butt" d="M506.5 83.5L506.5 323.5" fill-rule="nonzero"/><path stroke="#cccccc" stroke-width="1.0" stroke-linecap="butt" d="M678.5 83.5L678.5 323.5" fill-rule="nonzero"/><path stroke="#cccccc" stroke-width="1.0" stroke-linecap="butt" d="M162.5 323.5L678.5 323.5" fill-rule="nonzero"/><path stroke="#cccccc" stroke-width="1.0" stroke-linecap="butt" d="M162.5 285.5L678.5 285.5" fill-rule="nonzero"/><path stroke="#cccccc" stroke-width="1.0" stroke-linecap="butt" d="M162.5 247.5L678.5 247.5" fill-rule="nonzero"/><path stroke="#cccccc" stroke-width="1.0" stroke-linecap="butt" d="M162.5 208.5L678.5 208.5" fill-rule="nonzero"/><path stroke="#cccccc" stroke-width="1.0" stroke-linecap="butt" d="M162.5 170.5L678.5 170.5" fill-rule="nonzero"/><path stroke="#cccccc" stroke-width="1.0" stroke-linecap="butt" d="M162.5 132.5L678.5 132.5" fill-rule="nonzero"/><path stroke="#cccccc" stroke-width="1.0" stroke-linecap="butt" d="M162.5 94.5L678.5 94.5" fill-rule="nonzero"/><clipPath id="id_0"><path d="M162.65 83.083336L678.35 83.083336L678.35 323.35L162.65 323.35L162.65 83.083336Z" clip-rule="nonzero"/></clipPath><path fill="#4285f4" clip-path="url(#id_0)" d="M218.72 274.58942C218.72 277.0747 216.70528 279.08942 214.22 279.08942C211.73473 279.08942 209.72 277.0747 209.72 274.58942C209.72 272.10413 211.73473 270.08942 214.22 270.08942C216.70528 270.08942 218.72 272.10413 218.72 274.58942Z" fill-rule="nonzero"/><path fill="#4285f4" clip-path="url(#id_0)" d="M235.91 273.74C235.91 276.22528 233.89528 278.24 231.41 278.24C228.92471 278.24 226.91 276.22528 226.91 273.74C226.91 271.2547 228.92471 269.24 231.41 269.24C233.89528 269.24 235.91 271.2547 235.91 273.74Z" fill-rule="nonzero"/><path fill="#4285f4" clip-path="url(#id_0)" d="M253.1 273.74C253.1 276.22528 251.08528 278.24 248.6 278.24C246.11472 278.24 244.1 276.22528 244.1 273.74C244.1 271.2547 246.11472 269.24 248.6 269.24C251.08528 269.24 253.1 271.2547 253.1 273.74Z" fill-rule="nonzero"/><path fill="#4285f4" clip-path="url(#id_0)" d="M270.29 260.68295C270.29 263.16824 268.27527 265.18295 265.79 265.18295C263.30472 265.18295 261.29 263.16824 261.29 260.68295C261.29 258.1977 263.30472 256.18295 265.79 256.18295C268.27527 256.18295 270.29 258.1977 270.29 260.68295Z" fill-rule="nonzero"/><path fill="#4285f4" clip-path="url(#id_0)" d="M287.48 267.0254C287.48 269.51068 285.46527 271.5254 282.98 271.5254C280.49472 271.5254 278.48 269.51068 278.48 267.0254C278.48 264.54013 280.49472 262.5254 282.98 262.5254C285.46527 262.5254 287.48 264.54013 287.48 267.0254Z" fill-rule="nonzero"/><path fill="#4285f4" clip-path="url(#id_0)" d="M304.67 255.54672C304.67 258.032 302.65527 260.04672 300.17 260.04672C297.68472 260.04672 295.67 258.032 295.67 255.54672C295.67 253.06145 297.68472 251.04672 300.17 251.04672C302.65527 251.04672 304.67 253.06145 304.67 255.54672Z" fill-rule="nonzero"/><path fill="#4285f4" clip-path="url(#id_0)" d="M321.86 250.99095C321.86 253.47623 319.84528 255.49095 317.36 255.49095C314.87473 255.49095 312.86 253.47623 312.86 250.99095C312.86 248.50568 314.87473 246.49095 317.36 246.49095C319.84528 246.49095 321.86 248.50568 321.86 250.99095Z" fill-rule="nonzero"/><path fill="#4285f4" clip-path="url(#id_0)" d="M339.05 224.08864C339.05 226.57391 337.03528 228.58864 334.55 228.58864C332.06473 228.58864 330.05 226.57391 330.05 224.08864C330.05 221.60336 332.06473 219.58864 334.55 219.58864C337.03528 219.58864 339.05 221.60336 339.05 224.08864Z" fill-rule="nonzero"/><path fill="#4285f4" clip-path="url(#id_0)" d="M339.05 288.91397C339.05 291.39926 337.03528 293.41397 334.55 293.41397C332.06473 293.41397 330.05 291.39926 330.05 288.91397C330.05 286.42868 332.06473 284.41397 334.55 284.41397C337.03528 284.41397 339.05 286.42868 339.05 288.91397Z" fill-rule="nonzero"/><path fill="#4285f4" clip-path="url(#id_0)" d="M356.24 212.71353C356.24 215.1988 354.22528 217.21353 351.74 217.21353C349.25473 217.21353 347.24 215.1988 347.24 212.71353C347.24 210.22824 349.25473 208.21353 351.74 208.21353C354.22528 208.21353 356.24 210.22824 356.24 212.71353Z" fill-rule="nonzero"/><path fill="#4285f4" clip-path="url(#id_0)" d="M356.24 270.04468C356.24 272.52997 354.22528 274.54468 351.74 274.54468C349.25473 274.54468 347.24 272.52997 347.24 270.04468C347.24 267.55942 349.25473 265.54468 351.74 265.54468C354.22528 265.54468 356.24 267.55942 356.24 270.04468Z" fill-rule="nonzero"/><path fill="#4285f4" clip-path="url(#id_0)" d="M373.43 198.64354C373.43 201.12883 371.41528 203.14354 368.93 203.14354C366.44473 203.14354 364.43 201.12883 364.43 198.64354C364.43 196.15826 366.44473 194.14354 368.93 194.14354C371.41528 194.14354 373.43 196.15826 373.43 198.64354Z" fill-rule="nonzero"/><path fill="#4285f4" clip-path="url(#id_0)" d="M373.43 257.60107C373.43 260.08633 371.41528 262.10107 368.93 262.10107C366.44473 262.10107 364.43 260.08633 364.43 257.60107C364.43 255.11578 366.44473 253.10106 368.93 253.10106C371.41528 253.10106 373.43 255.11578 373.43 257.60107Z" fill-rule="nonzero"/><path fill="#4285f4" clip-path="url(#id_0)" d="M390.62 253.96837C390.62 256.45364 388.6053 258.46835 386.12 258.46835C383.6347 258.46835 381.62 256.45364 381.62 253.96837C381.62 251.48308 383.6347 249.46837 386.12 249.46837C388.6053 249.46837 390.62 251.48308 390.62 253.96837Z" fill-rule="nonzero"/><path fill="#4285f4" clip-path="url(#id_0)" d="M390.62 179.57082C390.62 182.05609 388.6053 184.07082 386.12 184.07082C383.6347 184.07082 381.62 182.05609 381.62 179.57082C381.62 177.08553 383.6347 175.07082 386.12 175.07082C388.6053 175.07082 390.62 177.08553 390.62 179.57082Z" fill-rule="nonzero"/><path fill="#4285f4" clip-path="url(#id_0)" d="M407.81 115.11955C407.81 117.604836 405.7953 119.61955 403.31 119.61955C400.8247 119.61955 398.81 117.604836 398.81 115.11955C398.81 112.63427 400.8247 110.61955 403.31 110.61955C405.7953 110.61955 407.81 112.63427 407.81 115.11955Z" fill-rule="nonzero"/><path fill="#4285f4" clip-path="url(#id_0)" d="M407.81 229.11635C407.81 231.60164 405.7953 233.61635 403.31 233.61635C400.8247 233.61635 398.81 231.60164 398.81 229.11635C398.81 226.63107 400.8247 224.61635 403.31 224.61635C405.7953 224.61635 407.81 226.63107 407.81 229.11635Z" fill-rule="nonzero"/><path fill="#4285f4" clip-path="url(#id_0)" d="M425.0 280.87387C425.0 283.35913 422.9853 285.37387 420.5 285.37387C418.0147 285.37387 416.0 283.35913 416.0 280.87387C416.0 278.38858 418.0147 276.37387 420.5 276.37387C422.9853 276.37387 425.0 278.38858 425.0 280.87387Z" fill-rule="nonzero"/><path fill="#4285f4" clip-path="url(#id_0)" d="M425.0 138.51666C425.0 141.00194 422.9853 143.01666 420.5 143.01666C418.0147 143.01666 416.0 141.00194 416.0 138.51666C416.0 136.03137 418.0147 134.01666 420.5 134.01666C422.9853 134.01666 425.0 136.03137 425.0 138.51666Z" fill-rule="nonzero"/><path fill="#4285f4" clip-path="url(#id_0)" d="M425.0 186.92233C425.0 189.40762 422.9853 191.42233 420.5 191.42233C418.0147 191.42233 416.0 189.40762 416.0 186.92233C416.0 184.43706 418.0147 182.42233 420.5 182.42233C422.9853 182.42233 425.0 184.43706 425.0 186.92233Z" fill-rule="nonzero"/><path fill="#4285f4" clip-path="url(#id_0)" d="M442.19 168.55055C442.19 171.03583 440.1753 173.05055 437.69 173.05055C435.2047 173.05055 433.19 171.03583 433.19 168.55055C433.19 166.06528 435.2047 164.05055 437.69 164.05055C440.1753 164.05055 442.19 166.06528 442.19 168.55055Z" fill-rule="nonzero"/><path fill="#4285f4" clip-path="url(#id_0)" d="M442.19 151.14514C442.19 153.63042 440.1753 155.64514 437.69 155.64514C435.2047 155.64514 433.19 153.63042 433.19 151.14514C433.19 148.65985 435.2047 146.64514 437.69 146.64514C440.1753 146.64514 442.19 148.65985 442.19 151.14514Z" fill-rule="nonzero"/><path fill="#4285f4" clip-path="url(#id_0)" d="M442.19 245.21059C442.19 247.69586 440.1753 249.71059 437.69 249.71059C435.2047 249.71059 433.19 247.69586 433.19 245.21059C433.19 242.72531 435.2047 240.71059 437.69 240.71059C440.1753 240.71059 442.19 242.72531 442.19 245.21059Z" fill-rule="nonzero"/><path fill="#4285f4" clip-path="url(#id_0)" d="M459.38 151.02998C459.38 153.51526 457.3653 155.52998 454.88 155.52998C452.3947 155.52998 450.38 153.51526 450.38 151.02998C450.38 148.5447 452.3947 146.52998 454.88 146.52998C457.3653 146.52998 459.38 148.5447 459.38 151.02998Z" fill-rule="nonzero"/><path fill="#4285f4" clip-path="url(#id_0)" d="M459.38 229.51268C459.38 231.99797 457.3653 234.01268 454.88 234.01268C452.3947 234.01268 450.38 231.99797 450.38 229.51268C450.38 227.0274 452.3947 225.01268 454.88 225.01268C457.3653 225.01268 459.38 227.0274 459.38 229.51268Z" fill-rule="nonzero"/><path fill="#4285f4" clip-path="url(#id_0)" d="M459.38 121.67764C459.38 124.162926 457.3653 126.17764 454.88 126.17764C452.3947 126.17764 450.38 124.162926 450.38 121.67764C450.38 119.19236 452.3947 117.17764 454.88 117.17764C457.3653 117.17764 459.38 119.19236 459.38 121.67764Z" fill-rule="nonzero"/><path fill="#4285f4" clip-path="url(#id_0)" d="M476.57 219.501C476.57 221.98628 474.55527 224.001 472.07 224.001C469.58472 224.001 467.57 221.98628 467.57 219.501C467.57 217.01573 469.58472 215.001 472.07 215.001C474.55527 215.001 476.57 217.01573 476.57 219.501Z" fill-rule="nonzero"/><path fill="#4285f4" clip-path="url(#id_0)" d="M476.57 111.9101C476.57 114.395386 474.55527 116.4101 472.07 116.4101C469.58472 116.4101 467.57 114.395386 467.57 111.9101C467.57 109.42483 469.58472 107.4101 472.07 107.4101C474.55527 107.4101 476.57 109.42483 476.57 111.9101Z" fill-rule="nonzero"/><path fill="#4285f4" clip-path="url(#id_0)" d="M493.76 204.10933C493.76 206.5946 491.74527 208.60933 489.26 208.60933C486.77472 208.60933 484.76 206.5946 484.76 204.10933C484.76 201.62405 486.77472 199.60933 489.26 199.60933C491.74527 199.60933 493.76 201.62405 493.76 204.10933Z" fill-rule="nonzero"/><path fill="#4285f4" clip-path="url(#id_0)" d="M493.76 107.25612C493.76 109.741394 491.74527 111.75612 489.26 111.75612C486.77472 111.75612 484.76 109.741394 484.76 107.25612C484.76 104.770836 486.77472 102.75612 489.26 102.75612C491.74527 102.75612 493.76 104.770836 493.76 107.25612Z" fill-rule="nonzero"/><path fill="#4285f4" clip-path="url(#id_0)" d="M510.95 149.33432C510.95 151.8196 508.93527 153.83432 506.45 153.83432C503.96472 153.83432 501.95 151.8196 501.95 149.33432C501.95 146.84903 503.96472 144.83432 506.45 144.83432C508.93527 144.83432 510.95 146.84903 510.95 149.33432Z" fill-rule="nonzero"/><path fill="#4285f4" clip-path="url(#id_0)" d="M510.95 199.34216C510.95 201.82744 508.93527 203.84216 506.45 203.84216C503.96472 203.84216 501.95 201.82744 501.95 199.34216C501.95 196.85687 503.96472 194.84216 506.45 194.84216C508.93527 194.84216 510.95 196.85687 510.95 199.34216Z" fill-rule="nonzero"/><path fill="#4285f4" clip-path="url(#id_0)" d="M596.9 120.26261C596.9 122.747894 594.88525 124.76261 592.4 124.76261C589.91473 124.76261 587.9 122.747894 587.9 120.26261C587.9 117.77733 589.91473 115.76261 592.4 115.76261C594.88525 115.76261 596.9 117.77733 596.9 120.26261Z" fill-rule="nonzero"/><path fill="#000000" d="M348.26562 401.33438L350.15625 401.80313Q349.5625 404.14688 348.01562 405.38126Q346.46875 406.6 344.21875 406.6Q341.90625 406.6 340.45312 405.6625Q339.01562 404.70938 338.25 402.92813Q337.5 401.13126 337.5 399.08438Q337.5 396.85 338.34375 395.19376Q339.20312 393.52188 340.78125 392.6625Q342.35938 391.7875 344.25 391.7875Q346.40625 391.7875 347.85938 392.88126Q349.32812 393.975 349.90625 395.95938L348.04688 396.39688Q347.54688 394.83438 346.59375 394.13126Q345.65625 393.4125 344.21875 393.4125Q342.5625 393.4125 341.45312 394.20938Q340.34375 394.99063 339.89062 396.33438Q339.45312 397.6625 339.45312 399.06876Q339.45312 400.89688 339.98438 402.27188Q340.51562 403.63126 341.64062 404.30313Q342.76562 404.975 344.0625 404.975Q345.65625 404.975 346.76562 404.05313Q347.875 403.13126 348.26562 401.33438ZM358.59375 405.06876Q357.60938 405.89688 356.70312 406.24063Q355.79688 406.58438 354.76562 406.58438Q353.0625 406.58438 352.14062 405.75626Q351.21875 404.9125 351.21875 403.61563Q351.21875 402.85 351.5625 402.225Q351.92188 401.6 352.48438 401.225Q353.04688 400.83438 353.75 400.63126Q354.26562 400.50626 355.3125 400.36563Q357.4375 400.11563 358.4375 399.77188Q358.45312 399.4125 358.45312 399.30313Q358.45312 398.24063 357.95312 397.7875Q357.28125 397.19376 355.95312 397.19376Q354.70312 397.19376 354.10938 397.63126Q353.53125 398.06876 353.25 399.17813L351.53125 398.94376Q351.76562 397.83438 352.29688 397.1625Q352.82812 396.475 353.84375 396.11563Q354.85938 395.74063 356.20312 395.74063Q357.53125 395.74063 358.35938 396.05313Q359.1875 396.36563 359.57812 396.85Q359.96875 397.31876 360.125 398.0375Q360.21875 398.49063 360.21875 399.6625L360.21875 402.00626Q360.21875 404.45938 360.32812 405.11563Q360.4375 405.75626 360.78125 406.35L358.9375 406.35Q358.67188 405.80313 358.59375 405.06876ZM358.4375 401.14688Q357.48438 401.5375 355.5625 401.80313Q354.48438 401.95938 354.03125 402.1625Q353.59375 402.35 353.34375 402.725Q353.09375 403.1 353.09375 403.56876Q353.09375 404.27188 353.625 404.74063Q354.15625 405.20938 355.1875 405.20938Q356.20312 405.20938 356.98438 404.77188Q357.78125 404.31876 358.15625 403.55313Q358.4375 402.94376 358.4375 401.7875L358.4375 401.14688ZM362.8125 406.35L362.8125 395.975L364.40625 395.975L364.40625 397.45938Q365.54688 395.74063 367.70312 395.74063Q368.64062 395.74063 369.42188 396.08438Q370.21875 396.4125 370.60938 396.95938Q371.0 397.50626 371.15625 398.25626Q371.25 398.75626 371.25 399.975L371.25 406.35L369.48438 406.35L369.48438 400.0375Q369.48438 398.95938 369.28125 398.42813Q369.07812 397.89688 368.54688 397.58438Q368.03125 397.27188 367.32812 397.27188Q366.20312 397.27188 365.39062 397.99063Q364.57812 398.69376 364.57812 400.67813L364.57812 406.35L362.8125 406.35ZM376.65625 404.77188L376.90625 406.33438Q376.17188 406.49063 375.57812 406.49063Q374.625 406.49063 374.09375 406.19376Q373.57812 405.88126 373.35938 405.39688Q373.14062 404.89688 373.14062 403.31876L373.14062 397.35L371.85938 397.35L371.85938 395.975L373.14062 395.975L373.14062 393.4125L374.89062 392.35L374.89062 395.975L376.65625 395.975L376.65625 397.35L374.89062 397.35L374.89062 403.4125Q374.89062 404.1625 374.98438 404.38126Q375.07812 404.58438 375.28125 404.725Q375.5 404.85 375.89062 404.85Q376.17188 404.85 376.65625 404.77188ZM378.82812 394.05313L378.82812 392.0375L380.59375 392.0375L380.59375 394.05313L378.82812 394.05313ZM378.82812 406.35L378.82812 395.975L380.59375 395.975L380.59375 406.35L378.82812 406.35ZM389.54688 406.35L389.54688 405.0375Q388.5625 406.58438 386.64062 406.58438Q385.40625 406.58438 384.35938 405.89688Q383.32812 405.20938 382.75 403.99063Q382.1875 402.77188 382.1875 401.17813Q382.1875 399.61563 382.70312 398.35Q383.21875 397.08438 384.25 396.4125Q385.29688 395.74063 386.5625 395.74063Q387.5 395.74063 388.23438 396.14688Q388.96875 396.5375 389.4375 397.1625L389.4375 392.0375L391.17188 392.0375L391.17188 406.35L389.54688 406.35ZM383.98438 401.17813Q383.98438 403.1625 384.82812 404.14688Q385.67188 405.13126 386.8125 405.13126Q387.96875 405.13126 388.76562 404.19376Q389.57812 403.25626 389.57812 401.31876Q389.57812 399.19376 388.75 398.19376Q387.9375 397.19376 386.73438 397.19376Q385.5625 397.19376 384.76562 398.1625Q383.98438 399.11563 383.98438 401.17813ZM400.59375 405.06876Q399.60938 405.89688 398.70312 406.24063Q397.79688 406.58438 396.76562 406.58438Q395.0625 406.58438 394.14062 405.75626Q393.21875 404.9125 393.21875 403.61563Q393.21875 402.85 393.5625 402.225Q393.92188 401.6 394.48438 401.225Q395.04688 400.83438 395.75 400.63126Q396.26562 400.50626 397.3125 400.36563Q399.4375 400.11563 400.4375 399.77188Q400.45312 399.4125 400.45312 399.30313Q400.45312 398.24063 399.95312 397.7875Q399.28125 397.19376 397.95312 397.19376Q396.70312 397.19376 396.10938 397.63126Q395.53125 398.06876 395.25 399.17813L393.53125 398.94376Q393.76562 397.83438 394.29688 397.1625Q394.82812 396.475 395.84375 396.11563Q396.85938 395.74063 398.20312 395.74063Q399.53125 395.74063 400.35938 396.05313Q401.1875 396.36563 401.57812 396.85Q401.96875 397.31876 402.125 398.0375Q402.21875 398.49063 402.21875 399.6625L402.21875 402.00626Q402.21875 404.45938 402.32812 405.11563Q402.4375 405.75626 402.78125 406.35L400.9375 406.35Q400.67188 405.80313 400.59375 405.06876ZM400.4375 401.14688Q399.48438 401.5375 397.5625 401.80313Q396.48438 401.95938 396.03125 402.1625Q395.59375 402.35 395.34375 402.725Q395.09375 403.1 395.09375 403.56876Q395.09375 404.27188 395.625 404.74063Q396.15625 405.20938 397.1875 405.20938Q398.20312 405.20938 398.98438 404.77188Q399.78125 404.31876 400.15625 403.55313Q400.4375 402.94376 400.4375 401.7875L400.4375 401.14688ZM411.54688 406.35L411.54688 405.0375Q410.5625 406.58438 408.64062 406.58438Q407.40625 406.58438 406.35938 405.89688Q405.32812 405.20938 404.75 403.99063Q404.1875 402.77188 404.1875 401.17813Q404.1875 399.61563 404.70312 398.35Q405.21875 397.08438 406.25 396.4125Q407.29688 395.74063 408.5625 395.74063Q409.5 395.74063 410.23438 396.14688Q410.96875 396.5375 411.4375 397.1625L411.4375 392.0375L413.17188 392.0375L413.17188 406.35L411.54688 406.35ZM405.98438 401.17813Q405.98438 403.1625 406.82812 404.14688Q407.67188 405.13126 408.8125 405.13126Q409.96875 405.13126 410.76562 404.19376Q411.57812 403.25626 411.57812 401.31876Q411.57812 399.19376 410.75 398.19376Q409.9375 397.19376 408.73438 397.19376Q407.5625 397.19376 406.76562 398.1625Q405.98438 399.11563 405.98438 401.17813ZM428.54688 406.35L428.54688 405.0375Q427.5625 406.58438 425.64062 406.58438Q424.40625 406.58438 423.35938 405.89688Q422.32812 405.20938 421.75 403.99063Q421.1875 402.77188 421.1875 401.17813Q421.1875 399.61563 421.70312 398.35Q422.21875 397.08438 423.25 396.4125Q424.29688 395.74063 425.5625 395.74063Q426.5 395.74063 427.23438 396.14688Q427.96875 396.5375 428.4375 397.1625L428.4375 392.0375L430.17188 392.0375L430.17188 406.35L428.54688 406.35ZM422.98438 401.17813Q422.98438 403.1625 423.82812 404.14688Q424.67188 405.13126 425.8125 405.13126Q426.96875 405.13126 427.76562 404.19376Q428.57812 403.25626 428.57812 401.31876Q428.57812 399.19376 427.75 398.19376Q426.9375 397.19376 425.73438 397.19376Q424.5625 397.19376 423.76562 398.1625Q422.98438 399.11563 422.98438 401.17813ZM439.92188 403.00626L441.73438 403.24063Q441.3125 404.81876 440.14062 405.70938Q438.98438 406.58438 437.17188 406.58438Q434.90625 406.58438 433.5625 405.19376Q432.23438 403.7875 432.23438 401.25626Q432.23438 398.63126 433.57812 397.19376Q434.92188 395.74063 437.07812 395.74063Q439.15625 395.74063 440.46875 397.1625Q441.79688 398.56876 441.79688 401.14688Q441.79688 401.30313 441.78125 401.61563L434.04688 401.61563Q434.14062 403.31876 435.01562 404.225Q435.89062 405.13126 437.1875 405.13126Q438.15625 405.13126 438.82812 404.63126Q439.51562 404.11563 439.92188 403.00626ZM434.14062 400.1625L439.9375 400.1625Q439.82812 398.86563 439.28125 398.20938Q438.4375 397.19376 437.09375 397.19376Q435.89062 397.19376 435.0625 398.00626Q434.23438 398.80313 434.14062 400.1625ZM450.03125 406.35L450.03125 392.0375L451.96875 392.0375L459.48438 403.27188L459.48438 392.0375L461.29688 392.0375L461.29688 406.35L459.35938 406.35L451.84375 395.1L451.84375 406.35L450.03125 406.35ZM462.17188 401.1625Q462.17188 398.2875 463.76562 396.89688Q465.10938 395.74063 467.03125 395.74063Q469.17188 395.74063 470.51562 397.14688Q471.875 398.55313 471.875 401.02188Q471.875 403.02188 471.28125 404.17813Q470.6875 405.31876 469.53125 405.95938Q468.39062 406.58438 467.03125 406.58438Q464.84375 406.58438 463.5 405.19376Q462.17188 403.7875 462.17188 401.1625ZM463.96875 401.1625Q463.96875 403.1625 464.82812 404.14688Q465.70312 405.13126 467.03125 405.13126Q468.34375 405.13126 469.20312 404.14688Q470.07812 403.14688 470.07812 401.1Q470.07812 399.17813 469.20312 398.19376Q468.32812 397.19376 467.03125 397.19376Q465.70312 397.19376 464.82812 398.19376Q463.96875 399.17813 463.96875 401.1625ZM480.54688 406.35L480.54688 405.0375Q479.5625 406.58438 477.64062 406.58438Q476.40625 406.58438 475.35938 405.89688Q474.32812 405.20938 473.75 403.99063Q473.1875 402.77188 473.1875 401.17813Q473.1875 399.61563 473.70312 398.35Q474.21875 397.08438 475.25 396.4125Q476.29688 395.74063 477.5625 395.74063Q478.5 395.74063 479.23438 396.14688Q479.96875 396.5375 480.4375 397.1625L480.4375 392.0375L482.17188 392.0375L482.17188 406.35L480.54688 406.35ZM474.98438 401.17813Q474.98438 403.1625 475.82812 404.14688Q476.67188 405.13126 477.8125 405.13126Q478.96875 405.13126 479.76562 404.19376Q480.57812 403.25626 480.57812 401.31876Q480.57812 399.19376 479.75 398.19376Q478.9375 397.19376 477.73438 397.19376Q476.5625 397.19376 475.76562 398.1625Q474.98438 399.11563 474.98438 401.17813ZM484.17188 401.1625Q484.17188 398.2875 485.76562 396.89688Q487.10938 395.74063 489.03125 395.74063Q491.17188 395.74063 492.51562 397.14688Q493.875 398.55313 493.875 401.02188Q493.875 403.02188 493.28125 404.17813Q492.6875 405.31876 491.53125 405.95938Q490.39062 406.58438 489.03125 406.58438Q486.84375 406.58438 485.5 405.19376Q484.17188 403.7875 484.17188 401.1625ZM485.96875 401.1625Q485.96875 403.1625 486.82812 404.14688Q487.70312 405.13126 489.03125 405.13126Q490.34375 405.13126 491.20312 404.14688Q492.07812 403.14688 492.07812 401.1Q492.07812 399.17813 491.20312 398.19376Q490.32812 397.19376 489.03125 397.19376Q487.70312 397.19376 486.82812 398.19376Q485.96875 399.17813 485.96875 401.1625ZM495.10938 403.25626L496.85938 402.975Q497.0 404.02188 497.67188 404.58438Q498.34375 405.13126 499.54688 405.13126Q500.75 405.13126 501.32812 404.64688Q501.92188 404.14688 501.92188 403.49063Q501.92188 402.89688 501.40625 402.55313Q501.04688 402.31876 499.60938 401.95938Q497.67188 401.45938 496.92188 401.11563Q496.1875 400.75626 495.79688 400.13126Q495.40625 399.49063 495.40625 398.725Q495.40625 398.0375 495.71875 397.44376Q496.04688 396.85 496.59375 396.45938Q497.0 396.1625 497.70312 395.95938Q498.42188 395.74063 499.23438 395.74063Q500.45312 395.74063 501.375 396.1Q502.29688 396.44376 502.73438 397.05313Q503.17188 397.64688 503.34375 398.64688L501.625 398.88126Q501.5 398.08438 500.9375 397.64688Q500.375 397.19376 499.35938 397.19376Q498.14062 397.19376 497.625 397.6Q497.10938 397.99063 497.10938 398.52188Q497.10938 398.86563 497.32812 399.14688Q497.53125 399.42813 498.0 399.61563Q498.26562 399.70938 499.54688 400.05313Q501.42188 400.55313 502.15625 400.88126Q502.89062 401.19376 503.3125 401.80313Q503.73438 402.39688 503.73438 403.30313Q503.73438 404.17813 503.21875 404.95938Q502.70312 405.74063 501.73438 406.1625Q500.76562 406.58438 499.54688 406.58438Q497.53125 406.58438 496.46875 405.74063Q495.40625 404.89688 495.10938 403.25626Z" fill-rule="nonzero"/><path fill="#000000" d="M40.650005 264.52917L28.025005 264.52917L28.025005 269.24792L26.337505 269.24792L26.337505 257.90417L28.025005 257.90417L28.025005 262.63855L40.650005 262.63855L40.650005 264.52917ZM28.35313 256.38855L26.337505 256.38855L26.337505 254.62292L28.35313 254.62292L28.35313 256.38855ZM40.650005 256.38855L30.275005 256.38855L30.275005 254.62292L40.650005 254.62292L40.650005 256.38855ZM37.306255 245.2948L37.54063 243.4823Q39.118755 243.90417 40.00938 245.07605Q40.88438 246.2323 40.88438 248.0448Q40.88438 250.31042 39.493755 251.65417Q38.087505 252.9823 35.556255 252.9823Q32.931255 252.9823 31.493755 251.63855Q30.04063 250.2948 30.04063 248.13855Q30.04063 246.06042 31.462505 244.74792Q32.868755 243.4198 35.44688 243.4198Q35.60313 243.4198 35.91563 243.43542L35.91563 251.1698Q37.618755 251.07605 38.525005 250.20105Q39.431255 249.32605 39.431255 248.02917Q39.431255 247.06042 38.931255 246.38855Q38.41563 245.70105 37.306255 245.2948ZM34.462505 251.07605L34.462505 245.27917Q33.16563 245.38855 32.50938 245.93542Q31.493755 246.77917 31.493755 248.12292Q31.493755 249.32605 32.306255 250.15417Q33.10313 250.9823 34.462505 251.07605ZM40.650005 241.40417L30.275005 241.40417L30.275005 239.82605L31.72813 239.82605Q30.97813 239.34167 30.50938 238.52917Q30.04063 237.71667 30.04063 236.68542Q30.04063 235.52917 30.525005 234.7948Q30.993755 234.06042 31.85313 233.74792Q30.04063 232.51355 30.04063 230.5448Q30.04063 228.99792 30.900005 228.1698Q31.75938 227.34167 33.525005 227.34167L40.650005 227.34167L40.650005 229.09167L34.118755 229.09167Q33.056255 229.09167 32.60313 229.26355Q32.13438 229.43542 31.85313 229.88855Q31.57188 230.32605 31.57188 230.93542Q31.57188 232.02917 32.306255 232.76355Q33.025005 233.4823 34.618755 233.4823L40.650005 233.4823L40.650005 235.2323L33.91563 235.2323Q32.743755 235.2323 32.16563 235.6698Q31.57188 236.09167 31.57188 237.07605Q31.57188 237.81042 31.962505 238.45105Q32.35313 239.07605 33.10313 239.3573Q33.85313 239.63855 35.275005 239.63855L40.650005 239.63855L40.650005 241.40417ZM44.618755 225.40417L30.275005 225.40417L30.275005 223.7948L31.618755 223.7948Q30.837505 223.2323 30.44688 222.52917Q30.04063 221.81042 30.04063 220.7948Q30.04063 219.46667 30.72813 218.45105Q31.41563 217.43542 32.66563 216.9198Q33.900005 216.38855 35.38438 216.38855Q36.97813 216.38855 38.25938 216.96667Q39.525005 217.52917 40.212505 218.62292Q40.88438 219.71667 40.88438 220.9198Q40.88438 221.7948 40.50938 222.49792Q40.13438 223.18542 39.57188 223.63855L44.618755 223.63855L44.618755 225.40417ZM35.525005 223.81042Q37.525005 223.81042 38.47813 222.99792Q39.431255 222.18542 39.431255 221.02917Q39.431255 219.8573 38.44688 219.02917Q37.462505 218.18542 35.368755 218.18542Q33.400005 218.18542 32.41563 219.01355Q31.41563 219.82605 31.41563 220.95105Q31.41563 222.07605 32.47813 222.95105Q33.525005 223.81042 35.525005 223.81042ZM35.462505 215.0448Q32.587505 215.0448 31.19688 213.45105Q30.04063 212.1073 30.04063 210.18542Q30.04063 208.0448 31.44688 206.70105Q32.85313 205.34167 35.32188 205.34167Q37.32188 205.34167 38.47813 205.93542Q39.618755 206.52917 40.25938 207.68542Q40.88438 208.82605 40.88438 210.18542Q40.88438 212.37292 39.493755 213.71667Q38.087505 215.0448 35.462505 215.0448ZM35.462505 213.24792Q37.462505 213.24792 38.44688 212.38855Q39.431255 211.51355 39.431255 210.18542Q39.431255 208.87292 38.44688 208.01355Q37.44688 207.13855 35.400005 207.13855Q33.47813 207.13855 32.493755 208.01355Q31.493755 208.88855 31.493755 210.18542Q31.493755 211.51355 32.493755 212.38855Q33.47813 213.24792 35.462505 213.24792ZM44.85313 194.0448Q43.025005 195.49792 40.57188 196.49792Q38.10313 197.49792 35.462505 197.49792Q33.13438 197.49792 31.00938 196.74792Q28.54063 195.87292 26.087505 194.0448L26.087505 192.77917Q28.118755 193.96667 28.993755 194.34167Q30.337505 194.93542 31.806255 195.27917Q33.63438 195.70105 35.47813 195.70105Q40.16563 195.70105 44.85313 192.77917L44.85313 194.0448ZM40.650005 190.40417L30.275005 190.40417L30.275005 188.82605L31.72813 188.82605Q30.97813 188.34167 30.50938 187.52917Q30.04063 186.71667 30.04063 185.68542Q30.04063 184.52917 30.525005 183.7948Q30.993755 183.06042 31.85313 182.74792Q30.04063 181.51355 30.04063 179.5448Q30.04063 177.99792 30.900005 177.1698Q31.75938 176.34167 33.525005 176.34167L40.650005 176.34167L40.650005 178.09167L34.118755 178.09167Q33.056255 178.09167 32.60313 178.26355Q32.13438 178.43542 31.85313 178.88855Q31.57188 179.32605 31.57188 179.93542Q31.57188 181.02917 32.306255 181.76355Q33.025005 182.4823 34.618755 182.4823L40.650005 182.4823L40.650005 184.2323L33.91563 184.2323Q32.743755 184.2323 32.16563 184.6698Q31.57188 185.09167 31.57188 186.07605Q31.57188 186.81042 31.962505 187.45105Q32.35313 188.07605 33.10313 188.3573Q33.85313 188.63855 35.275005 188.63855L40.650005 188.63855L40.650005 190.40417ZM37.556255 175.1073L37.275005 173.3573Q38.32188 173.21667 38.88438 172.5448Q39.431255 171.87292 39.431255 170.6698Q39.431255 169.46667 38.94688 168.88855Q38.44688 168.2948 37.79063 168.2948Q37.19688 168.2948 36.85313 168.81042Q36.618755 169.1698 36.25938 170.6073Q35.75938 172.5448 35.41563 173.2948Q35.056255 174.02917 34.431255 174.4198Q33.79063 174.81042 33.025005 174.81042Q32.337505 174.81042 31.743755 174.49792Q31.150005 174.1698 30.75938 173.62292Q30.462505 173.21667 30.25938 172.51355Q30.04063 171.7948 30.04063 170.9823Q30.04063 169.76355 30.400005 168.84167Q30.743755 167.9198 31.35313 167.4823Q31.94688 167.0448 32.94688 166.87292L33.181255 168.59167Q32.38438 168.71667 31.94688 169.27917Q31.493755 169.84167 31.493755 170.8573Q31.493755 172.07605 31.900005 172.59167Q32.29063 173.1073 32.82188 173.1073Q33.16563 173.1073 33.44688 172.88855Q33.72813 172.68542 33.91563 172.21667Q34.00938 171.95105 34.35313 170.6698Q34.85313 168.7948 35.181255 168.06042Q35.493755 167.32605 36.10313 166.90417Q36.69688 166.4823 37.60313 166.4823Q38.47813 166.4823 39.25938 166.99792Q40.04063 167.51355 40.462505 168.4823Q40.88438 169.45105 40.88438 170.6698Q40.88438 172.68542 40.04063 173.74792Q39.19688 174.81042 37.556255 175.1073ZM44.85313 163.24792L44.85313 164.49792Q40.16563 161.59167 35.47813 161.59167Q33.63438 161.59167 31.837505 161.99792Q30.368755 162.34167 29.025005 162.93542Q28.13438 163.31042 26.087505 164.49792L26.087505 163.24792Q28.54063 161.40417 31.00938 160.52917Q33.13438 159.77917 35.462505 159.77917Q38.10313 159.77917 40.57188 160.7948Q43.025005 161.7948 44.85313 163.24792Z" fill-rule="nonzero"/><path fill="#000000" d="M149.10312 330.35L147.3375 330.35L147.3375 319.14688Q146.7125 319.75626 145.68124 320.36563Q144.65 320.95938 143.82187 321.27188L143.82187 319.56876Q145.30624 318.88126 146.4 317.89688Q147.50937 316.89688 147.9625 315.975L149.10312 315.975L149.10312 330.35Z" fill-rule="nonzero"/><path fill="#000000" d="M138.10312 292.21866L136.3375 292.21866L136.3375 281.01553Q135.7125 281.6249 134.68124 282.23428Q133.65 282.82803 132.82187 283.14053L132.82187 281.4374Q134.30624 280.7499 135.4 279.76553Q136.50937 278.76553 136.9625 277.84366L138.10312 277.84366L138.10312 292.21866ZM142.47812 285.15616Q142.47812 282.6249 142.99374 281.07803Q143.525 279.51553 144.55624 278.6874Q145.5875 277.84366 147.15 277.84366Q148.30624 277.84366 149.16562 278.3124Q150.04062 278.76553 150.60312 279.64053Q151.16562 280.51553 151.49374 281.78116Q151.82187 283.03116 151.82187 285.15616Q151.82187 287.67178 151.29062 289.21866Q150.775 290.76553 149.74374 291.6249Q148.72812 292.46866 147.15 292.46866Q145.07187 292.46866 143.9 290.98428Q142.47812 289.1874 142.47812 285.15616ZM144.29062 285.15616Q144.29062 288.6874 145.10312 289.85928Q145.93124 291.01553 147.15 291.01553Q148.35312 291.01553 149.18124 289.84366Q150.00937 288.67178 150.00937 285.15616Q150.00937 281.6249 149.18124 280.46866Q148.35312 279.29678 147.13437 279.29678Q145.91562 279.29678 145.19687 280.32803Q144.29062 281.6249 144.29062 285.15616Z" fill-rule="nonzero"/><path fill="#000000" d="M127.10313 254.08734L125.3375 254.08734L125.3375 242.88422Q124.7125 243.49359 123.68125 244.10297Q122.65 244.69672 121.82188 245.00922L121.82188 243.30609Q123.30625 242.61859 124.4 241.63422Q125.50938 240.63422 125.9625 239.71234L127.10313 239.71234L127.10313 254.08734ZM131.47812 247.02484Q131.47812 244.49359 131.99374 242.94672Q132.525 241.38422 133.55624 240.55609Q134.5875 239.71234 136.15 239.71234Q137.30624 239.71234 138.16562 240.18109Q139.04062 240.63422 139.60312 241.50922Q140.16562 242.38422 140.49374 243.64984Q140.82187 244.89984 140.82187 247.02484Q140.82187 249.54047 140.29062 251.08734Q139.775 252.63422 138.74374 253.49359Q137.72812 254.33734 136.15 254.33734Q134.07187 254.33734 132.9 252.85297Q131.47812 251.05609 131.47812 247.02484ZM133.29062 247.02484Q133.29062 250.55609 134.10312 251.72797Q134.93124 252.88422 136.15 252.88422Q137.35312 252.88422 138.18124 251.71234Q139.00937 250.54047 139.00937 247.02484Q139.00937 243.49359 138.18124 242.33734Q137.35312 241.16547 136.13437 241.16547Q134.91562 241.16547 134.19687 242.19672Q133.29062 243.49359 133.29062 247.02484ZM142.47812 247.02484Q142.47812 244.49359 142.99374 242.94672Q143.525 241.38422 144.55624 240.55609Q145.5875 239.71234 147.15 239.71234Q148.30624 239.71234 149.16562 240.18109Q150.04062 240.63422 150.60312 241.50922Q151.16562 242.38422 151.49374 243.64984Q151.82187 244.89984 151.82187 247.02484Q151.82187 249.54047 151.29062 251.08734Q150.775 252.63422 149.74374 253.49359Q148.72812 254.33734 147.15 254.33734Q145.07187 254.33734 143.9 252.85297Q142.47812 251.05609 142.47812 247.02484ZM144.29062 247.02484Q144.29062 250.55609 145.10312 251.72797Q145.93124 252.88422 147.15 252.88422Q148.35312 252.88422 149.18124 251.71234Q150.00937 250.54047 150.00937 247.02484Q150.00937 243.49359 149.18124 242.33734Q148.35312 241.16547 147.13437 241.16547Q145.91562 241.16547 145.19687 242.19672Q144.29062 243.49359 144.29062 247.02484Z" fill-rule="nonzero"/><path fill="#000000" d="M116.10313 215.95601L114.3375 215.95601L114.3375 204.75288Q113.7125 205.36226 112.68125 205.97163Q111.65 206.56538 110.82188 206.87788L110.82188 205.17476Q112.30625 204.48726 113.4 203.50288Q114.50938 202.50288 114.9625 201.58101L116.10313 201.58101L116.10313 215.95601ZM120.47813 208.89351Q120.47813 206.36226 120.99375 204.81538Q121.525 203.25288 122.55625 202.42476Q123.5875 201.58101 125.15 201.58101Q126.30625 201.58101 127.16563 202.04976Q128.04062 202.50288 128.60312 203.37788Q129.16562 204.25288 129.49374 205.51851Q129.82187 206.76851 129.82187 208.89351Q129.82187 211.40913 129.29062 212.95601Q128.775 214.50288 127.74375 215.36226Q126.72813 216.20601 125.15 216.20601Q123.07188 216.20601 121.9 214.72163Q120.47813 212.92476 120.47813 208.89351ZM122.29063 208.89351Q122.29063 212.42476 123.10313 213.59663Q123.93125 214.75288 125.15 214.75288Q126.35313 214.75288 127.18125 213.58101Q128.00937 212.40913 128.00937 208.89351Q128.00937 205.36226 127.18125 204.20601Q126.35313 203.03413 125.13438 203.03413Q123.91563 203.03413 123.19688 204.06538Q122.29063 205.36226 122.29063 208.89351ZM131.47812 208.89351Q131.47812 206.36226 131.99374 204.81538Q132.525 203.25288 133.55624 202.42476Q134.5875 201.58101 136.15 201.58101Q137.30624 201.58101 138.16562 202.04976Q139.04062 202.50288 139.60312 203.37788Q140.16562 204.25288 140.49374 205.51851Q140.82187 206.76851 140.82187 208.89351Q140.82187 211.40913 140.29062 212.95601Q139.775 214.50288 138.74374 215.36226Q137.72812 216.20601 136.15 216.20601Q134.07187 216.20601 132.9 214.72163Q131.47812 212.92476 131.47812 208.89351ZM133.29062 208.89351Q133.29062 212.42476 134.10312 213.59663Q134.93124 214.75288 136.15 214.75288Q137.35312 214.75288 138.18124 213.58101Q139.00937 212.40913 139.00937 208.89351Q139.00937 205.36226 138.18124 204.20601Q137.35312 203.03413 136.13437 203.03413Q134.91562 203.03413 134.19687 204.06538Q133.29062 205.36226 133.29062 208.89351ZM142.47812 208.89351Q142.47812 206.36226 142.99374 204.81538Q143.525 203.25288 144.55624 202.42476Q145.5875 201.58101 147.15 201.58101Q148.30624 201.58101 149.16562 202.04976Q150.04062 202.50288 150.60312 203.37788Q151.16562 204.25288 151.49374 205.51851Q151.82187 206.76851 151.82187 208.89351Q151.82187 211.40913 151.29062 212.95601Q150.775 214.50288 149.74374 215.36226Q148.72812 216.20601 147.15 216.20601Q145.07187 216.20601 143.9 214.72163Q142.47812 212.92476 142.47812 208.89351ZM144.29062 208.89351Q144.29062 212.42476 145.10312 213.59663Q145.93124 214.75288 147.15 214.75288Q148.35312 214.75288 149.18124 213.58101Q150.00937 212.40913 150.00937 208.89351Q150.00937 205.36226 149.18124 204.20601Q148.35312 203.03413 147.13437 203.03413Q145.91562 203.03413 145.19687 204.06538Q144.29062 205.36226 144.29062 208.89351Z" fill-rule="nonzero"/><path fill="#000000" d="M105.10313 177.82468L103.3375 177.82468L103.3375 166.62155Q102.7125 167.23093 101.68125 167.8403Q100.65 168.43405 99.82188 168.74655L99.82188 167.04343Q101.30625 166.35593 102.4 165.37155Q103.50938 164.37155 103.9625 163.44968L105.10313 163.44968L105.10313 177.82468ZM109.47813 170.76218Q109.47813 168.23093 109.99375 166.68405Q110.525 165.12155 111.55625 164.29343Q112.5875 163.44968 114.15 163.44968Q115.30625 163.44968 116.16563 163.91843Q117.04063 164.37155 117.60313 165.24655Q118.16563 166.12155 118.49375 167.38718Q118.82188 168.63718 118.82188 170.76218Q118.82188 173.2778 118.29063 174.82468Q117.775 176.37155 116.74375 177.23093Q115.72813 178.07468 114.15 178.07468Q112.07188 178.07468 110.9 176.5903Q109.47813 174.79343 109.47813 170.76218ZM111.29063 170.76218Q111.29063 174.29343 112.10313 175.4653Q112.93125 176.62155 114.15 176.62155Q115.35313 176.62155 116.18125 175.44968Q117.00938 174.2778 117.00938 170.76218Q117.00938 167.23093 116.18125 166.07468Q115.35313 164.9028 114.13438 164.9028Q112.91563 164.9028 112.19688 165.93405Q111.29063 167.23093 111.29063 170.76218ZM120.47813 170.76218Q120.47813 168.23093 120.99375 166.68405Q121.525 165.12155 122.55625 164.29343Q123.5875 163.44968 125.15 163.44968Q126.30625 163.44968 127.16563 163.91843Q128.04062 164.37155 128.60312 165.24655Q129.16562 166.12155 129.49374 167.38718Q129.82187 168.63718 129.82187 170.76218Q129.82187 173.2778 129.29062 174.82468Q128.775 176.37155 127.74375 177.23093Q126.72813 178.07468 125.15 178.07468Q123.07188 178.07468 121.9 176.5903Q120.47813 174.79343 120.47813 170.76218ZM122.29063 170.76218Q122.29063 174.29343 123.10313 175.4653Q123.93125 176.62155 125.15 176.62155Q126.35313 176.62155 127.18125 175.44968Q128.00937 174.2778 128.00937 170.76218Q128.00937 167.23093 127.18125 166.07468Q126.35313 164.9028 125.13438 164.9028Q123.91563 164.9028 123.19688 165.93405Q122.29063 167.23093 122.29063 170.76218ZM131.47812 170.76218Q131.47812 168.23093 131.99374 166.68405Q132.525 165.12155 133.55624 164.29343Q134.5875 163.44968 136.15 163.44968Q137.30624 163.44968 138.16562 163.91843Q139.04062 164.37155 139.60312 165.24655Q140.16562 166.12155 140.49374 167.38718Q140.82187 168.63718 140.82187 170.76218Q140.82187 173.2778 140.29062 174.82468Q139.775 176.37155 138.74374 177.23093Q137.72812 178.07468 136.15 178.07468Q134.07187 178.07468 132.9 176.5903Q131.47812 174.79343 131.47812 170.76218ZM133.29062 170.76218Q133.29062 174.29343 134.10312 175.4653Q134.93124 176.62155 136.15 176.62155Q137.35312 176.62155 138.18124 175.44968Q139.00937 174.2778 139.00937 170.76218Q139.00937 167.23093 138.18124 166.07468Q137.35312 164.9028 136.13437 164.9028Q134.91562 164.9028 134.19687 165.93405Q133.29062 167.23093 133.29062 170.76218ZM142.47812 170.76218Q142.47812 168.23093 142.99374 166.68405Q143.525 165.12155 144.55624 164.29343Q145.5875 163.44968 147.15 163.44968Q148.30624 163.44968 149.16562 163.91843Q150.04062 164.37155 150.60312 165.24655Q151.16562 166.12155 151.49374 167.38718Q151.82187 168.63718 151.82187 170.76218Q151.82187 173.2778 151.29062 174.82468Q150.775 176.37155 149.74374 177.23093Q148.72812 178.07468 147.15 178.07468Q145.07187 178.07468 143.9 176.5903Q142.47812 174.79343 142.47812 170.76218ZM144.29062 170.76218Q144.29062 174.29343 145.10312 175.4653Q145.93124 176.62155 147.15 176.62155Q148.35312 176.62155 149.18124 175.44968Q150.00937 174.2778 150.00937 170.76218Q150.00937 167.23093 149.18124 166.07468Q148.35312 164.9028 147.13437 164.9028Q145.91562 164.9028 145.19687 165.93405Q144.29062 167.23093 144.29062 170.76218Z" fill-rule="nonzero"/><path fill="#000000" d="M94.10313 139.69334L92.3375 139.69334L92.3375 128.49022Q91.7125 129.0996 90.68125 129.70897Q89.65 130.30272 88.82188 130.61522L88.82188 128.9121Q90.30625 128.2246 91.4 127.24022Q92.50938 126.24022 92.9625 125.318344L94.10313 125.318344L94.10313 139.69334ZM98.47813 132.63084Q98.47813 130.0996 98.99375 128.55272Q99.525 126.99022 100.55625 126.162094Q101.5875 125.318344 103.15 125.318344Q104.30625 125.318344 105.16563 125.787094Q106.04063 126.24022 106.60313 127.11522Q107.16563 127.99022 107.49375 129.25584Q107.82188 130.50584 107.82188 132.63084Q107.82188 135.14647 107.29063 136.69334Q106.775 138.24022 105.74375 139.0996Q104.72813 139.94334 103.15 139.94334Q101.07188 139.94334 99.9 138.45897Q98.47813 136.6621 98.47813 132.63084ZM100.29063 132.63084Q100.29063 136.1621 101.10313 137.33397Q101.93125 138.49022 103.15 138.49022Q104.35313 138.49022 105.18125 137.31834Q106.00938 136.14647 106.00938 132.63084Q106.00938 129.0996 105.18125 127.943344Q104.35313 126.77147 103.13438 126.77147Q101.91563 126.77147 101.19688 127.80272Q100.29063 129.0996 100.29063 132.63084ZM109.47813 132.63084Q109.47813 130.0996 109.99375 128.55272Q110.525 126.99022 111.55625 126.162094Q112.5875 125.318344 114.15 125.318344Q115.30625 125.318344 116.16563 125.787094Q117.04063 126.24022 117.60313 127.11522Q118.16563 127.99022 118.49375 129.25584Q118.82188 130.50584 118.82188 132.63084Q118.82188 135.14647 118.29063 136.69334Q117.775 138.24022 116.74375 139.0996Q115.72813 139.94334 114.15 139.94334Q112.07188 139.94334 110.9 138.45897Q109.47813 136.6621 109.47813 132.63084ZM111.29063 132.63084Q111.29063 136.1621 112.10313 137.33397Q112.93125 138.49022 114.15 138.49022Q115.35313 138.49022 116.18125 137.31834Q117.00938 136.14647 117.00938 132.63084Q117.00938 129.0996 116.18125 127.943344Q115.35313 126.77147 114.13438 126.77147Q112.91563 126.77147 112.19688 127.80272Q111.29063 129.0996 111.29063 132.63084ZM120.47813 132.63084Q120.47813 130.0996 120.99375 128.55272Q121.525 126.99022 122.55625 126.162094Q123.5875 125.318344 125.15 125.318344Q126.30625 125.318344 127.16563 125.787094Q128.04062 126.24022 128.60312 127.11522Q129.16562 127.99022 129.49374 129.25584Q129.82187 130.50584 129.82187 132.63084Q129.82187 135.14647 129.29062 136.69334Q128.775 138.24022 127.74375 139.0996Q126.72813 139.94334 125.15 139.94334Q123.07188 139.94334 121.9 138.45897Q120.47813 136.6621 120.47813 132.63084ZM122.29063 132.63084Q122.29063 136.1621 123.10313 137.33397Q123.93125 138.49022 125.15 138.49022Q126.35313 138.49022 127.18125 137.31834Q128.00937 136.14647 128.00937 132.63084Q128.00937 129.0996 127.18125 127.943344Q126.35313 126.77147 125.13438 126.77147Q123.91563 126.77147 123.19688 127.80272Q122.29063 129.0996 122.29063 132.63084ZM131.47812 132.63084Q131.47812 130.0996 131.99374 128.55272Q132.525 126.99022 133.55624 126.162094Q134.5875 125.318344 136.15 125.318344Q137.30624 125.318344 138.16562 125.787094Q139.04062 126.24022 139.60312 127.11522Q140.16562 127.99022 140.49374 129.25584Q140.82187 130.50584 140.82187 132.63084Q140.82187 135.14647 140.29062 136.69334Q139.775 138.24022 138.74374 139.0996Q137.72812 139.94334 136.15 139.94334Q134.07187 139.94334 132.9 138.45897Q131.47812 136.6621 131.47812 132.63084ZM133.29062 132.63084Q133.29062 136.1621 134.10312 137.33397Q134.93124 138.49022 136.15 138.49022Q137.35312 138.49022 138.18124 137.31834Q139.00937 136.14647 139.00937 132.63084Q139.00937 129.0996 138.18124 127.943344Q137.35312 126.77147 136.13437 126.77147Q134.91562 126.77147 134.19687 127.80272Q133.29062 129.0996 133.29062 132.63084ZM142.47812 132.63084Q142.47812 130.0996 142.99374 128.55272Q143.525 126.99022 144.55624 126.162094Q145.5875 125.318344 147.15 125.318344Q148.30624 125.318344 149.16562 125.787094Q150.04062 126.24022 150.60312 127.11522Q151.16562 127.99022 151.49374 129.25584Q151.82187 130.50584 151.82187 132.63084Q151.82187 135.14647 151.29062 136.69334Q150.775 138.24022 149.74374 139.0996Q148.72812 139.94334 147.15 139.94334Q145.07187 139.94334 143.9 138.45897Q142.47812 136.6621 142.47812 132.63084ZM144.29062 132.63084Q144.29062 136.1621 145.10312 137.33397Q145.93124 138.49022 147.15 138.49022Q148.35312 138.49022 149.18124 137.31834Q150.00937 136.14647 150.00937 132.63084Q150.00937 129.0996 149.18124 127.943344Q148.35312 126.77147 147.13437 126.77147Q145.91562 126.77147 145.19687 127.80272Q144.29062 129.0996 144.29062 132.63084Z" fill-rule="nonzero"/><path fill="#000000" d="M83.10313 101.56201L81.3375 101.56201L81.3375 90.35889Q80.7125 90.96826 79.68125 91.57764Q78.65 92.17139 77.82188 92.48389L77.82188 90.78076Q79.30625 90.09326 80.4 89.10889Q81.50938 88.10889 81.9625 87.18701L83.10313 87.18701L83.10313 101.56201ZM87.47813 94.49951Q87.47813 91.96826 87.99375 90.42139Q88.525 88.85889 89.55625 88.03076Q90.5875 87.18701 92.15 87.18701Q93.30625 87.18701 94.16563 87.65576Q95.04063 88.10889 95.60313 88.98389Q96.16563 89.85889 96.49375 91.12451Q96.82188 92.37451 96.82188 94.49951Q96.82188 97.01514 96.29063 98.56201Q95.775 100.10889 94.74375 100.96826Q93.72813 101.81201 92.15 101.81201Q90.07188 101.81201 88.9 100.32764Q87.47813 98.53076 87.47813 94.49951ZM89.29063 94.49951Q89.29063 98.03076 90.10313 99.20264Q90.93125 100.35889 92.15 100.35889Q93.35313 100.35889 94.18125 99.18701Q95.00938 98.01514 95.00938 94.49951Q95.00938 90.96826 94.18125 89.81201Q93.35313 88.64014 92.13438 88.64014Q90.91563 88.64014 90.19688 89.67139Q89.29063 90.96826 89.29063 94.49951ZM98.47813 94.49951Q98.47813 91.96826 98.99375 90.42139Q99.525 88.85889 100.55625 88.03076Q101.5875 87.18701 103.15 87.18701Q104.30625 87.18701 105.16563 87.65576Q106.04063 88.10889 106.60313 88.98389Q107.16563 89.85889 107.49375 91.12451Q107.82188 92.37451 107.82188 94.49951Q107.82188 97.01514 107.29063 98.56201Q106.775 100.10889 105.74375 100.96826Q104.72813 101.81201 103.15 101.81201Q101.07188 101.81201 99.9 100.32764Q98.47813 98.53076 98.47813 94.49951ZM100.29063 94.49951Q100.29063 98.03076 101.10313 99.20264Q101.93125 100.35889 103.15 100.35889Q104.35313 100.35889 105.18125 99.18701Q106.00938 98.01514 106.00938 94.49951Q106.00938 90.96826 105.18125 89.81201Q104.35313 88.64014 103.13438 88.64014Q101.91563 88.64014 101.19688 89.67139Q100.29063 90.96826 100.29063 94.49951ZM109.47813 94.49951Q109.47813 91.96826 109.99375 90.42139Q110.525 88.85889 111.55625 88.03076Q112.5875 87.18701 114.15 87.18701Q115.30625 87.18701 116.16563 87.65576Q117.04063 88.10889 117.60313 88.98389Q118.16563 89.85889 118.49375 91.12451Q118.82188 92.37451 118.82188 94.49951Q118.82188 97.01514 118.29063 98.56201Q117.775 100.10889 116.74375 100.96826Q115.72813 101.81201 114.15 101.81201Q112.07188 101.81201 110.9 100.32764Q109.47813 98.53076 109.47813 94.49951ZM111.29063 94.49951Q111.29063 98.03076 112.10313 99.20264Q112.93125 100.35889 114.15 100.35889Q115.35313 100.35889 116.18125 99.18701Q117.00938 98.01514 117.00938 94.49951Q117.00938 90.96826 116.18125 89.81201Q115.35313 88.64014 114.13438 88.64014Q112.91563 88.64014 112.19688 89.67139Q111.29063 90.96826 111.29063 94.49951ZM120.47813 94.49951Q120.47813 91.96826 120.99375 90.42139Q121.525 88.85889 122.55625 88.03076Q123.5875 87.18701 125.15 87.18701Q126.30625 87.18701 127.16563 87.65576Q128.04062 88.10889 128.60312 88.98389Q129.16562 89.85889 129.49374 91.12451Q129.82187 92.37451 129.82187 94.49951Q129.82187 97.01514 129.29062 98.56201Q128.775 100.10889 127.74375 100.96826Q126.72813 101.81201 125.15 101.81201Q123.07188 101.81201 121.9 100.32764Q120.47813 98.53076 120.47813 94.49951ZM122.29063 94.49951Q122.29063 98.03076 123.10313 99.20264Q123.93125 100.35889 125.15 100.35889Q126.35313 100.35889 127.18125 99.18701Q128.00937 98.01514 128.00937 94.49951Q128.00937 90.96826 127.18125 89.81201Q126.35313 88.64014 125.13438 88.64014Q123.91563 88.64014 123.19688 89.67139Q122.29063 90.96826 122.29063 94.49951ZM131.47812 94.49951Q131.47812 91.96826 131.99374 90.42139Q132.525 88.85889 133.55624 88.03076Q134.5875 87.18701 136.15 87.18701Q137.30624 87.18701 138.16562 87.65576Q139.04062 88.10889 139.60312 88.98389Q140.16562 89.85889 140.49374 91.12451Q140.82187 92.37451 140.82187 94.49951Q140.82187 97.01514 140.29062 98.56201Q139.775 100.10889 138.74374 100.96826Q137.72812 101.81201 136.15 101.81201Q134.07187 101.81201 132.9 100.32764Q131.47812 98.53076 131.47812 94.49951ZM133.29062 94.49951Q133.29062 98.03076 134.10312 99.20264Q134.93124 100.35889 136.15 100.35889Q137.35312 100.35889 138.18124 99.18701Q139.00937 98.01514 139.00937 94.49951Q139.00937 90.96826 138.18124 89.81201Q137.35312 88.64014 136.13437 88.64014Q134.91562 88.64014 134.19687 89.67139Q133.29062 90.96826 133.29062 94.49951ZM142.47812 94.49951Q142.47812 91.96826 142.99374 90.42139Q143.525 88.85889 144.55624 88.03076Q145.5875 87.18701 147.15 87.18701Q148.30624 87.18701 149.16562 87.65576Q150.04062 88.10889 150.60312 88.98389Q151.16562 89.85889 151.49374 91.12451Q151.82187 92.37451 151.82187 94.49951Q151.82187 97.01514 151.29062 98.56201Q150.775 100.10889 149.74374 100.96826Q148.72812 101.81201 147.15 101.81201Q145.07187 101.81201 143.9 100.32764Q142.47812 98.53076 142.47812 94.49951ZM144.29062 94.49951Q144.29062 98.03076 145.10312 99.20264Q145.93124 100.35889 147.15 100.35889Q148.35312 100.35889 149.18124 99.18701Q150.00937 98.01514 150.00937 94.49951Q150.00937 90.96826 149.18124 89.81201Q148.35312 88.64014 147.13437 88.64014Q145.91562 88.64014 145.19687 89.67139Q144.29062 90.96826 144.29062 94.49951Z" fill-rule="nonzero"/><path fill="#000000" d="M157.97812 345.2875Q157.97812 342.75626 158.49374 341.20938Q159.025 339.64688 160.05624 338.81876Q161.0875 337.975 162.65 337.975Q163.80624 337.975 164.66562 338.44376Q165.54062 338.89688 166.10312 339.77188Q166.66562 340.64688 166.99374 341.9125Q167.32187 343.1625 167.32187 345.2875Q167.32187 347.80313 166.79062 349.35Q166.275 350.89688 165.24374 351.75626Q164.22812 352.6 162.65 352.6Q160.57187 352.6 159.4 351.11563Q157.97812 349.31876 157.97812 345.2875ZM159.79062 345.2875Q159.79062 348.81876 160.60312 349.99063Q161.43124 351.14688 162.65 351.14688Q163.85312 351.14688 164.68124 349.975Q165.50937 348.80313 165.50937 345.2875Q165.50937 341.75626 164.68124 340.6Q163.85312 339.42813 162.63437 339.42813Q161.41562 339.42813 160.69687 340.45938Q159.79062 341.75626 159.79062 345.2875Z" fill-rule="nonzero"/><path fill="#000000" d="M331.0031 352.35L329.2375 352.35L329.2375 341.14688Q328.6125 341.75626 327.58124 342.36563Q326.55 342.95938 325.72186 343.27188L325.72186 341.56876Q327.20624 340.88126 328.3 339.89688Q329.40936 338.89688 329.8625 337.975L331.0031 337.975L331.0031 352.35ZM335.3781 345.2875Q335.3781 342.75626 335.89374 341.20938Q336.425 339.64688 337.45624 338.81876Q338.4875 337.975 340.05 337.975Q341.20624 337.975 342.0656 338.44376Q342.9406 338.89688 343.5031 339.77188Q344.0656 340.64688 344.39374 341.9125Q344.72186 343.1625 344.72186 345.2875Q344.72186 347.80313 344.1906 349.35Q343.675 350.89688 342.64374 351.75626Q341.6281 352.6 340.05 352.6Q337.97186 352.6 336.8 351.11563Q335.3781 349.31876 335.3781 345.2875ZM337.1906 345.2875Q337.1906 348.81876 338.0031 349.99063Q338.83124 351.14688 340.05 351.14688Q341.2531 351.14688 342.08124 349.975Q342.90936 348.80313 342.90936 345.2875Q342.90936 341.75626 342.08124 340.6Q341.2531 339.42813 340.03436 339.42813Q338.8156 339.42813 338.09686 340.45938Q337.1906 341.75626 337.1906 345.2875Z" fill-rule="nonzero"/><path fill="#000000" d="M505.5125 350.6625L505.5125 352.35L496.0594 352.35Q496.04376 351.70938 496.2625 351.13126Q496.6219 350.1625 497.41876 349.225Q498.21564 348.2875 499.71564 347.05313Q502.0594 345.14688 502.8719 344.0375Q503.7 342.9125 503.7 341.9125Q503.7 340.86563 502.95 340.14688Q502.2 339.42813 500.9969 339.42813Q499.73126 339.42813 498.96564 340.19376Q498.2 340.95938 498.2 342.30313L496.3875 342.11563Q496.575 340.1 497.77814 339.0375Q498.9969 337.975 501.04376 337.975Q503.09064 337.975 504.29376 339.11563Q505.4969 340.25626 505.4969 341.94376Q505.4969 342.80313 505.1375 343.64688Q504.79376 344.475 503.98126 345.39688Q503.16876 346.30313 501.27814 347.9125Q499.6844 349.24063 499.23126 349.70938Q498.79376 350.17813 498.4969 350.6625L505.5125 350.6625ZM507.27814 345.2875Q507.27814 342.75626 507.79376 341.20938Q508.325 339.64688 509.35626 338.81876Q510.3875 337.975 511.95 337.975Q513.10626 337.975 513.96564 338.44376Q514.84064 338.89688 515.40314 339.77188Q515.96564 340.64688 516.29376 341.9125Q516.6219 343.1625 516.6219 345.2875Q516.6219 347.80313 516.09064 349.35Q515.575 350.89688 514.54376 351.75626Q513.52814 352.6 511.95 352.6Q509.8719 352.6 508.7 351.11563Q507.27814 349.31876 507.27814 345.2875ZM509.09064 345.2875Q509.09064 348.81876 509.90314 349.99063Q510.73126 351.14688 511.95 351.14688Q513.15314 351.14688 513.98126 349.975Q514.8094 348.80313 514.8094 345.2875Q514.8094 341.75626 513.98126 340.6Q513.15314 339.42813 511.9344 339.42813Q510.71564 339.42813 509.9969 340.45938Q509.09064 341.75626 509.09064 345.2875Z" fill-rule="nonzero"/><path fill="#000000" d="M668.1937 348.56876L669.9437 348.33438Q670.2562 349.83438 670.975 350.49063Q671.70935 351.14688 672.7562 351.14688Q673.9906 351.14688 674.83435 350.2875Q675.6937 349.42813 675.6937 348.1625Q675.6937 346.94376 674.89685 346.1625Q674.1156 345.38126 672.89685 345.38126Q672.39685 345.38126 671.6625 345.56876L671.85 344.02188Q672.02185 344.05313 672.1312 344.05313Q673.2562 344.05313 674.14685 343.475Q675.0531 342.88126 675.0531 341.6625Q675.0531 340.69376 674.39685 340.05313Q673.7406 339.4125 672.70935 339.4125Q671.6937 339.4125 671.0062 340.06876Q670.3187 340.70938 670.1312 341.99063L668.3656 341.67813Q668.6937 339.9125 669.83435 338.94376Q670.975 337.975 672.6781 337.975Q673.85 337.975 674.83435 338.475Q675.8187 338.975 676.33435 339.85Q676.8656 340.725 676.8656 341.69376Q676.8656 342.61563 676.3656 343.38126Q675.8656 344.14688 674.89685 344.6Q676.1625 344.88126 676.8656 345.81876Q677.5687 346.74063 677.5687 348.11563Q677.5687 349.99063 676.1937 351.30313Q674.83435 352.6 672.7406 352.6Q670.85 352.6 669.6 351.475Q668.3656 350.35 668.1937 348.56876ZM679.1781 345.2875Q679.1781 342.75626 679.6937 341.20938Q680.225 339.64688 681.2562 338.81876Q682.2875 337.975 683.85 337.975Q685.0062 337.975 685.8656 338.44376Q686.7406 338.89688 687.3031 339.77188Q687.8656 340.64688 688.1937 341.9125Q688.52185 343.1625 688.52185 345.2875Q688.52185 347.80313 687.9906 349.35Q687.475 350.89688 686.4437 351.75626Q685.4281 352.6 683.85 352.6Q681.77185 352.6 680.6 351.11563Q679.1781 349.31876 679.1781 345.2875ZM680.9906 345.2875Q680.9906 348.81876 681.8031 349.99063Q682.6312 351.14688 683.85 351.14688Q685.0531 351.14688 685.8812 349.975Q686.70935 348.80313 686.70935 345.2875Q686.70935 341.75626 685.8812 340.6Q685.0531 339.42813 683.83435 339.42813Q682.6156 339.42813 681.89685 340.45938Q680.9906 341.75626 680.9906 345.2875Z" fill-rule="nonzero"/><path fill="#757575" d="M134.8125 49.65L134.8125 28.181252L142.92188 28.181252Q145.04688 28.181252 146.1875 28.384377Q147.76562 28.650002 148.82812 29.384377Q149.90625 30.118752 150.54688 31.462502Q151.20312 32.790627 151.20312 34.384377Q151.20312 37.11875 149.45312 39.025Q147.71875 40.915627 143.17188 40.915627L137.65625 40.915627L137.65625 49.65L134.8125 49.65ZM137.65625 38.384377L143.20312 38.384377Q145.96875 38.384377 147.125 37.36875Q148.28125 36.3375 148.28125 34.478127Q148.28125 33.11875 147.59375 32.165627Q146.92188 31.212502 145.79688 30.900002Q145.07812 30.712502 143.15625 30.712502L137.65625 30.712502L137.65625 38.384377ZM165.125 44.634377L167.85938 44.978127Q167.20312 47.36875 165.45312 48.696877Q163.71875 50.009377 161.01562 50.009377Q157.59375 50.009377 155.59375 47.9Q153.59375 45.790627 153.59375 42.009377Q153.59375 38.071877 155.60938 35.915627Q157.64062 33.74375 160.85938 33.74375Q163.98438 33.74375 165.95312 35.86875Q167.9375 37.99375 167.9375 41.8375Q167.9375 42.071877 167.92188 42.540627L156.32812 42.540627Q156.46875 45.103127 157.76562 46.478127Q159.07812 47.8375 161.03125 47.8375Q162.46875 47.8375 163.5 47.071877Q164.53125 46.30625 165.125 44.634377ZM156.46875 40.384377L165.15625 40.384377Q164.98438 38.415627 164.15625 37.43125Q162.90625 35.915627 160.89062 35.915627Q159.07812 35.915627 157.84375 37.134377Q156.60938 38.3375 156.46875 40.384377ZM170.45312 49.65L170.45312 34.0875L172.82812 34.0875L172.82812 36.446877Q173.73438 34.790627 174.5 34.275Q175.26562 33.74375 176.1875 33.74375Q177.53125 33.74375 178.90625 34.5875L178.0 37.040627Q177.03125 36.4625 176.0625 36.4625Q175.1875 36.4625 174.5 36.99375Q173.8125 37.509377 173.53125 38.43125Q173.07812 39.8375 173.07812 41.509377L173.07812 49.65L170.45312 49.65ZM181.10938 49.65L181.10938 36.15L178.78125 36.15L178.78125 34.0875L181.10938 34.0875L181.10938 32.43125Q181.10938 30.868752 181.39062 30.103127Q181.76562 29.087502 182.71875 28.446877Q183.6875 27.806252 185.42188 27.806252Q186.53125 27.806252 187.875 28.071877L187.48438 30.368752Q186.65625 30.228127 185.92188 30.228127Q184.71875 30.228127 184.21875 30.743752Q183.73438 31.243752 183.73438 32.65L183.73438 34.0875L186.76562 34.0875L186.76562 36.15L183.73438 36.15L183.73438 49.65L181.10938 49.65ZM187.5 41.86875Q187.5 37.55625 189.90625 35.4625Q191.90625 33.74375 194.79688 33.74375Q198.0 33.74375 200.03125 35.853127Q202.07812 37.946877 202.07812 41.65Q202.07812 44.65 201.17188 46.384377Q200.26562 48.103127 198.54688 49.05625Q196.82812 50.009377 194.79688 50.009377Q191.53125 50.009377 189.51562 47.915627Q187.5 45.80625 187.5 41.86875ZM190.20312 41.86875Q190.20312 44.853127 191.5 46.353127Q192.8125 47.8375 194.79688 47.8375Q196.75 47.8375 198.04688 46.3375Q199.35938 44.8375 199.35938 41.790627Q199.35938 38.9 198.04688 37.415627Q196.73438 35.93125 194.79688 35.93125Q192.8125 35.93125 191.5 37.415627Q190.20312 38.884377 190.20312 41.86875ZM204.45312 49.65L204.45312 34.0875L206.82812 34.0875L206.82812 36.446877Q207.73438 34.790627 208.5 34.275Q209.26562 33.74375 210.1875 33.74375Q211.53125 33.74375 212.90625 34.5875L212.0 37.040627Q211.03125 36.4625 210.0625 36.4625Q209.1875 36.4625 208.5 36.99375Q207.8125 37.509377 207.53125 38.43125Q207.07812 39.8375 207.07812 41.509377L207.07812 49.65L204.45312 49.65ZM214.48438 49.65L214.48438 34.0875L216.84375 34.0875L216.84375 36.275Q217.5625 35.134377 218.78125 34.446877Q220.0 33.74375 221.54688 33.74375Q223.28125 33.74375 224.39062 34.4625Q225.5 35.18125 225.95312 36.4625Q227.79688 33.74375 230.75 33.74375Q233.0625 33.74375 234.3125 35.025Q235.5625 36.30625 235.5625 38.978127L235.5625 49.65L232.9375 49.65L232.9375 39.853127Q232.9375 38.275 232.67188 37.571877Q232.42188 36.86875 231.75 36.446877Q231.07812 36.025 230.17188 36.025Q228.53125 36.025 227.4375 37.11875Q226.35938 38.2125 226.35938 40.61875L226.35938 49.65L223.71875 49.65L223.71875 39.540627Q223.71875 37.790627 223.07812 36.915627Q222.4375 36.025 220.96875 36.025Q219.85938 36.025 218.90625 36.61875Q217.96875 37.196877 217.53125 38.321877Q217.10938 39.446877 217.10938 41.571877L217.10938 49.65L214.48438 49.65ZM249.625 47.728127Q248.17188 48.978127 246.8125 49.49375Q245.45312 50.009377 243.90625 50.009377Q241.34375 50.009377 239.95312 48.759377Q238.57812 47.49375 238.57812 45.540627Q238.57812 44.4 239.09375 43.4625Q239.625 42.509377 240.46875 41.946877Q241.3125 41.36875 242.35938 41.0875Q243.14062 40.86875 244.70312 40.68125Q247.90625 40.30625 249.40625 39.775Q249.42188 39.228127 249.42188 39.0875Q249.42188 37.478127 248.67188 36.821877Q247.67188 35.93125 245.67188 35.93125Q243.8125 35.93125 242.92188 36.5875Q242.04688 37.228127 241.60938 38.884377L239.03125 38.525Q239.39062 36.86875 240.1875 35.853127Q241.0 34.8375 242.51562 34.290627Q244.04688 33.74375 246.0625 33.74375Q248.04688 33.74375 249.28125 34.2125Q250.53125 34.68125 251.10938 35.4Q251.70312 36.103127 251.9375 37.18125Q252.07812 37.853127 252.07812 39.61875L252.07812 43.134377Q252.07812 46.80625 252.23438 47.790627Q252.40625 48.759377 252.90625 49.65L250.15625 49.65Q249.75 48.821877 249.625 47.728127ZM249.40625 41.8375Q247.96875 42.43125 245.10938 42.8375Q243.48438 43.071877 242.79688 43.36875Q242.125 43.665627 241.75 44.228127Q241.39062 44.790627 241.39062 45.478127Q241.39062 46.525 242.1875 47.228127Q243.0 47.93125 244.53125 47.93125Q246.0625 47.93125 247.23438 47.275Q248.42188 46.603127 248.98438 45.446877Q249.40625 44.55625 249.40625 42.80625L249.40625 41.8375ZM255.48438 49.65L255.48438 34.0875L257.84375 34.0875L257.84375 36.30625Q259.5625 33.74375 262.79688 33.74375Q264.20312 33.74375 265.375 34.259377Q266.5625 34.759377 267.14062 35.5875Q267.73438 36.4 267.96875 37.525Q268.125 38.259377 268.125 40.0875L268.125 49.65L265.48438 49.65L265.48438 40.18125Q265.48438 38.571877 265.17188 37.775Q264.875 36.978127 264.07812 36.509377Q263.29688 36.025 262.25 36.025Q260.5625 36.025 259.32812 37.103127Q258.10938 38.165627 258.10938 41.15L258.10938 49.65L255.48438 49.65ZM282.625 43.946877L285.21875 44.290627Q284.79688 46.9625 283.04688 48.49375Q281.29688 50.009377 278.75 50.009377Q275.54688 50.009377 273.60938 47.915627Q271.67188 45.821877 271.67188 41.93125Q271.67188 39.415627 272.5 37.525Q273.34375 35.634377 275.04688 34.696877Q276.75 33.74375 278.76562 33.74375Q281.29688 33.74375 282.90625 35.025Q284.51562 36.30625 284.96875 38.665627L282.40625 39.05625Q282.04688 37.49375 281.10938 36.7125Q280.1875 35.915627 278.85938 35.915627Q276.875 35.915627 275.625 37.3375Q274.375 38.759377 274.375 41.853127Q274.375 44.99375 275.57812 46.415627Q276.78125 47.8375 278.71875 47.8375Q280.26562 47.8375 281.29688 46.884377Q282.34375 45.93125 282.625 43.946877ZM298.125 44.634377L300.85938 44.978127Q300.20312 47.36875 298.45312 48.696877Q296.71875 50.009377 294.01562 50.009377Q290.59375 50.009377 288.59375 47.9Q286.59375 45.790627 286.59375 42.009377Q286.59375 38.071877 288.60938 35.915627Q290.64062 33.74375 293.85938 33.74375Q296.98438 33.74375 298.95312 35.86875Q300.9375 37.99375 300.9375 41.8375Q300.9375 42.071877 300.92188 42.540627L289.32812 42.540627Q289.46875 45.103127 290.76562 46.478127Q292.07812 47.8375 294.03125 47.8375Q295.46875 47.8375 296.5 47.071877Q297.53125 46.30625 298.125 44.634377ZM289.46875 40.384377L298.15625 40.384377Q297.98438 38.415627 297.15625 37.43125Q295.90625 35.915627 293.89062 35.915627Q292.07812 35.915627 290.84375 37.134377Q289.60938 38.3375 289.46875 40.384377ZM321.625 47.728127Q320.17188 48.978127 318.8125 49.49375Q317.45312 50.009377 315.90625 50.009377Q313.34375 50.009377 311.95312 48.759377Q310.57812 47.49375 310.57812 45.540627Q310.57812 44.4 311.09375 43.4625Q311.625 42.509377 312.46875 41.946877Q313.3125 41.36875 314.35938 41.0875Q315.14062 40.86875 316.70312 40.68125Q319.90625 40.30625 321.40625 39.775Q321.42188 39.228127 321.42188 39.0875Q321.42188 37.478127 320.67188 36.821877Q319.67188 35.93125 317.67188 35.93125Q315.8125 35.93125 314.92188 36.5875Q314.04688 37.228127 313.60938 38.884377L311.03125 38.525Q311.39062 36.86875 312.1875 35.853127Q313.0 34.8375 314.51562 34.290627Q316.04688 33.74375 318.0625 33.74375Q320.04688 33.74375 321.28125 34.2125Q322.53125 34.68125 323.10938 35.4Q323.70312 36.103127 323.9375 37.18125Q324.07812 37.853127 324.07812 39.61875L324.07812 43.134377Q324.07812 46.80625 324.23438 47.790627Q324.40625 48.759377 324.90625 49.65L322.15625 49.65Q321.75 48.821877 321.625 47.728127ZM321.40625 41.8375Q319.96875 42.43125 317.10938 42.8375Q315.48438 43.071877 314.79688 43.36875Q314.125 43.665627 313.75 44.228127Q313.39062 44.790627 313.39062 45.478127Q313.39062 46.525 314.1875 47.228127Q315.0 47.93125 316.53125 47.93125Q318.0625 47.93125 319.23438 47.275Q320.42188 46.603127 320.98438 45.446877Q321.40625 44.55625 321.40625 42.80625L321.40625 41.8375ZM327.42188 49.65L327.42188 28.181252L330.0625 28.181252L330.0625 49.65L327.42188 49.65ZM334.0 50.946877L336.5625 51.321877Q336.71875 52.509377 337.45312 53.05625Q338.4375 53.775 340.125 53.775Q341.96875 53.775 342.95312 53.040627Q343.95312 52.321877 344.3125 50.99375Q344.51562 50.196877 344.5 47.61875Q342.76562 49.65 340.1875 49.65Q336.98438 49.65 335.21875 47.3375Q333.46875 45.025 333.46875 41.790627Q333.46875 39.55625 334.26562 37.68125Q335.07812 35.790627 336.60938 34.775Q338.14062 33.74375 340.20312 33.74375Q342.95312 33.74375 344.75 35.9625L344.75 34.0875L347.17188 34.0875L347.17188 47.540627Q347.17188 51.18125 346.4375 52.696877Q345.70312 54.2125 344.09375 55.0875Q342.48438 55.9625 340.14062 55.9625Q337.35938 55.9625 335.64062 54.7125Q333.9375 53.4625 334.0 50.946877ZM336.17188 41.5875Q336.17188 44.65 337.39062 46.05625Q338.60938 47.4625 340.4375 47.4625Q342.25 47.4625 343.48438 46.071877Q344.71875 44.665627 344.71875 41.68125Q344.71875 38.821877 343.45312 37.384377Q342.1875 35.93125 340.39062 35.93125Q338.64062 35.93125 337.40625 37.353127Q336.17188 38.775 336.17188 41.5875ZM350.5 41.86875Q350.5 37.55625 352.90625 35.4625Q354.90625 33.74375 357.79688 33.74375Q361.0 33.74375 363.03125 35.853127Q365.07812 37.946877 365.07812 41.65Q365.07812 44.65 364.17188 46.384377Q363.26562 48.103127 361.54688 49.05625Q359.82812 50.009377 357.79688 50.009377Q354.53125 50.009377 352.51562 47.915627Q350.5 45.80625 350.5 41.86875ZM353.20312 41.86875Q353.20312 44.853127 354.5 46.353127Q355.8125 47.8375 357.79688 47.8375Q359.75 47.8375 361.04688 46.3375Q362.35938 44.8375 362.35938 41.790627Q362.35938 38.9 361.04688 37.415627Q359.73438 35.93125 357.79688 35.93125Q355.8125 35.93125 354.5 37.415627Q353.20312 38.884377 353.20312 41.86875ZM367.45312 49.65L367.45312 34.0875L369.82812 34.0875L369.82812 36.446877Q370.73438 34.790627 371.5 34.275Q372.26562 33.74375 373.1875 33.74375Q374.53125 33.74375 375.90625 34.5875L375.0 37.040627Q374.03125 36.4625 373.0625 36.4625Q372.1875 36.4625 371.5 36.99375Q370.8125 37.509377 370.53125 38.43125Q370.07812 39.8375 370.07812 41.509377L370.07812 49.65L367.45312 49.65ZM377.5 31.212502L377.5 28.181252L380.125 28.181252L380.125 31.212502L377.5 31.212502ZM377.5 49.65L377.5 34.0875L380.125 34.0875L380.125 49.65L377.5 49.65ZM390.23438 47.290627L390.60938 49.61875Q389.5 49.853127 388.625 49.853127Q387.1875 49.853127 386.39062 49.4Q385.60938 48.946877 385.28125 48.2125Q384.96875 47.4625 384.96875 45.0875L384.96875 36.15L383.03125 36.15L383.03125 34.0875L384.96875 34.0875L384.96875 30.243752L387.57812 28.665627L387.57812 34.0875L390.23438 34.0875L390.23438 36.15L387.57812 36.15L387.57812 45.24375Q387.57812 46.36875 387.71875 46.696877Q387.85938 47.009377 388.17188 47.2125Q388.48438 47.4 389.07812 47.4Q389.51562 47.4 390.23438 47.290627ZM392.48438 49.65L392.48438 34.0875L394.84375 34.0875L394.84375 36.275Q395.5625 35.134377 396.78125 34.446877Q398.0 33.74375 399.54688 33.74375Q401.28125 33.74375 402.39062 34.4625Q403.5 35.18125 403.95312 36.4625Q405.79688 33.74375 408.75 33.74375Q411.0625 33.74375 412.3125 35.025Q413.5625 36.30625 413.5625 38.978127L413.5625 49.65L410.9375 49.65L410.9375 39.853127Q410.9375 38.275 410.67188 37.571877Q410.42188 36.86875 409.75 36.446877Q409.07812 36.025 408.17188 36.025Q406.53125 36.025 405.4375 37.11875Q404.35938 38.2125 404.35938 40.61875L404.35938 49.65L401.71875 49.65L401.71875 39.540627Q401.71875 37.790627 401.07812 36.915627Q400.4375 36.025 398.96875 36.025Q397.85938 36.025 396.90625 36.61875Q395.96875 37.196877 395.53125 38.321877Q395.10938 39.446877 395.10938 41.571877L395.10938 49.65L392.48438 49.65ZM416.5 41.86875Q416.5 37.55625 418.90625 35.4625Q420.90625 33.74375 423.79688 33.74375Q427.0 33.74375 429.03125 35.853127Q431.07812 37.946877 431.07812 41.65Q431.07812 44.65 430.17188 46.384377Q429.26562 48.103127 427.54688 49.05625Q425.82812 50.009377 423.79688 50.009377Q420.53125 50.009377 418.51562 47.915627Q416.5 45.80625 416.5 41.86875ZM419.20312 41.86875Q419.20312 44.853127 420.5 46.353127Q421.8125 47.8375 423.79688 47.8375Q425.75 47.8375 427.04688 46.3375Q428.35938 44.8375 428.35938 41.790627Q428.35938 38.9 427.04688 37.415627Q425.73438 35.93125 423.79688 35.93125Q421.8125 35.93125 420.5 37.415627Q419.20312 38.884377 419.20312 41.86875ZM451.57812 49.65L451.57812 47.68125Q450.09375 50.009377 447.21875 50.009377Q445.35938 50.009377 443.79688 48.978127Q442.23438 47.946877 441.375 46.11875Q440.53125 44.275 440.53125 41.884377Q440.53125 39.55625 441.29688 37.665627Q442.07812 35.759377 443.625 34.759377Q445.1875 33.74375 447.10938 33.74375Q448.51562 33.74375 449.60938 34.3375Q450.70312 34.93125 451.39062 35.884377L451.39062 28.181252L454.01562 28.181252L454.01562 49.65L451.57812 49.65ZM443.23438 41.884377Q443.23438 44.86875 444.48438 46.353127Q445.75 47.8375 447.46875 47.8375Q449.20312 47.8375 450.40625 46.43125Q451.60938 45.009377 451.60938 42.103127Q451.60938 38.915627 450.375 37.43125Q449.15625 35.93125 447.35938 35.93125Q445.59375 35.93125 444.40625 37.36875Q443.23438 38.790627 443.23438 41.884377ZM469.125 44.634377L471.85938 44.978127Q471.20312 47.36875 469.45312 48.696877Q467.71875 50.009377 465.01562 50.009377Q461.59375 50.009377 459.59375 47.9Q457.59375 45.790627 457.59375 42.009377Q457.59375 38.071877 459.60938 35.915627Q461.64062 33.74375 464.85938 33.74375Q467.98438 33.74375 469.95312 35.86875Q471.9375 37.99375 471.9375 41.8375Q471.9375 42.071877 471.92188 42.540627L460.32812 42.540627Q460.46875 45.103127 461.76562 46.478127Q463.07812 47.8375 465.03125 47.8375Q466.46875 47.8375 467.5 47.071877Q468.53125 46.30625 469.125 44.634377ZM460.46875 40.384377L469.15625 40.384377Q468.98438 38.415627 468.15625 37.43125Q466.90625 35.915627 464.89062 35.915627Q463.07812 35.915627 461.84375 37.134377Q460.60938 38.3375 460.46875 40.384377ZM482.48438 55.61875L482.48438 34.0875L484.875 34.0875L484.875 36.11875Q485.73438 34.93125 486.79688 34.3375Q487.875 33.74375 489.39062 33.74375Q491.39062 33.74375 492.90625 34.775Q494.4375 35.790627 495.20312 37.665627Q495.98438 39.525 495.98438 41.759377Q495.98438 44.134377 495.125 46.05625Q494.26562 47.9625 492.625 48.99375Q491.0 50.009377 489.20312 50.009377Q487.89062 50.009377 486.82812 49.446877Q485.78125 48.884377 485.10938 48.040627L485.10938 55.61875L482.48438 55.61875ZM484.85938 41.9625Q484.85938 44.9625 486.07812 46.4Q487.29688 47.8375 489.03125 47.8375Q490.78125 47.8375 492.03125 46.353127Q493.28125 44.853127 493.28125 41.74375Q493.28125 38.759377 492.0625 37.290627Q490.84375 35.80625 489.14062 35.80625Q487.45312 35.80625 486.15625 37.384377Q484.85938 38.9625 484.85938 41.9625ZM509.67188 49.65L509.67188 47.36875Q507.85938 50.009377 504.73438 50.009377Q503.35938 50.009377 502.15625 49.478127Q500.96875 48.946877 500.39062 48.15Q499.8125 47.353127 499.57812 46.196877Q499.42188 45.415627 499.42188 43.728127L499.42188 34.0875L502.0625 34.0875L502.0625 42.728127Q502.0625 44.790627 502.21875 45.509377Q502.46875 46.540627 503.26562 47.134377Q504.07812 47.728127 505.26562 47.728127Q506.45312 47.728127 507.48438 47.11875Q508.53125 46.509377 508.95312 45.4625Q509.39062 44.415627 509.39062 42.43125L509.39062 34.0875L512.03125 34.0875L512.03125 49.65L509.67188 49.65ZM516.4219 49.65L516.4219 28.181252L519.0625 28.181252L519.0625 49.65L516.4219 49.65ZM522.4219 45.009377L525.03125 44.603127Q525.25 46.165627 526.25 47.009377Q527.25 47.8375 529.0625 47.8375Q530.875 47.8375 531.75 47.103127Q532.6406 46.353127 532.6406 45.353127Q532.6406 44.4625 531.8594 43.946877Q531.3125 43.603127 529.15625 43.05625Q526.2656 42.321877 525.1406 41.790627Q524.0156 41.259377 523.4375 40.321877Q522.8594 39.36875 522.8594 38.228127Q522.8594 37.18125 523.3281 36.30625Q523.8125 35.415627 524.6406 34.821877Q525.25 34.36875 526.3125 34.05625Q527.375 33.74375 528.59375 33.74375Q530.4219 33.74375 531.7969 34.275Q533.1875 34.790627 533.84375 35.696877Q534.5156 36.603127 534.75 38.103127L532.1719 38.4625Q532.0 37.259377 531.15625 36.5875Q530.3125 35.915627 528.78125 35.915627Q526.96875 35.915627 526.1875 36.509377Q525.40625 37.103127 525.40625 37.915627Q525.40625 38.43125 525.7344 38.8375Q526.0625 39.259377 526.75 39.540627Q527.1406 39.68125 529.0781 40.2125Q531.875 40.9625 532.96875 41.446877Q534.0781 41.915627 534.7031 42.821877Q535.34375 43.728127 535.34375 45.071877Q535.34375 46.4 534.5781 47.571877Q533.8125 48.728127 532.3594 49.36875Q530.90625 50.009377 529.0781 50.009377Q526.0469 50.009377 524.4531 48.74375Q522.8594 47.478127 522.4219 45.009377ZM537.5 41.86875Q537.5 37.55625 539.90625 35.4625Q541.90625 33.74375 544.7969 33.74375Q548.0 33.74375 550.03125 35.853127Q552.0781 37.946877 552.0781 41.65Q552.0781 44.65 551.1719 46.384377Q550.2656 48.103127 548.5469 49.05625Q546.8281 50.009377 544.7969 50.009377Q541.53125 50.009377 539.5156 47.915627Q537.5 45.80625 537.5 41.86875ZM540.2031 41.86875Q540.2031 44.853127 541.5 46.353127Q542.8125 47.8375 544.7969 47.8375Q546.75 47.8375 548.0469 46.3375Q549.3594 44.8375 549.3594 41.790627Q549.3594 38.9 548.0469 37.415627Q546.7344 35.93125 544.7969 35.93125Q542.8125 35.93125 541.5 37.415627Q540.2031 38.884377 540.2031 41.86875ZM553.4219 45.009377L556.03125 44.603127Q556.25 46.165627 557.25 47.009377Q558.25 47.8375 560.0625 47.8375Q561.875 47.8375 562.75 47.103127Q563.6406 46.353127 563.6406 45.353127Q563.6406 44.4625 562.8594 43.946877Q562.3125 43.603127 560.15625 43.05625Q557.2656 42.321877 556.1406 41.790627Q555.0156 41.259377 554.4375 40.321877Q553.8594 39.36875 553.8594 38.228127Q553.8594 37.18125 554.3281 36.30625Q554.8125 35.415627 555.6406 34.821877Q556.25 34.36875 557.3125 34.05625Q558.375 33.74375 559.59375 33.74375Q561.4219 33.74375 562.7969 34.275Q564.1875 34.790627 564.84375 35.696877Q565.5156 36.603127 565.75 38.103127L563.1719 38.4625Q563.0 37.259377 562.15625 36.5875Q561.3125 35.915627 559.78125 35.915627Q557.96875 35.915627 557.1875 36.509377Q556.40625 37.103127 556.40625 37.915627Q556.40625 38.43125 556.7344 38.8375Q557.0625 39.259377 557.75 39.540627Q558.1406 39.68125 560.0781 40.2125Q562.875 40.9625 563.96875 41.446877Q565.0781 41.915627 565.7031 42.821877Q566.34375 43.728127 566.34375 45.071877Q566.34375 46.4 565.5781 47.571877Q564.8125 48.728127 563.3594 49.36875Q561.90625 50.009377 560.0781 50.009377Q557.0469 50.009377 555.4531 48.74375Q553.8594 47.478127 553.4219 45.009377Z" fill-rule="nonzero"/></svg>