<svg version="1.1" viewBox="0.0 0.0 700.0 433.0" fill="none" stroke="none" stroke-linecap="square" stroke-miterlimit="10" width="700" height="433" xmlns:xlink="http://www.w3.org/1999/xlink" xmlns="http://www.w3.org/2000/svg"><path fill="#ffffff" d="M0 0L700.0 0L700.0 433.0L0 433.0L0 0Z" fill-rule="nonzero"/><path stroke="#333333" stroke-width="1.0" stroke-linecap="butt" d="M162.5 83.5L162.5 323.5" fill-rule="nonzero"/><path stroke="#cccccc" stroke-width="1.0" stroke-linecap="butt" d="M291.5 83.5L291.5 323.5" fill-rule="nonzero"/><path stroke="#cccccc" stroke-width="1.0" stroke-linecap="butt" d="M420.5 83.5L420.5 323.5" fill-rule="nonzero"/><path stroke="#cccccc" stroke-width="1.0" stroke-linecap="butt" d="M549.5 83.5L549.5 323.5" fill-rule="nonzero"/><path stroke="#cccccc" stroke-width="1.0" stroke-linecap="butt" d="M678.5 83.5L678.5 323.5" fill-rule="nonzero"/><path stroke="#cccccc" stroke-width="1.0" stroke-linecap="butt" d="M162.5 323.5L678.5 323.5" fill-rule="nonzero"/><path stroke="#cccccc" stroke-width="1.0" stroke-linecap="butt" d="M162.5 285.5L678.5 285.5" fill-rule="nonzero"/><path stroke="#cccccc" stroke-width="1.0" stroke-linecap="butt" d="M162.5 247.5L678.5 247.5" fill-rule="nonzero"/><path stroke="#cccccc" stroke-width="1.0" stroke-linecap="butt" d="M162.5 208.5L678.5 208.5" fill-rule="nonzero"/><path stroke="#cccccc" stroke-width="1.0" stroke-linecap="butt" d="M162.5 170.5L678.5 170.5" fill-rule="nonzero"/><path stroke="#cccccc" stroke-width="1.0" stroke-linecap="butt" d="M162.5 132.5L678.5 132.5" fill-rule="nonzero"/><path stroke="#cccccc" stroke-width="1.0" stroke-linecap="butt" d="M162.5 94.5L678.5 94.5" fill-rule="nonzero"/><clipPath id="id_0"><path d="M162.65 83.083336L678.35 83.083336L678.35 323.35L162.65 323.35L162.65 83.083336Z" clip-rule="nonzero"/></clipPath><path fill="#4285f4" clip-path="url(#id_0)" d="M192.935 293.67807C192.935 296.16333 190.92029 298.17807 188.435 298.17807C185.94972 298.17807 183.935 296.16333 183.935 293.67807C183.935 291.19278 185.94972 289.17807 188.435 289.17807C190.92029 289.17807 192.935 291.19278 192.935 293.67807Z" fill-rule="nonzero"/><path fill="#4285f4" clip-path="url(#id_0)" d="M218.72 286.96347C218.72 289.44873 216.70528 291.46347 214.22 291.46347C211.73473 291.46347 209.72 289.44873 209.72 286.96347C209.72 284.47818 211.73473 282.46347 214.22 282.46347C216.70528 282.46347 218.72 284.47818 218.72 286.96347Z" fill-rule="nonzero"/><path fill="#4285f4" clip-path="url(#id_0)" d="M218.72 293.67807C218.72 296.16333 216.70528 298.17807 214.22 298.17807C211.73473 298.17807 209.72 296.16333 209.72 293.67807C209.72 291.19278 211.73473 289.17807 214.22 289.17807C216.70528 289.17807 218.72 291.19278 218.72 293.67807Z" fill-rule="nonzero"/><path fill="#4285f4" clip-path="url(#id_0)" d="M244.505 278.50406C244.505 280.98935 242.49028 283.00406 240.005 283.00406C237.51971 283.00406 235.505 280.98935 235.505 278.50406C235.505 276.0188 237.51971 274.00406 240.005 274.00406C242.49028 274.00406 244.505 276.0188 244.505 278.50406Z" fill-rule="nonzero"/><path fill="#4285f4" clip-path="url(#id_0)" d="M244.505 291.12527C244.505 293.61057 242.49028 295.62527 240.005 295.62527C237.51971 295.62527 235.505 293.61057 235.505 291.12527C235.505 288.64 237.51971 286.62527 240.005 286.62527C242.49028 286.62527 244.505 288.64 244.505 291.12527Z" fill-rule="nonzero"/><path fill="#4285f4" clip-path="url(#id_0)" d="M244.505 293.67807C244.505 296.16333 242.49028 298.17807 240.005 298.17807C237.51971 298.17807 235.505 296.16333 235.505 293.67807C235.505 291.19278 237.51971 289.17807 240.005 289.17807C242.49028 289.17807 244.505 291.19278 244.505 293.67807Z" fill-rule="nonzero"/><path fill="#4285f4" clip-path="url(#id_0)" d="M270.29 278.50406C270.29 280.98935 268.27527 283.00406 265.79 283.00406C263.30472 283.00406 261.29 280.98935 261.29 278.50406C261.29 276.0188 263.30472 274.00406 265.79 274.00406C268.27527 274.00406 270.29 276.0188 270.29 278.50406Z" fill-rule="nonzero"/><path fill="#4285f4" clip-path="url(#id_0)" d="M347.645 253.96837C347.645 256.45364 345.63028 258.46835 343.145 258.46835C340.65973 258.46835 338.645 256.45364 338.645 253.96837C338.645 251.48308 340.65973 249.46837 343.145 249.46837C345.63028 249.46837 347.645 251.48308 347.645 253.96837Z" fill-rule="nonzero"/><path fill="#4285f4" clip-path="url(#id_0)" d="M218.72 305.15674C218.72 307.642 216.70528 309.65674 214.22 309.65674C211.73473 309.65674 209.72 307.642 209.72 305.15674C209.72 302.67145 211.73473 300.65674 214.22 300.65674C216.70528 300.65674 218.72 302.67145 218.72 305.15674Z" fill-rule="nonzero"/><path fill="#4285f4" clip-path="url(#id_0)" d="M399.215 213.09183C399.215 215.5771 397.2003 217.59183 394.715 217.59183C392.2297 217.59183 390.215 215.5771 390.215 213.09183C390.215 210.60654 392.2297 208.59183 394.715 208.59183C397.2003 208.59183 399.215 210.60654 399.215 213.09183Z" fill-rule="nonzero"/><path fill="#4285f4" clip-path="url(#id_0)" d="M218.72 305.15674C218.72 307.642 216.70528 309.65674 214.22 309.65674C211.73473 309.65674 209.72 307.642 209.72 305.15674C209.72 302.67145 211.73473 300.65674 214.22 300.65674C216.70528 300.65674 218.72 302.67145 218.72 305.15674Z" fill-rule="nonzero"/><path fill="#4285f4" clip-path="url(#id_0)" d="M425.0 239.51228C425.0 241.99756 422.9853 244.01228 420.5 244.01228C418.0147 244.01228 416.0 241.99756 416.0 239.51228C416.0 237.027 418.0147 235.01228 420.5 235.01228C422.9853 235.01228 425.0 237.027 425.0 239.51228Z" fill-rule="nonzero"/><path fill="#4285f4" clip-path="url(#id_0)" d="M244.505 272.932C244.505 275.4173 242.49028 277.432 240.005 277.432C237.51971 277.432 235.505 275.4173 235.505 272.932C235.505 270.44675 237.51971 268.432 240.005 268.432C242.49028 268.432 244.505 270.44675 244.505 272.932Z" fill-rule="nonzero"/><path fill="#4285f4" clip-path="url(#id_0)" d="M244.505 291.12527C244.505 293.61057 242.49028 295.62527 240.005 295.62527C237.51971 295.62527 235.505 293.61057 235.505 291.12527C235.505 288.64 237.51971 286.62527 240.005 286.62527C242.49028 286.62527 244.505 288.64 244.505 291.12527Z" fill-rule="nonzero"/><path fill="#4285f4" clip-path="url(#id_0)" d="M450.785 125.12027C450.785 127.60555 448.7703 129.62027 446.285 129.62027C443.7997 129.62027 441.785 127.60555 441.785 125.12027C441.785 122.634995 443.7997 120.62027 446.285 120.62027C448.7703 120.62027 450.785 122.634995 450.785 125.12027Z" fill-rule="nonzero"/><path fill="#4285f4" clip-path="url(#id_0)" d="M476.57 130.8499C476.57 133.33517 474.55527 135.3499 472.07 135.3499C469.58472 135.3499 467.57 133.33517 467.57 130.8499C467.57 128.36461 469.58472 126.34989 472.07 126.34989C474.55527 126.34989 476.57 128.36461 476.57 130.8499Z" fill-rule="nonzero"/><path fill="#4285f4" clip-path="url(#id_0)" d="M270.29 257.60107C270.29 260.08633 268.27527 262.10107 265.79 262.10107C263.30472 262.10107 261.29 260.08633 261.29 257.60107C261.29 255.11578 263.30472 253.10106 265.79 253.10106C268.27527 253.10106 270.29 255.11578 270.29 257.60107Z" fill-rule="nonzero"/><path fill="#4285f4" clip-path="url(#id_0)" d="M218.72 300.39264C218.72 302.87793 216.70528 304.89264 214.22 304.89264C211.73473 304.89264 209.72 302.87793 209.72 300.39264C209.72 297.90738 211.73473 295.89264 214.22 295.89264C216.70528 295.89264 218.72 297.90738 218.72 300.39264Z" fill-rule="nonzero"/><path fill="#4285f4" clip-path="url(#id_0)" d="M373.43 232.79768C373.43 235.28296 371.41528 237.29768 368.93 237.29768C366.44473 237.29768 364.43 235.28296 364.43 232.79768C364.43 230.31241 366.44473 228.29768 368.93 228.29768C371.41528 228.29768 373.43 230.31241 373.43 232.79768Z" fill-rule="nonzero"/><path fill="#4285f4" clip-path="url(#id_0)" d="M502.355 112.55888C502.355 115.04417 500.34027 117.05888 497.855 117.05888C495.36972 117.05888 493.355 115.04417 493.355 112.55888C493.355 110.0736 495.36972 108.05888 497.855 108.05888C500.34027 108.05888 502.355 110.0736 502.355 112.55888Z" fill-rule="nonzero"/><path fill="#4285f4" clip-path="url(#id_0)" d="M373.43 176.2924C373.43 178.77768 371.41528 180.7924 368.93 180.7924C366.44473 180.7924 364.43 178.77768 364.43 176.2924C364.43 173.80711 366.44473 171.7924 368.93 171.7924C371.41528 171.7924 373.43 173.80711 373.43 176.2924Z" fill-rule="nonzero"/><path fill="#4285f4" clip-path="url(#id_0)" d="M244.505 278.50406C244.505 280.98935 242.49028 283.00406 240.005 283.00406C237.51971 283.00406 235.505 280.98935 235.505 278.50406C235.505 276.0188 237.51971 274.00406 240.005 274.00406C242.49028 274.00406 244.505 276.0188 244.505 278.50406Z" fill-rule="nonzero"/><path fill="#4285f4" clip-path="url(#id_0)" d="M528.14 177.7988C528.14 180.28409 526.1253 182.2988 523.64 182.2988C521.1547 182.2988 519.14 180.28409 519.14 177.7988C519.14 175.31352 521.1547 173.2988 523.64 173.2988C526.1253 173.2988 528.14 175.31352 528.14 177.7988Z" fill-rule="nonzero"/><path fill="#4285f4" clip-path="url(#id_0)" d="M270.29 219.84898C270.29 222.33427 268.27527 224.34898 265.79 224.34898C263.30472 224.34898 261.29 222.33427 261.29 219.84898C261.29 217.36371 263.30472 215.34898 265.79 215.34898C268.27527 215.34898 270.29 217.36371 270.29 219.84898Z" fill-rule="nonzero"/><path fill="#4285f4" clip-path="url(#id_0)" d="M399.215 117.97923C399.215 120.464516 397.2003 122.47923 394.715 122.47923C392.2297 122.47923 390.215 120.464516 390.215 117.97923C390.215 115.49396 392.2297 113.47923 394.715 113.47923C397.2003 113.47923 399.215 115.49396 399.215 117.97923Z" fill-rule="nonzero"/><path fill="#4285f4" clip-path="url(#id_0)" d="M296.075 209.7185C296.075 212.20378 294.06027 214.2185 291.575 214.2185C289.08972 214.2185 287.075 212.20378 287.075 209.7185C287.075 207.23322 289.08972 205.2185 291.575 205.2185C294.06027 205.2185 296.075 207.23322 296.075 209.7185Z" fill-rule="nonzero"/><path fill="#4285f4" clip-path="url(#id_0)" d="M296.075 218.26482C296.075 220.7501 294.06027 222.76482 291.575 222.76482C289.08972 222.76482 287.075 220.7501 287.075 218.26482C287.075 215.77954 289.08972 213.76482 291.575 213.76482C294.06027 213.76482 296.075 215.77954 296.075 218.26482Z" fill-rule="nonzero"/><path fill="#4285f4" clip-path="url(#id_0)" d="M425.0 168.57222C425.0 171.0575 422.9853 173.07222 420.5 173.07222C418.0147 173.07222 416.0 171.0575 416.0 168.57222C416.0 166.08694 418.0147 164.07222 420.5 164.07222C422.9853 164.07222 425.0 166.08694 425.0 168.57222Z" fill-rule="nonzero"/><path fill="#4285f4" clip-path="url(#id_0)" d="M553.925 179.60455C553.925 182.08983 551.9103 184.10455 549.425 184.10455C546.9397 184.10455 544.925 182.08983 544.925 179.60455C544.925 177.11926 546.9397 175.10455 549.425 175.10455C551.9103 175.10455 553.925 177.11926 553.925 179.60455Z" fill-rule="nonzero"/><path fill="#4285f4" clip-path="url(#id_0)" d="M296.075 233.88043C296.075 236.36572 294.06027 238.38043 291.575 238.38043C289.08972 238.38043 287.075 236.36572 287.075 233.88043C287.075 231.39516 289.08972 229.38043 291.575 229.38043C294.06027 229.38043 296.075 231.39516 296.075 233.88043Z" fill-rule="nonzero"/><path fill="#4285f4" clip-path="url(#id_0)" d="M425.0 142.14133C425.0 144.6266 422.9853 146.64133 420.5 146.64133C418.0147 146.64133 416.0 144.6266 416.0 142.14133C416.0 139.65604 418.0147 137.64133 420.5 137.64133C422.9853 137.64133 425.0 139.65604 425.0 142.14133Z" fill-rule="nonzero"/><path fill="#000000" d="M341.26562 401.33438L343.15625 401.80313Q342.5625 404.14688 341.01562 405.38126Q339.46875 406.6 337.21875 406.6Q334.90625 406.6 333.45312 405.6625Q332.01562 404.70938 331.25 402.92813Q330.5 401.13126 330.5 399.08438Q330.5 396.85 331.34375 395.19376Q332.20312 393.52188 333.78125 392.6625Q335.35938 391.7875 337.25 391.7875Q339.40625 391.7875 340.85938 392.88126Q342.32812 393.975 342.90625 395.95938L341.04688 396.39688Q340.54688 394.83438 339.59375 394.13126Q338.65625 393.4125 337.21875 393.4125Q335.5625 393.4125 334.45312 394.20938Q333.34375 394.99063 332.89062 396.33438Q332.45312 397.6625 332.45312 399.06876Q332.45312 400.89688 332.98438 402.27188Q333.51562 403.63126 334.64062 404.30313Q335.76562 404.975 337.0625 404.975Q338.65625 404.975 339.76562 404.05313Q340.875 403.13126 341.26562 401.33438ZM351.59375 405.06876Q350.60938 405.89688 349.70312 406.24063Q348.79688 406.58438 347.76562 406.58438Q346.0625 406.58438 345.14062 405.75626Q344.21875 404.9125 344.21875 403.61563Q344.21875 402.85 344.5625 402.225Q344.92188 401.6 345.48438 401.225Q346.04688 400.83438 346.75 400.63126Q347.26562 400.50626 348.3125 400.36563Q350.4375 400.11563 351.4375 399.77188Q351.45312 399.4125 351.45312 399.30313Q351.45312 398.24063 350.95312 397.7875Q350.28125 397.19376 348.95312 397.19376Q347.70312 397.19376 347.10938 397.63126Q346.53125 398.06876 346.25 399.17813L344.53125 398.94376Q344.76562 397.83438 345.29688 397.1625Q345.82812 396.475 346.84375 396.11563Q347.85938 395.74063 349.20312 395.74063Q350.53125 395.74063 351.35938 396.05313Q352.1875 396.36563 352.57812 396.85Q352.96875 397.31876 353.125 398.0375Q353.21875 398.49063 353.21875 399.6625L353.21875 402.00626Q353.21875 404.45938 353.32812 405.11563Q353.4375 405.75626 353.78125 406.35L351.9375 406.35Q351.67188 405.80313 351.59375 405.06876ZM351.4375 401.14688Q350.48438 401.5375 348.5625 401.80313Q347.48438 401.95938 347.03125 402.1625Q346.59375 402.35 346.34375 402.725Q346.09375 403.1 346.09375 403.56876Q346.09375 404.27188 346.625 404.74063Q347.15625 405.20938 348.1875 405.20938Q349.20312 405.20938 349.98438 404.77188Q350.78125 404.31876 351.15625 403.55313Q351.4375 402.94376 351.4375 401.7875L351.4375 401.14688ZM355.8125 406.35L355.8125 395.975L357.40625 395.975L357.40625 397.45938Q358.54688 395.74063 360.70312 395.74063Q361.64062 395.74063 362.42188 396.08438Q363.21875 396.4125 363.60938 396.95938Q364.0 397.50626 364.15625 398.25626Q364.25 398.75626 364.25 399.975L364.25 406.35L362.48438 406.35L362.48438 400.0375Q362.48438 398.95938 362.28125 398.42813Q362.07812 397.89688 361.54688 397.58438Q361.03125 397.27188 360.32812 397.27188Q359.20312 397.27188 358.39062 397.99063Q357.57812 398.69376 357.57812 400.67813L357.57812 406.35L355.8125 406.35ZM369.65625 404.77188L369.90625 406.33438Q369.17188 406.49063 368.57812 406.49063Q367.625 406.49063 367.09375 406.19376Q366.57812 405.88126 366.35938 405.39688Q366.14062 404.89688 366.14062 403.31876L366.14062 397.35L364.85938 397.35L364.85938 395.975L366.14062 395.975L366.14062 393.4125L367.89062 392.35L367.89062 395.975L369.65625 395.975L369.65625 397.35L367.89062 397.35L367.89062 403.4125Q367.89062 404.1625 367.98438 404.38126Q368.07812 404.58438 368.28125 404.725Q368.5 404.85 368.89062 404.85Q369.17188 404.85 369.65625 404.77188ZM371.82812 394.05313L371.82812 392.0375L373.59375 392.0375L373.59375 394.05313L371.82812 394.05313ZM371.82812 406.35L371.82812 395.975L373.59375 395.975L373.59375 406.35L371.82812 406.35ZM382.54688 406.35L382.54688 405.0375Q381.5625 406.58438 379.64062 406.58438Q378.40625 406.58438 377.35938 405.89688Q376.32812 405.20938 375.75 403.99063Q375.1875 402.77188 375.1875 401.17813Q375.1875 399.61563 375.70312 398.35Q376.21875 397.08438 377.25 396.4125Q378.29688 395.74063 379.5625 395.74063Q380.5 395.74063 381.23438 396.14688Q381.96875 396.5375 382.4375 397.1625L382.4375 392.0375L384.17188 392.0375L384.17188 406.35L382.54688 406.35ZM376.98438 401.17813Q376.98438 403.1625 377.82812 404.14688Q378.67188 405.13126 379.8125 405.13126Q380.96875 405.13126 381.76562 404.19376Q382.57812 403.25626 382.57812 401.31876Q382.57812 399.19376 381.75 398.19376Q380.9375 397.19376 379.73438 397.19376Q378.5625 397.19376 377.76562 398.1625Q376.98438 399.11563 376.98438 401.17813ZM393.59375 405.06876Q392.60938 405.89688 391.70312 406.24063Q390.79688 406.58438 389.76562 406.58438Q388.0625 406.58438 387.14062 405.75626Q386.21875 404.9125 386.21875 403.61563Q386.21875 402.85 386.5625 402.225Q386.92188 401.6 387.48438 401.225Q388.04688 400.83438 388.75 400.63126Q389.26562 400.50626 390.3125 400.36563Q392.4375 400.11563 393.4375 399.77188Q393.45312 399.4125 393.45312 399.30313Q393.45312 398.24063 392.95312 397.7875Q392.28125 397.19376 390.95312 397.19376Q389.70312 397.19376 389.10938 397.63126Q388.53125 398.06876 388.25 399.17813L386.53125 398.94376Q386.76562 397.83438 387.29688 397.1625Q387.82812 396.475 388.84375 396.11563Q389.85938 395.74063 391.20312 395.74063Q392.53125 395.74063 393.35938 396.05313Q394.1875 396.36563 394.57812 396.85Q394.96875 397.31876 395.125 398.0375Q395.21875 398.49063 395.21875 399.6625L395.21875 402.00626Q395.21875 404.45938 395.32812 405.11563Q395.4375 405.75626 395.78125 406.35L393.9375 406.35Q393.67188 405.80313 393.59375 405.06876ZM393.4375 401.14688Q392.48438 401.5375 390.5625 401.80313Q389.48438 401.95938 389.03125 402.1625Q388.59375 402.35 388.34375 402.725Q388.09375 403.1 388.09375 403.56876Q388.09375 404.27188 388.625 404.74063Q389.15625 405.20938 390.1875 405.20938Q391.20312 405.20938 391.98438 404.77188Q392.78125 404.31876 393.15625 403.55313Q393.4375 402.94376 393.4375 401.7875L393.4375 401.14688ZM404.54688 406.35L404.54688 405.0375Q403.5625 406.58438 401.64062 406.58438Q400.40625 406.58438 399.35938 405.89688Q398.32812 405.20938 397.75 403.99063Q397.1875 402.77188 397.1875 401.17813Q397.1875 399.61563 397.70312 398.35Q398.21875 397.08438 399.25 396.4125Q400.29688 395.74063 401.5625 395.74063Q402.5 395.74063 403.23438 396.14688Q403.96875 396.5375 404.4375 397.1625L404.4375 392.0375L406.17188 392.0375L406.17188 406.35L404.54688 406.35ZM398.98438 401.17813Q398.98438 403.1625 399.82812 404.14688Q400.67188 405.13126 401.8125 405.13126Q402.96875 405.13126 403.76562 404.19376Q404.57812 403.25626 404.57812 401.31876Q404.57812 399.19376 403.75 398.19376Q402.9375 397.19376 401.73438 397.19376Q400.5625 397.19376 399.76562 398.1625Q398.98438 399.11563 398.98438 401.17813ZM421.54688 406.35L421.54688 405.0375Q420.5625 406.58438 418.64062 406.58438Q417.40625 406.58438 416.35938 405.89688Q415.32812 405.20938 414.75 403.99063Q414.1875 402.77188 414.1875 401.17813Q414.1875 399.61563 414.70312 398.35Q415.21875 397.08438 416.25 396.4125Q417.29688 395.74063 418.5625 395.74063Q419.5 395.74063 420.23438 396.14688Q420.96875 396.5375 421.4375 397.1625L421.4375 392.0375L423.17188 392.0375L423.17188 406.35L421.54688 406.35ZM415.98438 401.17813Q415.98438 403.1625 416.82812 404.14688Q417.67188 405.13126 418.8125 405.13126Q419.96875 405.13126 420.76562 404.19376Q421.57812 403.25626 421.57812 401.31876Q421.57812 399.19376 420.75 398.19376Q419.9375 397.19376 418.73438 397.19376Q417.5625 397.19376 416.76562 398.1625Q415.98438 399.11563 415.98438 401.17813ZM432.92188 403.00626L434.73438 403.24063Q434.3125 404.81876 433.14062 405.70938Q431.98438 406.58438 430.17188 406.58438Q427.90625 406.58438 426.5625 405.19376Q425.23438 403.7875 425.23438 401.25626Q425.23438 398.63126 426.57812 397.19376Q427.92188 395.74063 430.07812 395.74063Q432.15625 395.74063 433.46875 397.1625Q434.79688 398.56876 434.79688 401.14688Q434.79688 401.30313 434.78125 401.61563L427.04688 401.61563Q427.14062 403.31876 428.01562 404.225Q428.89062 405.13126 430.1875 405.13126Q431.15625 405.13126 431.82812 404.63126Q432.51562 404.11563 432.92188 403.00626ZM427.14062 400.1625L432.9375 400.1625Q432.82812 398.86563 432.28125 398.20938Q431.4375 397.19376 430.09375 397.19376Q428.89062 397.19376 428.0625 398.00626Q427.23438 398.80313 427.14062 400.1625ZM453.26562 401.33438L455.15625 401.80313Q454.5625 404.14688 453.01562 405.38126Q451.46875 406.6 449.21875 406.6Q446.90625 406.6 445.45312 405.6625Q444.01562 404.70938 443.25 402.92813Q442.5 401.13126 442.5 399.08438Q442.5 396.85 443.34375 395.19376Q444.20312 393.52188 445.78125 392.6625Q447.35938 391.7875 449.25 391.7875Q451.40625 391.7875 452.85938 392.88126Q454.32812 393.975 454.90625 395.95938L453.04688 396.39688Q452.54688 394.83438 451.59375 394.13126Q450.65625 393.4125 449.21875 393.4125Q447.5625 393.4125 446.45312 394.20938Q445.34375 394.99063 444.89062 396.33438Q444.45312 397.6625 444.45312 399.06876Q444.45312 400.89688 444.98438 402.27188Q445.51562 403.63126 446.64062 404.30313Q447.76562 404.975 449.0625 404.975Q450.65625 404.975 451.76562 404.05313Q452.875 403.13126 453.26562 401.33438ZM456.78125 406.35L456.78125 392.0375L458.53125 392.0375L458.53125 406.35L456.78125 406.35ZM460.82812 394.05313L460.82812 392.0375L462.59375 392.0375L462.59375 394.05313L460.82812 394.05313ZM460.82812 406.35L460.82812 395.975L462.59375 395.975L462.59375 406.35L460.82812 406.35ZM471.92188 403.00626L473.73438 403.24063Q473.3125 404.81876 472.14062 405.70938Q470.98438 406.58438 469.17188 406.58438Q466.90625 406.58438 465.5625 405.19376Q464.23438 403.7875 464.23438 401.25626Q464.23438 398.63126 465.57812 397.19376Q466.92188 395.74063 469.07812 395.74063Q471.15625 395.74063 472.46875 397.1625Q473.79688 398.56876 473.79688 401.14688Q473.79688 401.30313 473.78125 401.61563L466.04688 401.61563Q466.14062 403.31876 467.01562 404.225Q467.89062 405.13126 469.1875 405.13126Q470.15625 405.13126 470.82812 404.63126Q471.51562 404.11563 471.92188 403.00626ZM466.14062 400.1625L471.9375 400.1625Q471.82812 398.86563 471.28125 398.20938Q470.4375 397.19376 469.09375 397.19376Q467.89062 397.19376 467.0625 398.00626Q466.23438 398.80313 466.14062 400.1625ZM475.8125 406.35L475.8125 395.975L477.40625 395.975L477.40625 397.45938Q478.54688 395.74063 480.70312 395.74063Q481.64062 395.74063 482.42188 396.08438Q483.21875 396.4125 483.60938 396.95938Q484.0 397.50626 484.15625 398.25626Q484.25 398.75626 484.25 399.975L484.25 406.35L482.48438 406.35L482.48438 400.0375Q482.48438 398.95938 482.28125 398.42813Q482.07812 397.89688 481.54688 397.58438Q481.03125 397.27188 480.32812 397.27188Q479.20312 397.27188 478.39062 397.99063Q477.57812 398.69376 477.57812 400.67813L477.57812 406.35L475.8125 406.35ZM489.65625 404.77188L489.90625 406.33438Q489.17188 406.49063 488.57812 406.49063Q487.625 406.49063 487.09375 406.19376Q486.57812 405.88126 486.35938 405.39688Q486.14062 404.89688 486.14062 403.31876L486.14062 397.35L484.85938 397.35L484.85938 395.975L486.14062 395.975L486.14062 393.4125L487.89062 392.35L487.89062 395.975L489.65625 395.975L489.65625 397.35L487.89062 397.35L487.89062 403.4125Q487.89062 404.1625 487.98438 404.38126Q488.07812 404.58438 488.28125 404.725Q488.5 404.85 488.89062 404.85Q489.17188 404.85 489.65625 404.77188ZM498.92188 403.00626L500.73438 403.24063Q500.3125 404.81876 499.14062 405.70938Q497.98438 406.58438 496.17188 406.58438Q493.90625 406.58438 492.5625 405.19376Q491.23438 403.7875 491.23438 401.25626Q491.23438 398.63126 492.57812 397.19376Q493.92188 395.74063 496.07812 395.74063Q498.15625 395.74063 499.46875 397.1625Q500.79688 398.56876 500.79688 401.14688Q500.79688 401.30313 500.78125 401.61563L493.04688 401.61563Q493.14062 403.31876 494.01562 404.225Q494.89062 405.13126 496.1875 405.13126Q497.15625 405.13126 497.82812 404.63126Q498.51562 404.11563 498.92188 403.00626ZM493.14062 400.1625L498.9375 400.1625Q498.82812 398.86563 498.28125 398.20938Q497.4375 397.19376 496.09375 397.19376Q494.89062 397.19376 494.0625 398.00626Q493.23438 398.80313 493.14062 400.1625ZM502.10938 403.25626L503.85938 402.975Q504.0 404.02188 504.67188 404.58438Q505.34375 405.13126 506.54688 405.13126Q507.75 405.13126 508.32812 404.64688Q508.92188 404.14688 508.92188 403.49063Q508.92188 402.89688 508.40625 402.55313Q508.04688 402.31876 506.60938 401.95938Q504.67188 401.45938 503.92188 401.11563Q503.1875 400.75626 502.79688 400.13126Q502.40625 399.49063 502.40625 398.725Q502.40625 398.0375 502.71875 397.44376Q503.04688 396.85 503.59375 396.45938Q504.0 396.1625 504.70312 395.95938Q505.42188 395.74063 506.23438 395.74063Q507.45312 395.74063 508.375 396.1Q509.29688 396.44376 509.73438 397.05313Q510.17188 397.64688 510.34375 398.64688L508.625 398.88126Q508.5 398.08438 507.9375 397.64688Q507.375 397.19376 506.35938 397.19376Q505.14062 397.19376 504.625 397.6Q504.10938 397.99063 504.10938 398.52188Q504.10938 398.86563 504.32812 399.14688Q504.53125 399.42813 505.0 399.61563Q505.26562 399.70938 506.54688 400.05313Q508.42188 400.55313 509.15625 400.88126Q509.89062 401.19376 510.3125 401.80313Q510.73438 402.39688 510.73438 403.30313Q510.73438 404.17813 510.21875 404.95938Q509.70312 405.74063 508.73438 406.1625Q507.76562 406.58438 506.54688 406.58438Q504.53125 406.58438 503.46875 405.74063Q502.40625 404.89688 502.10938 403.25626Z" fill-rule="nonzero"/><path fill="#000000" d="M40.650005 264.52917L28.025005 264.52917L28.025005 269.24792L26.337505 269.24792L26.337505 257.90417L28.025005 257.90417L28.025005 262.63855L40.650005 262.63855L40.650005 264.52917ZM28.35313 256.38855L26.337505 256.38855L26.337505 254.62292L28.35313 254.62292L28.35313 256.38855ZM40.650005 256.38855L30.275005 256.38855L30.275005 254.62292L40.650005 254.62292L40.650005 256.38855ZM37.306255 245.2948L37.54063 243.4823Q39.118755 243.90417 40.00938 245.07605Q40.88438 246.2323 40.88438 248.0448Q40.88438 250.31042 39.493755 251.65417Q38.087505 252.9823 35.556255 252.9823Q32.931255 252.9823 31.493755 251.63855Q30.04063 250.2948 30.04063 248.13855Q30.04063 246.06042 31.462505 244.74792Q32.868755 243.4198 35.44688 243.4198Q35.60313 243.4198 35.91563 243.43542L35.91563 251.1698Q37.618755 251.07605 38.525005 250.20105Q39.431255 249.32605 39.431255 248.02917Q39.431255 247.06042 38.931255 246.38855Q38.41563 245.70105 37.306255 245.2948ZM34.462505 251.07605L34.462505 245.27917Q33.16563 245.38855 32.50938 245.93542Q31.493755 246.77917 31.493755 248.12292Q31.493755 249.32605 32.306255 250.15417Q33.10313 250.9823 34.462505 251.07605ZM40.650005 241.40417L30.275005 241.40417L30.275005 239.82605L31.72813 239.82605Q30.97813 239.34167 30.50938 238.52917Q30.04063 237.71667 30.04063 236.68542Q30.04063 235.52917 30.525005 234.7948Q30.993755 234.06042 31.85313 233.74792Q30.04063 232.51355 30.04063 230.5448Q30.04063 228.99792 30.900005 228.1698Q31.75938 227.34167 33.525005 227.34167L40.650005 227.34167L40.650005 229.09167L34.118755 229.09167Q33.056255 229.09167 32.60313 229.26355Q32.13438 229.43542 31.85313 229.88855Q31.57188 230.32605 31.57188 230.93542Q31.57188 232.02917 32.306255 232.76355Q33.025005 233.4823 34.618755 233.4823L40.650005 233.4823L40.650005 235.2323L33.91563 235.2323Q32.743755 235.2323 32.16563 235.6698Q31.57188 236.09167 31.57188 237.07605Q31.57188 237.81042 31.962505 238.45105Q32.35313 239.07605 33.10313 239.3573Q33.85313 239.63855 35.275005 239.63855L40.650005 239.63855L40.650005 241.40417ZM44.618755 225.40417L30.275005 225.40417L30.275005 223.7948L31.618755 223.7948Q30.837505 223.2323 30.44688 222.52917Q30.04063 221.81042 30.04063 220.7948Q30.04063 219.46667 30.72813 218.45105Q31.41563 217.43542 32.66563 216.9198Q33.900005 216.38855 35.38438 216.38855Q36.97813 216.38855 38.25938 216.96667Q39.525005 217.52917 40.212505 218.62292Q40.88438 219.71667 40.88438 220.9198Q40.88438 221.7948 40.50938 222.49792Q40.13438 223.18542 39.57188 223.63855L44.618755 223.63855L44.618755 225.40417ZM35.525005 223.81042Q37.525005 223.81042 38.47813 222.99792Q39.431255 222.18542 39.431255 221.02917Q39.431255 219.8573 38.44688 219.02917Q37.462505 218.18542 35.368755 218.18542Q33.400005 218.18542 32.41563 219.01355Q31.41563 219.82605 31.41563 220.95105Q31.41563 222.07605 32.47813 222.95105Q33.525005 223.81042 35.525005 223.81042ZM35.462505 215.0448Q32.587505 215.0448 31.19688 213.45105Q30.04063 212.1073 30.04063 210.18542Q30.04063 208.0448 31.44688 206.70105Q32.85313 205.34167 35.32188 205.34167Q37.32188 205.34167 38.47813 205.93542Q39.618755 206.52917 40.25938 207.68542Q40.88438 208.82605 40.88438 210.18542Q40.88438 212.37292 39.493755 213.71667Q38.087505 215.0448 35.462505 215.0448ZM35.462505 213.24792Q37.462505 213.24792 38.44688 212.38855Q39.431255 211.51355 39.431255 210.18542Q39.431255 208.87292 38.44688 208.01355Q37.44688 207.13855 35.400005 207.13855Q33.47813 207.13855 32.493755 208.01355Q31.493755 208.88855 31.493755 210.18542Q31.493755 211.51355 32.493755 212.38855Q33.47813 213.24792 35.462505 213.24792ZM44.85313 194.0448Q43.025005 195.49792 40.57188 196.49792Q38.10313 197.49792 35.462505 197.49792Q33.13438 197.49792 31.00938 196.74792Q28.54063 195.87292 26.087505 194.0448L26.087505 192.77917Q28.118755 193.96667 28.993755 194.34167Q30.337505 194.93542 31.806255 195.27917Q33.63438 195.70105 35.47813 195.70105Q40.16563 195.70105 44.85313 192.77917L44.85313 194.0448ZM40.650005 190.40417L30.275005 190.40417L30.275005 188.82605L31.72813 188.82605Q30.97813 188.34167 30.50938 187.52917Q30.04063 186.71667 30.04063 185.68542Q30.04063 184.52917 30.525005 183.7948Q30.993755 183.06042 31.85313 182.74792Q30.04063 181.51355 30.04063 179.5448Q30.04063 177.99792 30.900005 177.1698Q31.75938 176.34167 33.525005 176.34167L40.650005 176.34167L40.650005 178.09167L34.118755 178.09167Q33.056255 178.09167 32.60313 178.26355Q32.13438 178.43542 31.85313 178.88855Q31.57188 179.32605 31.57188 179.93542Q31.57188 181.02917 32.306255 181.76355Q33.025005 182.4823 34.618755 182.4823L40.650005 182.4823L40.650005 184.2323L33.91563 184.2323Q32.743755 184.2323 32.16563 184.6698Q31.57188 185.09167 31.57188 186.07605Q31.57188 186.81042 31.962505 187.45105Q32.35313 188.07605 33.10313 188.3573Q33.85313 188.63855 35.275005 188.63855L40.650005 188.63855L40.650005 190.40417ZM37.556255 175.1073L37.275005 173.3573Q38.32188 173.21667 38.88438 172.5448Q39.431255 171.87292 39.431255 170.6698Q39.431255 169.46667 38.94688 168.88855Q38.44688 168.2948 37.79063 168.2948Q37.19688 168.2948 36.85313 168.81042Q36.618755 169.1698 36.25938 170.6073Q35.75938 172.5448 35.41563 173.2948Q35.056255 174.02917 34.431255 174.4198Q33.79063 174.81042 33.025005 174.81042Q32.337505 174.81042 31.743755 174.49792Q31.150005 174.1698 30.75938 173.62292Q30.462505 173.21667 30.25938 172.51355Q30.04063 171.7948 30.04063 170.9823Q30.04063 169.76355 30.400005 168.84167Q30.743755 167.9198 31.35313 167.4823Q31.94688 167.0448 32.94688 166.87292L33.181255 168.59167Q32.38438 168.71667 31.94688 169.27917Q31.493755 169.84167 31.493755 170.8573Q31.493755 172.07605 31.900005 172.59167Q32.29063 173.1073 32.82188 173.1073Q33.16563 173.1073 33.44688 172.88855Q33.72813 172.68542 33.91563 172.21667Q34.00938 171.95105 34.35313 170.6698Q34.85313 168.7948 35.181255 168.06042Q35.493755 167.32605 36.10313 166.90417Q36.69688 166.4823 37.60313 166.4823Q38.47813 166.4823 39.25938 166.99792Q40.04063 167.51355 40.462505 168.4823Q40.88438 169.45105 40.88438 170.6698Q40.88438 172.68542 40.04063 173.74792Q39.19688 174.81042 37.556255 175.1073ZM44.85313 163.24792L44.85313 164.49792Q40.16563 161.59167 35.47813 161.59167Q33.63438 161.59167 31.837505 161.99792Q30.368755 162.34167 29.025005 162.93542Q28.13438 163.31042 26.087505 164.49792L26.087505 163.24792Q28.54063 161.40417 31.00938 160.52917Q33.13438 159.77917 35.462505 159.77917Q38.10313 159.77917 40.57188 160.7948Q43.025005 161.7948 44.85313 163.24792Z" fill-rule="nonzero"/><path fill="#000000" d="M149.10312 330.35L147.3375 330.35L147.3375 319.14688Q146.7125 319.75626 145.68124 320.36563Q144.65 320.95938 143.82187 321.27188L143.82187 319.56876Q145.30624 318.88126 146.4 317.89688Q147.50937 316.89688 147.9625 315.975L149.10312 315.975L149.10312 330.35Z" fill-rule="nonzero"/><path fill="#000000" d="M138.10312 292.21866L136.3375 292.21866L136.3375 281.01553Q135.7125 281.6249 134.68124 282.23428Q133.65 282.82803 132.82187 283.14053L132.82187 281.4374Q134.30624 280.7499 135.4 279.76553Q136.50937 278.76553 136.9625 277.84366L138.10312 277.84366L138.10312 292.21866ZM142.47812 285.15616Q142.47812 282.6249 142.99374 281.07803Q143.525 279.51553 144.55624 278.6874Q145.5875 277.84366 147.15 277.84366Q148.30624 277.84366 149.16562 278.3124Q150.04062 278.76553 150.60312 279.64053Q151.16562 280.51553 151.49374 281.78116Q151.82187 283.03116 151.82187 285.15616Q151.82187 287.67178 151.29062 289.21866Q150.775 290.76553 149.74374 291.6249Q148.72812 292.46866 147.15 292.46866Q145.07187 292.46866 143.9 290.98428Q142.47812 289.1874 142.47812 285.15616ZM144.29062 285.15616Q144.29062 288.6874 145.10312 289.85928Q145.93124 291.01553 147.15 291.01553Q148.35312 291.01553 149.18124 289.84366Q150.00937 288.67178 150.00937 285.15616Q150.00937 281.6249 149.18124 280.46866Q148.35312 279.29678 147.13437 279.29678Q145.91562 279.29678 145.19687 280.32803Q144.29062 281.6249 144.29062 285.15616Z" fill-rule="nonzero"/><path fill="#000000" d="M127.10313 254.08734L125.3375 254.08734L125.3375 242.88422Q124.7125 243.49359 123.68125 244.10297Q122.65 244.69672 121.82188 245.00922L121.82188 243.30609Q123.30625 242.61859 124.4 241.63422Q125.50938 240.63422 125.9625 239.71234L127.10313 239.71234L127.10313 254.08734ZM131.47812 247.02484Q131.47812 244.49359 131.99374 242.94672Q132.525 241.38422 133.55624 240.55609Q134.5875 239.71234 136.15 239.71234Q137.30624 239.71234 138.16562 240.18109Q139.04062 240.63422 139.60312 241.50922Q140.16562 242.38422 140.49374 243.64984Q140.82187 244.89984 140.82187 247.02484Q140.82187 249.54047 140.29062 251.08734Q139.775 252.63422 138.74374 253.49359Q137.72812 254.33734 136.15 254.33734Q134.07187 254.33734 132.9 252.85297Q131.47812 251.05609 131.47812 247.02484ZM133.29062 247.02484Q133.29062 250.55609 134.10312 251.72797Q134.93124 252.88422 136.15 252.88422Q137.35312 252.88422 138.18124 251.71234Q139.00937 250.54047 139.00937 247.02484Q139.00937 243.49359 138.18124 242.33734Q137.35312 241.16547 136.13437 241.16547Q134.91562 241.16547 134.19687 242.19672Q133.29062 243.49359 133.29062 247.02484ZM142.47812 247.02484Q142.47812 244.49359 142.99374 242.94672Q143.525 241.38422 144.55624 240.55609Q145.5875 239.71234 147.15 239.71234Q148.30624 239.71234 149.16562 240.18109Q150.04062 240.63422 150.60312 241.50922Q151.16562 242.38422 151.49374 243.64984Q151.82187 244.89984 151.82187 247.02484Q151.82187 249.54047 151.29062 251.08734Q150.775 252.63422 149.74374 253.49359Q148.72812 254.33734 147.15 254.33734Q145.07187 254.33734 143.9 252.85297Q142.47812 251.05609 142.47812 247.02484ZM144.29062 247.02484Q144.29062 250.55609 145.10312 251.72797Q145.93124 252.88422 147.15 252.88422Q148.35312 252.88422 149.18124 251.71234Q150.00937 250.54047 150.00937 247.02484Q150.00937 243.49359 149.18124 242.33734Q148.35312 241.16547 147.13437 241.16547Q145.91562 241.16547 145.19687 242.19672Q144.29062 243.49359 144.29062 247.02484Z" fill-rule="nonzero"/><path fill="#000000" d="M116.10313 215.95601L114.3375 215.95601L114.3375 204.75288Q113.7125 205.36226 112.68125 205.97163Q111.65 206.56538 110.82188 206.87788L110.82188 205.17476Q112.30625 204.48726 113.4 203.50288Q114.50938 202.50288 114.9625 201.58101L116.10313 201.58101L116.10313 215.95601ZM120.47813 208.89351Q120.47813 206.36226 120.99375 204.81538Q121.525 203.25288 122.55625 202.42476Q123.5875 201.58101 125.15 201.58101Q126.30625 201.58101 127.16563 202.04976Q128.04062 202.50288 128.60312 203.37788Q129.16562 204.25288 129.49374 205.51851Q129.82187 206.76851 129.82187 208.89351Q129.82187 211.40913 129.29062 212.95601Q128.775 214.50288 127.74375 215.36226Q126.72813 216.20601 125.15 216.20601Q123.07188 216.20601 121.9 214.72163Q120.47813 212.92476 120.47813 208.89351ZM122.29063 208.89351Q122.29063 212.42476 123.10313 213.59663Q123.93125 214.75288 125.15 214.75288Q126.35313 214.75288 127.18125 213.58101Q128.00937 212.40913 128.00937 208.89351Q128.00937 205.36226 127.18125 204.20601Q126.35313 203.03413 125.13438 203.03413Q123.91563 203.03413 123.19688 204.06538Q122.29063 205.36226 122.29063 208.89351ZM131.47812 208.89351Q131.47812 206.36226 131.99374 204.81538Q132.525 203.25288 133.55624 202.42476Q134.5875 201.58101 136.15 201.58101Q137.30624 201.58101 138.16562 202.04976Q139.04062 202.50288 139.60312 203.37788Q140.16562 204.25288 140.49374 205.51851Q140.82187 206.76851 140.82187 208.89351Q140.82187 211.40913 140.29062 212.95601Q139.775 214.50288 138.74374 215.36226Q137.72812 216.20601 136.15 216.20601Q134.07187 216.20601 132.9 214.72163Q131.47812 212.92476 131.47812 208.89351ZM133.29062 208.89351Q133.29062 212.42476 134.10312 213.59663Q134.93124 214.75288 136.15 214.75288Q137.35312 214.75288 138.18124 213.58101Q139.00937 212.40913 139.00937 208.89351Q139.00937 205.36226 138.18124 204.20601Q137.35312 203.03413 136.13437 203.03413Q134.91562 203.03413 134.19687 204.06538Q133.29062 205.36226 133.29062 208.89351ZM142.47812 208.89351Q142.47812 206.36226 142.99374 204.81538Q143.525 203.25288 144.55624 202.42476Q145.5875 201.58101 147.15 201.58101Q148.30624 201.58101 149.16562 202.04976Q150.04062 202.50288 150.60312 203.37788Q151.16562 204.25288 151.49374 205.51851Q151.82187 206.76851 151.82187 208.89351Q151.82187 211.40913 151.29062 212.95601Q150.775 214.50288 149.74374 215.36226Q148.72812 216.20601 147.15 216.20601Q145.07187 216.20601 143.9 214.72163Q142.47812 212.92476 142.47812 208.89351ZM144.29062 208.89351Q144.29062 212.42476 145.10312 213.59663Q145.93124 214.75288 147.15 214.75288Q148.35312 214.75288 149.18124 213.58101Q150.00937 212.40913 150.00937 208.89351Q150.00937 205.36226 149.18124 204.20601Q148.35312 203.03413 147.13437 203.03413Q145.91562 203.03413 145.19687 204.06538Q144.29062 205.36226 144.29062 208.89351Z" fill-rule="nonzero"/><path fill="#000000" d="M105.10313 177.82468L103.3375 177.82468L103.3375 166.62155Q102.7125 167.23093 101.68125 167.8403Q100.65 168.43405 99.82188 168.74655L99.82188 167.04343Q101.30625 166.35593 102.4 165.37155Q103.50938 164.37155 103.9625 163.44968L105.10313 163.44968L105.10313 177.82468ZM109.47813 170.76218Q109.47813 168.23093 109.99375 166.68405Q110.525 165.12155 111.55625 164.29343Q112.5875 163.44968 114.15 163.44968Q115.30625 163.44968 116.16563 163.91843Q117.04063 164.37155 117.60313 165.24655Q118.16563 166.12155 118.49375 167.38718Q118.82188 168.63718 118.82188 170.76218Q118.82188 173.2778 118.29063 174.82468Q117.775 176.37155 116.74375 177.23093Q115.72813 178.07468 114.15 178.07468Q112.07188 178.07468 110.9 176.5903Q109.47813 174.79343 109.47813 170.76218ZM111.29063 170.76218Q111.29063 174.29343 112.10313 175.4653Q112.93125 176.62155 114.15 176.62155Q115.35313 176.62155 116.18125 175.44968Q117.00938 174.2778 117.00938 170.76218Q117.00938 167.23093 116.18125 166.07468Q115.35313 164.9028 114.13438 164.9028Q112.91563 164.9028 112.19688 165.93405Q111.29063 167.23093 111.29063 170.76218ZM120.47813 170.76218Q120.47813 168.23093 120.99375 166.68405Q121.525 165.12155 122.55625 164.29343Q123.5875 163.44968 125.15 163.44968Q126.30625 163.44968 127.16563 163.91843Q128.04062 164.37155 128.60312 165.24655Q129.16562 166.12155 129.49374 167.38718Q129.82187 168.63718 129.82187 170.76218Q129.82187 173.2778 129.29062 174.82468Q128.775 176.37155 127.74375 177.23093Q126.72813 178.07468 125.15 178.07468Q123.07188 178.07468 121.9 176.5903Q120.47813 174.79343 120.47813 170.76218ZM122.29063 170.76218Q122.29063 174.29343 123.10313 175.4653Q123.93125 176.62155 125.15 176.62155Q126.35313 176.62155 127.18125 175.44968Q128.00937 174.2778 128.00937 170.76218Q128.00937 167.23093 127.18125 166.07468Q126.35313 164.9028 125.13438 164.9028Q123.91563 164.9028 123.19688 165.93405Q122.29063 167.23093 122.29063 170.76218ZM131.47812 170.76218Q131.47812 168.23093 131.99374 166.68405Q132.525 165.12155 133.55624 164.29343Q134.5875 163.44968 136.15 163.44968Q137.30624 163.44968 138.16562 163.91843Q139.04062 164.37155 139.60312 165.24655Q140.16562 166.12155 140.49374 167.38718Q140.82187 168.63718 140.82187 170.76218Q140.82187 173.2778 140.29062 174.82468Q139.775 176.37155 138.74374 177.23093Q137.72812 178.07468 136.15 178.07468Q134.07187 178.07468 132.9 176.5903Q131.47812 174.79343 131.47812 170.76218ZM133.29062 170.76218Q133.29062 174.29343 134.10312 175.4653Q134.93124 176.62155 136.15 176.62155Q137.35312 176.62155 138.18124 175.44968Q139.00937 174.2778 139.00937 170.76218Q139.00937 167.23093 138.18124 166.07468Q137.35312 164.9028 136.13437 164.9028Q134.91562 164.9028 134.19687 165.93405Q133.29062 167.23093 133.29062 170.76218ZM142.47812 170.76218Q142.47812 168.23093 142.99374 166.68405Q143.525 165.12155 144.55624 164.29343Q145.5875 163.44968 147.15 163.44968Q148.30624 163.44968 149.16562 163.91843Q150.04062 164.37155 150.60312 165.24655Q151.16562 166.12155 151.49374 167.38718Q151.82187 168.63718 151.82187 170.76218Q151.82187 173.2778 151.29062 174.82468Q150.775 176.37155 149.74374 177.23093Q148.72812 178.07468 147.15 178.07468Q145.07187 178.07468 143.9 176.5903Q142.47812 174.79343 142.47812 170.76218ZM144.29062 170.76218Q144.29062 174.29343 145.10312 175.4653Q145.93124 176.62155 147.15 176.62155Q148.35312 176.62155 149.18124 175.44968Q150.00937 174.2778 150.00937 170.76218Q150.00937 167.23093 149.18124 166.07468Q148.35312 164.9028 147.13437 164.9028Q145.91562 164.9028 145.19687 165.93405Q144.29062 167.23093 144.29062 170.76218Z" fill-rule="nonzero"/><path fill="#000000" d="M94.10313 139.69334L92.3375 139.69334L92.3375 128.49022Q91.7125 129.0996 90.68125 129.70897Q89.65 130.30272 88.82188 130.61522L88.82188 128.9121Q90.30625 128.2246 91.4 127.24022Q92.50938 126.24022 92.9625 125.318344L94.10313 125.318344L94.10313 139.69334ZM98.47813 132.63084Q98.47813 130.0996 98.99375 128.55272Q99.525 126.99022 100.55625 126.162094Q101.5875 125.318344 103.15 125.318344Q104.30625 125.318344 105.16563 125.787094Q106.04063 126.24022 106.60313 127.11522Q107.16563 127.99022 107.49375 129.25584Q107.82188 130.50584 107.82188 132.63084Q107.82188 135.14647 107.29063 136.69334Q106.775 138.24022 105.74375 139.0996Q104.72813 139.94334 103.15 139.94334Q101.07188 139.94334 99.9 138.45897Q98.47813 136.6621 98.47813 132.63084ZM100.29063 132.63084Q100.29063 136.1621 101.10313 137.33397Q101.93125 138.49022 103.15 138.49022Q104.35313 138.49022 105.18125 137.31834Q106.00938 136.14647 106.00938 132.63084Q106.00938 129.0996 105.18125 127.943344Q104.35313 126.77147 103.13438 126.77147Q101.91563 126.77147 101.19688 127.80272Q100.29063 129.0996 100.29063 132.63084ZM109.47813 132.63084Q109.47813 130.0996 109.99375 128.55272Q110.525 126.99022 111.55625 126.162094Q112.5875 125.318344 114.15 125.318344Q115.30625 125.318344 116.16563 125.787094Q117.04063 126.24022 117.60313 127.11522Q118.16563 127.99022 118.49375 129.25584Q118.82188 130.50584 118.82188 132.63084Q118.82188 135.14647 118.29063 136.69334Q117.775 138.24022 116.74375 139.0996Q115.72813 139.94334 114.15 139.94334Q112.07188 139.94334 110.9 138.45897Q109.47813 136.6621 109.47813 132.63084ZM111.29063 132.63084Q111.29063 136.1621 112.10313 137.33397Q112.93125 138.49022 114.15 138.49022Q115.35313 138.49022 116.18125 137.31834Q117.00938 136.14647 117.00938 132.63084Q117.00938 129.0996 116.18125 127.943344Q115.35313 126.77147 114.13438 126.77147Q112.91563 126.77147 112.19688 127.80272Q111.29063 129.0996 111.29063 132.63084ZM120.47813 132.63084Q120.47813 130.0996 120.99375 128.55272Q121.525 126.99022 122.55625 126.162094Q123.5875 125.318344 125.15 125.318344Q126.30625 125.318344 127.16563 125.787094Q128.04062 126.24022 128.60312 127.11522Q129.16562 127.99022 129.49374 129.25584Q129.82187 130.50584 129.82187 132.63084Q129.82187 135.14647 129.29062 136.69334Q128.775 138.24022 127.74375 139.0996Q126.72813 139.94334 125.15 139.94334Q123.07188 139.94334 121.9 138.45897Q120.47813 136.6621 120.47813 132.63084ZM122.29063 132.63084Q122.29063 136.1621 123.10313 137.33397Q123.93125 138.49022 125.15 138.49022Q126.35313 138.49022 127.18125 137.31834Q128.00937 136.14647 128.00937 132.63084Q128.00937 129.0996 127.18125 127.943344Q126.35313 126.77147 125.13438 126.77147Q123.91563 126.77147 123.19688 127.80272Q122.29063 129.0996 122.29063 132.63084ZM131.47812 132.63084Q131.47812 130.0996 131.99374 128.55272Q132.525 126.99022 133.55624 126.162094Q134.5875 125.318344 136.15 125.318344Q137.30624 125.318344 138.16562 125.787094Q139.04062 126.24022 139.60312 127.11522Q140.16562 127.99022 140.49374 129.25584Q140.82187 130.50584 140.82187 132.63084Q140.82187 135.14647 140.29062 136.69334Q139.775 138.24022 138.74374 139.0996Q137.72812 139.94334 136.15 139.94334Q134.07187 139.94334 132.9 138.45897Q131.47812 136.6621 131.47812 132.63084ZM133.29062 132.63084Q133.29062 136.1621 134.10312 137.33397Q134.93124 138.49022 136.15 138.49022Q137.35312 138.49022 138.18124 137.31834Q139.00937 136.14647 139.00937 132.63084Q139.00937 129.0996 138.18124 127.943344Q137.35312 126.77147 136.13437 126.77147Q134.91562 126.77147 134.19687 127.80272Q133.29062 129.0996 133.29062 132.63084ZM142.47812 132.63084Q142.47812 130.0996 142.99374 128.55272Q143.525 126.99022 144.55624 126.162094Q145.5875 125.318344 147.15 125.318344Q148.30624 125.318344 149.16562 125.787094Q150.04062 126.24022 150.60312 127.11522Q151.16562 127.99022 151.49374 129.25584Q151.82187 130.50584 151.82187 132.63084Q151.82187 135.14647 151.29062 136.69334Q150.775 138.24022 149.74374 139.0996Q148.72812 139.94334 147.15 139.94334Q145.07187 139.94334 143.9 138.45897Q142.47812 136.6621 142.47812 132.63084ZM144.29062 132.63084Q144.29062 136.1621 145.10312 137.33397Q145.93124 138.49022 147.15 138.49022Q148.35312 138.49022 149.18124 137.31834Q150.00937 136.14647 150.00937 132.63084Q150.00937 129.0996 149.18124 127.943344Q148.35312 126.77147 147.13437 126.77147Q145.91562 126.77147 145.19687 127.80272Q144.29062 129.0996 144.29062 132.63084Z" fill-rule="nonzero"/><path fill="#000000" d="M83.10313 101.56201L81.3375 101.56201L81.3375 90.35889Q80.7125 90.96826 79.68125 91.57764Q78.65 92.17139 77.82188 92.48389L77.82188 90.78076Q79.30625 90.09326 80.4 89.10889Q81.50938 88.10889 81.9625 87.18701L83.10313 87.18701L83.10313 101.56201ZM87.47813 94.49951Q87.47813 91.96826 87.99375 90.42139Q88.525 88.85889 89.55625 88.03076Q90.5875 87.18701 92.15 87.18701Q93.30625 87.18701 94.16563 87.65576Q95.04063 88.10889 95.60313 88.98389Q96.16563 89.85889 96.49375 91.12451Q96.82188 92.37451 96.82188 94.49951Q96.82188 97.01514 96.29063 98.56201Q95.775 100.10889 94.74375 100.96826Q93.72813 101.81201 92.15 101.81201Q90.07188 101.81201 88.9 100.32764Q87.47813 98.53076 87.47813 94.49951ZM89.29063 94.49951Q89.29063 98.03076 90.10313 99.20264Q90.93125 100.35889 92.15 100.35889Q93.35313 100.35889 94.18125 99.18701Q95.00938 98.01514 95.00938 94.49951Q95.00938 90.96826 94.18125 89.81201Q93.35313 88.64014 92.13438 88.64014Q90.91563 88.64014 90.19688 89.67139Q89.29063 90.96826 89.29063 94.49951ZM98.47813 94.49951Q98.47813 91.96826 98.99375 90.42139Q99.525 88.85889 100.55625 88.03076Q101.5875 87.18701 103.15 87.18701Q104.30625 87.18701 105.16563 87.65576Q106.04063 88.10889 106.60313 88.98389Q107.16563 89.85889 107.49375 91.12451Q107.82188 92.37451 107.82188 94.49951Q107.82188 97.01514 107.29063 98.56201Q106.775 100.10889 105.74375 100.96826Q104.72813 101.81201 103.15 101.81201Q101.07188 101.81201 99.9 100.32764Q98.47813 98.53076 98.47813 94.49951ZM100.29063 94.49951Q100.29063 98.03076 101.10313 99.20264Q101.93125 100.35889 103.15 100.35889Q104.35313 100.35889 105.18125 99.18701Q106.00938 98.01514 106.00938 94.49951Q106.00938 90.96826 105.18125 89.81201Q104.35313 88.64014 103.13438 88.64014Q101.91563 88.64014 101.19688 89.67139Q100.29063 90.96826 100.29063 94.49951ZM109.47813 94.49951Q109.47813 91.96826 109.99375 90.42139Q110.525 88.85889 111.55625 88.03076Q112.5875 87.18701 114.15 87.18701Q115.30625 87.18701 116.16563 87.65576Q117.04063 88.10889 117.60313 88.98389Q118.16563 89.85889 118.49375 91.12451Q118.82188 92.37451 118.82188 94.49951Q118.82188 97.01514 118.29063 98.56201Q117.775 100.10889 116.74375 100.96826Q115.72813 101.81201 114.15 101.81201Q112.07188 101.81201 110.9 100.32764Q109.47813 98.53076 109.47813 94.49951ZM111.29063 94.49951Q111.29063 98.03076 112.10313 99.20264Q112.93125 100.35889 114.15 100.35889Q115.35313 100.35889 116.18125 99.18701Q117.00938 98.01514 117.00938 94.49951Q117.00938 90.96826 116.18125 89.81201Q115.35313 88.64014 114.13438 88.64014Q112.91563 88.64014 112.19688 89.67139Q111.29063 90.96826 111.29063 94.49951ZM120.47813 94.49951Q120.47813 91.96826 120.99375 90.42139Q121.525 88.85889 122.55625 88.03076Q123.5875 87.18701 125.15 87.18701Q126.30625 87.18701 127.16563 87.65576Q128.04062 88.10889 128.60312 88.98389Q129.16562 89.85889 129.49374 91.12451Q129.82187 92.37451 129.82187 94.49951Q129.82187 97.01514 129.29062 98.56201Q128.775 100.10889 127.74375 100.96826Q126.72813 101.81201 125.15 101.81201Q123.07188 101.81201 121.9 100.32764Q120.47813 98.53076 120.47813 94.49951ZM122.29063 94.49951Q122.29063 98.03076 123.10313 99.20264Q123.93125 100.35889 125.15 100.35889Q126.35313 100.35889 127.18125 99.18701Q128.00937 98.01514 128.00937 94.49951Q128.00937 90.96826 127.18125 89.81201Q126.35313 88.64014 125.13438 88.64014Q123.91563 88.64014 123.19688 89.67139Q122.29063 90.96826 122.29063 94.49951ZM131.47812 94.49951Q131.47812 91.96826 131.99374 90.42139Q132.525 88.85889 133.55624 88.03076Q134.5875 87.18701 136.15 87.18701Q137.30624 87.18701 138.16562 87.65576Q139.04062 88.10889 139.60312 88.98389Q140.16562 89.85889 140.49374 91.12451Q140.82187 92.37451 140.82187 94.49951Q140.82187 97.01514 140.29062 98.56201Q139.775 100.10889 138.74374 100.96826Q137.72812 101.81201 136.15 101.81201Q134.07187 101.81201 132.9 100.32764Q131.47812 98.53076 131.47812 94.49951ZM133.29062 94.49951Q133.29062 98.03076 134.10312 99.20264Q134.93124 100.35889 136.15 100.35889Q137.35312 100.35889 138.18124 99.18701Q139.00937 98.01514 139.00937 94.49951Q139.00937 90.96826 138.18124 89.81201Q137.35312 88.64014 136.13437 88.64014Q134.91562 88.64014 134.19687 89.67139Q133.29062 90.96826 133.29062 94.49951ZM142.47812 94.49951Q142.47812 91.96826 142.99374 90.42139Q143.525 88.85889 144.55624 88.03076Q145.5875 87.18701 147.15 87.18701Q148.30624 87.18701 149.16562 87.65576Q150.04062 88.10889 150.60312 88.98389Q151.16562 89.85889 151.49374 91.12451Q151.82187 92.37451 151.82187 94.49951Q151.82187 97.01514 151.29062 98.56201Q150.775 100.10889 149.74374 100.96826Q148.72812 101.81201 147.15 101.81201Q145.07187 101.81201 143.9 100.32764Q142.47812 98.53076 142.47812 94.49951ZM144.29062 94.49951Q144.29062 98.03076 145.10312 99.20264Q145.93124 100.35889 147.15 100.35889Q148.35312 100.35889 149.18124 99.18701Q150.00937 98.01514 150.00937 94.49951Q150.00937 90.96826 149.18124 89.81201Q148.35312 88.64014 147.13437 88.64014Q145.91562 88.64014 145.19687 89.67139Q144.29062 90.96826 144.29062 94.49951Z" fill-rule="nonzero"/><path fill="#000000" d="M157.97812 345.2875Q157.97812 342.75626 158.49374 341.20938Q159.025 339.64688 160.05624 338.81876Q161.0875 337.975 162.65 337.975Q163.80624 337.975 164.66562 338.44376Q165.54062 338.89688 166.10312 339.77188Q166.66562 340.64688 166.99374 341.9125Q167.32187 343.1625 167.32187 345.2875Q167.32187 347.80313 166.79062 349.35Q166.275 350.89688 165.24374 351.75626Q164.22812 352.6 162.65 352.6Q160.57187 352.6 159.4 351.11563Q157.97812 349.31876 157.97812 345.2875ZM159.79062 345.2875Q159.79062 348.81876 160.60312 349.99063Q161.43124 351.14688 162.65 351.14688Q163.85312 351.14688 164.68124 349.975Q165.50937 348.80313 165.50937 345.2875Q165.50937 341.75626 164.68124 340.6Q163.85312 339.42813 162.63437 339.42813Q161.41562 339.42813 160.69687 340.45938Q159.79062 341.75626 159.79062 345.2875Z" fill-rule="nonzero"/><path fill="#000000" d="M286.90314 348.6L288.7469 348.44376Q288.95 349.7875 289.7 350.475Q290.45 351.14688 291.5125 351.14688Q292.77814 351.14688 293.65314 350.19376Q294.52814 349.24063 294.52814 347.64688Q294.52814 346.14688 293.6844 345.2875Q292.84064 344.4125 291.48126 344.4125Q290.6219 344.4125 289.9344 344.80313Q289.2625 345.17813 288.8719 345.80313L287.21564 345.58438L288.60626 338.225L295.73126 338.225L295.73126 339.9125L290.0125 339.9125L289.2469 343.75626Q290.52814 342.85 291.95 342.85Q293.825 342.85 295.10626 344.1625Q296.40314 345.45938 296.40314 347.49063Q296.40314 349.44376 295.2625 350.85Q293.8875 352.6 291.5125 352.6Q289.5594 352.6 288.3094 351.50626Q287.075 350.4125 286.90314 348.6Z" fill-rule="nonzero"/><path fill="#000000" d="M416.95312 352.35L415.1875 352.35L415.1875 341.14688Q414.5625 341.75626 413.53125 342.36563Q412.5 342.95938 411.67188 343.27188L411.67188 341.56876Q413.15625 340.88126 414.25 339.89688Q415.35938 338.89688 415.8125 337.975L416.95312 337.975L416.95312 352.35ZM421.32812 345.2875Q421.32812 342.75626 421.84375 341.20938Q422.375 339.64688 423.40625 338.81876Q424.4375 337.975 426.0 337.975Q427.15625 337.975 428.01562 338.44376Q428.89062 338.89688 429.45312 339.77188Q430.01562 340.64688 430.34375 341.9125Q430.67188 343.1625 430.67188 345.2875Q430.67188 347.80313 430.14062 349.35Q429.625 350.89688 428.59375 351.75626Q427.57812 352.6 426.0 352.6Q423.92188 352.6 422.75 351.11563Q421.32812 349.31876 421.32812 345.2875ZM423.14062 345.2875Q423.14062 348.81876 423.95312 349.99063Q424.78125 351.14688 426.0 351.14688Q427.20312 351.14688 428.03125 349.975Q428.85938 348.80313 428.85938 345.2875Q428.85938 341.75626 428.03125 340.6Q427.20312 339.42813 425.98438 339.42813Q424.76562 339.42813 424.04688 340.45938Q423.14062 341.75626 423.14062 345.2875Z" fill-rule="nonzero"/><path fill="#000000" d="M545.8781 352.35L544.1125 352.35L544.1125 341.14688Q543.4875 341.75626 542.45624 342.36563Q541.425 342.95938 540.59686 343.27188L540.59686 341.56876Q542.08124 340.88126 543.175 339.89688Q544.28436 338.89688 544.7375 337.975L545.8781 337.975L545.8781 352.35ZM550.2531 348.6L552.09686 348.44376Q552.3 349.7875 553.05 350.475Q553.8 351.14688 554.8625 351.14688Q556.1281 351.14688 557.0031 350.19376Q557.8781 349.24063 557.8781 347.64688Q557.8781 346.14688 557.03436 345.2875Q556.1906 344.4125 554.83124 344.4125Q553.97186 344.4125 553.28436 344.80313Q552.6125 345.17813 552.22186 345.80313L550.5656 345.58438L551.95624 338.225L559.08124 338.225L559.08124 339.9125L553.3625 339.9125L552.59686 343.75626Q553.8781 342.85 555.3 342.85Q557.175 342.85 558.45624 344.1625Q559.7531 345.45938 559.7531 347.49063Q559.7531 349.44376 558.6125 350.85Q557.2375 352.6 554.8625 352.6Q552.90936 352.6 551.65936 351.50626Q550.425 350.4125 550.2531 348.6Z" fill-rule="nonzero"/><path fill="#000000" d="M677.4125 350.6625L677.4125 352.35L667.95935 352.35Q667.9437 351.70938 668.1625 351.13126Q668.52185 350.1625 669.3187 349.225Q670.1156 348.2875 671.6156 347.05313Q673.95935 345.14688 674.77185 344.0375Q675.6 342.9125 675.6 341.9125Q675.6 340.86563 674.85 340.14688Q674.1 339.42813 672.89685 339.42813Q671.6312 339.42813 670.8656 340.19376Q670.1 340.95938 670.1 342.30313L668.2875 342.11563Q668.475 340.1 669.6781 339.0375Q670.89685 337.975 672.9437 337.975Q674.9906 337.975 676.1937 339.11563Q677.39685 340.25626 677.39685 341.94376Q677.39685 342.80313 677.0375 343.64688Q676.6937 344.475 675.8812 345.39688Q675.0687 346.30313 673.1781 347.9125Q671.58435 349.24063 671.1312 349.70938Q670.6937 350.17813 670.39685 350.6625L677.4125 350.6625ZM679.1781 345.2875Q679.1781 342.75626 679.6937 341.20938Q680.225 339.64688 681.2562 338.81876Q682.2875 337.975 683.85 337.975Q685.0062 337.975 685.8656 338.44376Q686.7406 338.89688 687.3031 339.77188Q687.8656 340.64688 688.1937 341.9125Q688.52185 343.1625 688.52185 345.2875Q688.52185 347.80313 687.9906 349.35Q687.475 350.89688 686.4437 351.75626Q685.4281 352.6 683.85 352.6Q681.77185 352.6 680.6 351.11563Q679.1781 349.31876 679.1781 345.2875ZM680.9906 345.2875Q680.9906 348.81876 681.8031 349.99063Q682.6312 351.14688 683.85 351.14688Q685.0531 351.14688 685.8812 349.975Q686.70935 348.80313 686.70935 345.2875Q686.70935 341.75626 685.8812 340.6Q685.0531 339.42813 683.83435 339.42813Q682.6156 339.42813 681.89685 340.45938Q680.9906 341.75626 680.9906 345.2875Z" fill-rule="nonzero"/><path fill="#757575" d="M121.3125 49.65L121.3125 28.181252L129.42188 28.181252Q131.54688 28.181252 132.6875 28.384377Q134.26562 28.650002 135.32812 29.384377Q136.40625 30.118752 137.04688 31.462502Q137.70312 32.790627 137.70312 34.384377Q137.70312 37.11875 135.95312 39.025Q134.21875 40.915627 129.67188 40.915627L124.15625 40.915627L124.15625 49.65L121.3125 49.65ZM124.15625 38.384377L129.70312 38.384377Q132.46875 38.384377 133.625 37.36875Q134.78125 36.3375 134.78125 34.478127Q134.78125 33.11875 134.09375 32.165627Q133.42188 31.212502 132.29688 30.900002Q131.57812 30.712502 129.65625 30.712502L124.15625 30.712502L124.15625 38.384377ZM151.625 44.634377L154.35938 44.978127Q153.70312 47.36875 151.95312 48.696877Q150.21875 50.009377 147.51562 50.009377Q144.09375 50.009377 142.09375 47.9Q140.09375 45.790627 140.09375 42.009377Q140.09375 38.071877 142.10938 35.915627Q144.14062 33.74375 147.35938 33.74375Q150.48438 33.74375 152.45312 35.86875Q154.4375 37.99375 154.4375 41.8375Q154.4375 42.071877 154.42188 42.540627L142.82812 42.540627Q142.96875 45.103127 144.26562 46.478127Q145.57812 47.8375 147.53125 47.8375Q148.96875 47.8375 150.0 47.071877Q151.03125 46.30625 151.625 44.634377ZM142.96875 40.384377L151.65625 40.384377Q151.48438 38.415627 150.65625 37.43125Q149.40625 35.915627 147.39062 35.915627Q145.57812 35.915627 144.34375 37.134377Q143.10938 38.3375 142.96875 40.384377ZM156.95312 49.65L156.95312 34.0875L159.32812 34.0875L159.32812 36.446877Q160.23438 34.790627 161.0 34.275Q161.76562 33.74375 162.6875 33.74375Q164.03125 33.74375 165.40625 34.5875L164.5 37.040627Q163.53125 36.4625 162.5625 36.4625Q161.6875 36.4625 161.0 36.99375Q160.3125 37.509377 160.03125 38.43125Q159.57812 39.8375 159.57812 41.509377L159.57812 49.65L156.95312 49.65ZM167.60938 49.65L167.60938 36.15L165.28125 36.15L165.28125 34.0875L167.60938 34.0875L167.60938 32.43125Q167.60938 30.868752 167.89062 30.103127Q168.26562 29.087502 169.21875 28.446877Q170.1875 27.806252 171.92188 27.806252Q173.03125 27.806252 174.375 28.071877L173.98438 30.368752Q173.15625 30.228127 172.42188 30.228127Q171.21875 30.228127 170.71875 30.743752Q170.23438 31.243752 170.23438 32.65L170.23438 34.0875L173.26562 34.0875L173.26562 36.15L170.23438 36.15L170.23438 49.65L167.60938 49.65ZM174.0 41.86875Q174.0 37.55625 176.40625 35.4625Q178.40625 33.74375 181.29688 33.74375Q184.5 33.74375 186.53125 35.853127Q188.57812 37.946877 188.57812 41.65Q188.57812 44.65 187.67188 46.384377Q186.76562 48.103127 185.04688 49.05625Q183.32812 50.009377 181.29688 50.009377Q178.03125 50.009377 176.01562 47.915627Q174.0 45.80625 174.0 41.86875ZM176.70312 41.86875Q176.70312 44.853127 178.0 46.353127Q179.3125 47.8375 181.29688 47.8375Q183.25 47.8375 184.54688 46.3375Q185.85938 44.8375 185.85938 41.790627Q185.85938 38.9 184.54688 37.415627Q183.23438 35.93125 181.29688 35.93125Q179.3125 35.93125 178.0 37.415627Q176.70312 38.884377 176.70312 41.86875ZM190.95312 49.65L190.95312 34.0875L193.32812 34.0875L193.32812 36.446877Q194.23438 34.790627 195.0 34.275Q195.76562 33.74375 196.6875 33.74375Q198.03125 33.74375 199.40625 34.5875L198.5 37.040627Q197.53125 36.4625 196.5625 36.4625Q195.6875 36.4625 195.0 36.99375Q194.3125 37.509377 194.03125 38.43125Q193.57812 39.8375 193.57812 41.509377L193.57812 49.65L190.95312 49.65ZM200.98438 49.65L200.98438 34.0875L203.34375 34.0875L203.34375 36.275Q204.0625 35.134377 205.28125 34.446877Q206.5 33.74375 208.04688 33.74375Q209.78125 33.74375 210.89062 34.4625Q212.0 35.18125 212.45312 36.4625Q214.29688 33.74375 217.25 33.74375Q219.5625 33.74375 220.8125 35.025Q222.0625 36.30625 222.0625 38.978127L222.0625 49.65L219.4375 49.65L219.4375 39.853127Q219.4375 38.275 219.17188 37.571877Q218.92188 36.86875 218.25 36.446877Q217.57812 36.025 216.67188 36.025Q215.03125 36.025 213.9375 37.11875Q212.85938 38.2125 212.85938 40.61875L212.85938 49.65L210.21875 49.65L210.21875 39.540627Q210.21875 37.790627 209.57812 36.915627Q208.9375 36.025 207.46875 36.025Q206.35938 36.025 205.40625 36.61875Q204.46875 37.196877 204.03125 38.321877Q203.60938 39.446877 203.60938 41.571877L203.60938 49.65L200.98438 49.65ZM236.125 47.728127Q234.67188 48.978127 233.3125 49.49375Q231.95312 50.009377 230.40625 50.009377Q227.84375 50.009377 226.45312 48.759377Q225.07812 47.49375 225.07812 45.540627Q225.07812 44.4 225.59375 43.4625Q226.125 42.509377 226.96875 41.946877Q227.8125 41.36875 228.85938 41.0875Q229.64062 40.86875 231.20312 40.68125Q234.40625 40.30625 235.90625 39.775Q235.92188 39.228127 235.92188 39.0875Q235.92188 37.478127 235.17188 36.821877Q234.17188 35.93125 232.17188 35.93125Q230.3125 35.93125 229.42188 36.5875Q228.54688 37.228127 228.10938 38.884377L225.53125 38.525Q225.89062 36.86875 226.6875 35.853127Q227.5 34.8375 229.01562 34.290627Q230.54688 33.74375 232.5625 33.74375Q234.54688 33.74375 235.78125 34.2125Q237.03125 34.68125 237.60938 35.4Q238.20312 36.103127 238.4375 37.18125Q238.57812 37.853127 238.57812 39.61875L238.57812 43.134377Q238.57812 46.80625 238.73438 47.790627Q238.90625 48.759377 239.40625 49.65L236.65625 49.65Q236.25 48.821877 236.125 47.728127ZM235.90625 41.8375Q234.46875 42.43125 231.60938 42.8375Q229.98438 43.071877 229.29688 43.36875Q228.625 43.665627 228.25 44.228127Q227.89062 44.790627 227.89062 45.478127Q227.89062 46.525 228.6875 47.228127Q229.5 47.93125 231.03125 47.93125Q232.5625 47.93125 233.73438 47.275Q234.92188 46.603127 235.48438 45.446877Q235.90625 44.55625 235.90625 42.80625L235.90625 41.8375ZM241.98438 49.65L241.98438 34.0875L244.34375 34.0875L244.34375 36.30625Q246.0625 33.74375 249.29688 33.74375Q250.70312 33.74375 251.875 34.259377Q253.0625 34.759377 253.64062 35.5875Q254.23438 36.4 254.46875 37.525Q254.625 38.259377 254.625 40.0875L254.625 49.65L251.98438 49.65L251.98438 40.18125Q251.98438 38.571877 251.67188 37.775Q251.375 36.978127 250.57812 36.509377Q249.79688 36.025 248.75 36.025Q247.0625 36.025 245.82812 37.103127Q244.60938 38.165627 244.60938 41.15L244.60938 49.65L241.98438 49.65ZM269.125 43.946877L271.71875 44.290627Q271.29688 46.9625 269.54688 48.49375Q267.79688 50.009377 265.25 50.009377Q262.04688 50.009377 260.10938 47.915627Q258.17188 45.821877 258.17188 41.93125Q258.17188 39.415627 259.0 37.525Q259.84375 35.634377 261.54688 34.696877Q263.25 33.74375 265.26562 33.74375Q267.79688 33.74375 269.40625 35.025Q271.01562 36.30625 271.46875 38.665627L268.90625 39.05625Q268.54688 37.49375 267.60938 36.7125Q266.6875 35.915627 265.35938 35.915627Q263.375 35.915627 262.125 37.3375Q260.875 38.759377 260.875 41.853127Q260.875 44.99375 262.07812 46.415627Q263.28125 47.8375 265.21875 47.8375Q266.76562 47.8375 267.79688 46.884377Q268.84375 45.93125 269.125 43.946877ZM284.625 44.634377L287.35938 44.978127Q286.70312 47.36875 284.95312 48.696877Q283.21875 50.009377 280.51562 50.009377Q277.09375 50.009377 275.09375 47.9Q273.09375 45.790627 273.09375 42.009377Q273.09375 38.071877 275.10938 35.915627Q277.14062 33.74375 280.35938 33.74375Q283.48438 33.74375 285.45312 35.86875Q287.4375 37.99375 287.4375 41.8375Q287.4375 42.071877 287.42188 42.540627L275.82812 42.540627Q275.96875 45.103127 277.26562 46.478127Q278.57812 47.8375 280.53125 47.8375Q281.96875 47.8375 283.0 47.071877Q284.03125 46.30625 284.625 44.634377ZM275.96875 40.384377L284.65625 40.384377Q284.48438 38.415627 283.65625 37.43125Q282.40625 35.915627 280.39062 35.915627Q278.57812 35.915627 277.34375 37.134377Q276.10938 38.3375 275.96875 40.384377ZM308.125 47.728127Q306.67188 48.978127 305.3125 49.49375Q303.95312 50.009377 302.40625 50.009377Q299.84375 50.009377 298.45312 48.759377Q297.07812 47.49375 297.07812 45.540627Q297.07812 44.4 297.59375 43.4625Q298.125 42.509377 298.96875 41.946877Q299.8125 41.36875 300.85938 41.0875Q301.64062 40.86875 303.20312 40.68125Q306.40625 40.30625 307.90625 39.775Q307.92188 39.228127 307.92188 39.0875Q307.92188 37.478127 307.17188 36.821877Q306.17188 35.93125 304.17188 35.93125Q302.3125 35.93125 301.42188 36.5875Q300.54688 37.228127 300.10938 38.884377L297.53125 38.525Q297.89062 36.86875 298.6875 35.853127Q299.5 34.8375 301.01562 34.290627Q302.54688 33.74375 304.5625 33.74375Q306.54688 33.74375 307.78125 34.2125Q309.03125 34.68125 309.60938 35.4Q310.20312 36.103127 310.4375 37.18125Q310.57812 37.853127 310.57812 39.61875L310.57812 43.134377Q310.57812 46.80625 310.73438 47.790627Q310.90625 48.759377 311.40625 49.65L308.65625 49.65Q308.25 48.821877 308.125 47.728127ZM307.90625 41.8375Q306.46875 42.43125 303.60938 42.8375Q301.98438 43.071877 301.29688 43.36875Q300.625 43.665627 300.25 44.228127Q299.89062 44.790627 299.89062 45.478127Q299.89062 46.525 300.6875 47.228127Q301.5 47.93125 303.03125 47.93125Q304.5625 47.93125 305.73438 47.275Q306.92188 46.603127 307.48438 45.446877Q307.90625 44.55625 307.90625 42.80625L307.90625 41.8375ZM313.92188 49.65L313.92188 28.181252L316.5625 28.181252L316.5625 49.65L313.92188 49.65ZM320.5 50.946877L323.0625 51.321877Q323.21875 52.509377 323.95312 53.05625Q324.9375 53.775 326.625 53.775Q328.46875 53.775 329.45312 53.040627Q330.45312 52.321877 330.8125 50.99375Q331.01562 50.196877 331.0 47.61875Q329.26562 49.65 326.6875 49.65Q323.48438 49.65 321.71875 47.3375Q319.96875 45.025 319.96875 41.790627Q319.96875 39.55625 320.76562 37.68125Q321.57812 35.790627 323.10938 34.775Q324.64062 33.74375 326.70312 33.74375Q329.45312 33.74375 331.25 35.9625L331.25 34.0875L333.67188 34.0875L333.67188 47.540627Q333.67188 51.18125 332.9375 52.696877Q332.20312 54.2125 330.59375 55.0875Q328.98438 55.9625 326.64062 55.9625Q323.85938 55.9625 322.14062 54.7125Q320.4375 53.4625 320.5 50.946877ZM322.67188 41.5875Q322.67188 44.65 323.89062 46.05625Q325.10938 47.4625 326.9375 47.4625Q328.75 47.4625 329.98438 46.071877Q331.21875 44.665627 331.21875 41.68125Q331.21875 38.821877 329.95312 37.384377Q328.6875 35.93125 326.89062 35.93125Q325.14062 35.93125 323.90625 37.353127Q322.67188 38.775 322.67188 41.5875ZM337.0 41.86875Q337.0 37.55625 339.40625 35.4625Q341.40625 33.74375 344.29688 33.74375Q347.5 33.74375 349.53125 35.853127Q351.57812 37.946877 351.57812 41.65Q351.57812 44.65 350.67188 46.384377Q349.76562 48.103127 348.04688 49.05625Q346.32812 50.009377 344.29688 50.009377Q341.03125 50.009377 339.01562 47.915627Q337.0 45.80625 337.0 41.86875ZM339.70312 41.86875Q339.70312 44.853127 341.0 46.353127Q342.3125 47.8375 344.29688 47.8375Q346.25 47.8375 347.54688 46.3375Q348.85938 44.8375 348.85938 41.790627Q348.85938 38.9 347.54688 37.415627Q346.23438 35.93125 344.29688 35.93125Q342.3125 35.93125 341.0 37.415627Q339.70312 38.884377 339.70312 41.86875ZM353.95312 49.65L353.95312 34.0875L356.32812 34.0875L356.32812 36.446877Q357.23438 34.790627 358.0 34.275Q358.76562 33.74375 359.6875 33.74375Q361.03125 33.74375 362.40625 34.5875L361.5 37.040627Q360.53125 36.4625 359.5625 36.4625Q358.6875 36.4625 358.0 36.99375Q357.3125 37.509377 357.03125 38.43125Q356.57812 39.8375 356.57812 41.509377L356.57812 49.65L353.95312 49.65ZM364.0 31.212502L364.0 28.181252L366.625 28.181252L366.625 31.212502L364.0 31.212502ZM364.0 49.65L364.0 34.0875L366.625 34.0875L366.625 49.65L364.0 49.65ZM376.73438 47.290627L377.10938 49.61875Q376.0 49.853127 375.125 49.853127Q373.6875 49.853127 372.89062 49.4Q372.10938 48.946877 371.78125 48.2125Q371.46875 47.4625 371.46875 45.0875L371.46875 36.15L369.53125 36.15L369.53125 34.0875L371.46875 34.0875L371.46875 30.243752L374.07812 28.665627L374.07812 34.0875L376.73438 34.0875L376.73438 36.15L374.07812 36.15L374.07812 45.24375Q374.07812 46.36875 374.21875 46.696877Q374.35938 47.009377 374.67188 47.2125Q374.98438 47.4 375.57812 47.4Q376.01562 47.4 376.73438 47.290627ZM378.98438 49.65L378.98438 34.0875L381.34375 34.0875L381.34375 36.275Q382.0625 35.134377 383.28125 34.446877Q384.5 33.74375 386.04688 33.74375Q387.78125 33.74375 388.89062 34.4625Q390.0 35.18125 390.45312 36.4625Q392.29688 33.74375 395.25 33.74375Q397.5625 33.74375 398.8125 35.025Q400.0625 36.30625 400.0625 38.978127L400.0625 49.65L397.4375 49.65L397.4375 39.853127Q397.4375 38.275 397.17188 37.571877Q396.92188 36.86875 396.25 36.446877Q395.57812 36.025 394.67188 36.025Q393.03125 36.025 391.9375 37.11875Q390.85938 38.2125 390.85938 40.61875L390.85938 49.65L388.21875 49.65L388.21875 39.540627Q388.21875 37.790627 387.57812 36.915627Q386.9375 36.025 385.46875 36.025Q384.35938 36.025 383.40625 36.61875Q382.46875 37.196877 382.03125 38.321877Q381.60938 39.446877 381.60938 41.571877L381.60938 49.65L378.98438 49.65ZM403.0 41.86875Q403.0 37.55625 405.40625 35.4625Q407.40625 33.74375 410.29688 33.74375Q413.5 33.74375 415.53125 35.853127Q417.57812 37.946877 417.57812 41.65Q417.57812 44.65 416.67188 46.384377Q415.76562 48.103127 414.04688 49.05625Q412.32812 50.009377 410.29688 50.009377Q407.03125 50.009377 405.01562 47.915627Q403.0 45.80625 403.0 41.86875ZM405.70312 41.86875Q405.70312 44.853127 407.0 46.353127Q408.3125 47.8375 410.29688 47.8375Q412.25 47.8375 413.54688 46.3375Q414.85938 44.8375 414.85938 41.790627Q414.85938 38.9 413.54688 37.415627Q412.23438 35.93125 410.29688 35.93125Q408.3125 35.93125 407.0 37.415627Q405.70312 38.884377 405.70312 41.86875ZM438.07812 49.65L438.07812 47.68125Q436.59375 50.009377 433.71875 50.009377Q431.85938 50.009377 430.29688 48.978127Q428.73438 47.946877 427.875 46.11875Q427.03125 44.275 427.03125 41.884377Q427.03125 39.55625 427.79688 37.665627Q428.57812 35.759377 430.125 34.759377Q431.6875 33.74375 433.60938 33.74375Q435.01562 33.74375 436.10938 34.3375Q437.20312 34.93125 437.89062 35.884377L437.89062 28.181252L440.51562 28.181252L440.51562 49.65L438.07812 49.65ZM429.73438 41.884377Q429.73438 44.86875 430.98438 46.353127Q432.25 47.8375 433.96875 47.8375Q435.70312 47.8375 436.90625 46.43125Q438.10938 45.009377 438.10938 42.103127Q438.10938 38.915627 436.875 37.43125Q435.65625 35.93125 433.85938 35.93125Q432.09375 35.93125 430.90625 37.36875Q429.73438 38.790627 429.73438 41.884377ZM455.625 44.634377L458.35938 44.978127Q457.70312 47.36875 455.95312 48.696877Q454.21875 50.009377 451.51562 50.009377Q448.09375 50.009377 446.09375 47.9Q444.09375 45.790627 444.09375 42.009377Q444.09375 38.071877 446.10938 35.915627Q448.14062 33.74375 451.35938 33.74375Q454.48438 33.74375 456.45312 35.86875Q458.4375 37.99375 458.4375 41.8375Q458.4375 42.071877 458.42188 42.540627L446.82812 42.540627Q446.96875 45.103127 448.26562 46.478127Q449.57812 47.8375 451.53125 47.8375Q452.96875 47.8375 454.0 47.071877Q455.03125 46.30625 455.625 44.634377ZM446.96875 40.384377L455.65625 40.384377Q455.48438 38.415627 454.65625 37.43125Q453.40625 35.915627 451.39062 35.915627Q449.57812 35.915627 448.34375 37.134377Q447.10938 38.3375 446.96875 40.384377ZM469.20312 49.65L469.20312 28.181252L472.04688 28.181252L472.04688 47.11875L482.60938 47.11875L482.60938 49.65L469.20312 49.65ZM496.125 47.728127Q494.67188 48.978127 493.3125 49.49375Q491.95312 50.009377 490.40625 50.009377Q487.84375 50.009377 486.45312 48.759377Q485.07812 47.49375 485.07812 45.540627Q485.07812 44.4 485.59375 43.4625Q486.125 42.509377 486.96875 41.946877Q487.8125 41.36875 488.85938 41.0875Q489.64062 40.86875 491.20312 40.68125Q494.40625 40.30625 495.90625 39.775Q495.92188 39.228127 495.92188 39.0875Q495.92188 37.478127 495.17188 36.821877Q494.17188 35.93125 492.17188 35.93125Q490.3125 35.93125 489.42188 36.5875Q488.54688 37.228127 488.10938 38.884377L485.53125 38.525Q485.89062 36.86875 486.6875 35.853127Q487.5 34.8375 489.01562 34.290627Q490.54688 33.74375 492.5625 33.74375Q494.54688 33.74375 495.78125 34.2125Q497.03125 34.68125 497.60938 35.4Q498.20312 36.103127 498.4375 37.18125Q498.57812 37.853127 498.57812 39.61875L498.57812 43.134377Q498.57812 46.80625 498.73438 47.790627Q498.90625 48.759377 499.40625 49.65L496.65625 49.65Q496.25 48.821877 496.125 47.728127ZM495.90625 41.8375Q494.46875 42.43125 491.60938 42.8375Q489.98438 43.071877 489.29688 43.36875Q488.625 43.665627 488.25 44.228127Q487.89062 44.790627 487.89062 45.478127Q487.89062 46.525 488.6875 47.228127Q489.5 47.93125 491.03125 47.93125Q492.5625 47.93125 493.73438 47.275Q494.92188 46.603127 495.48438 45.446877Q495.90625 44.55625 495.90625 42.80625L495.90625 41.8375ZM504.40625 49.65L501.96875 49.65L501.96875 28.181252L504.59375 28.181252L504.59375 35.8375Q506.26562 33.74375 508.85938 33.74375Q510.29688 33.74375 511.57812 34.321877Q512.8594 34.9 513.6875 35.946877Q514.5156 36.99375 514.9844 38.478127Q515.4531 39.946877 515.4531 41.634377Q515.4531 45.634377 513.46875 47.821877Q511.5 50.009377 508.73438 50.009377Q505.98438 50.009377 504.40625 47.696877L504.40625 49.65ZM504.375 41.759377Q504.375 44.55625 505.14062 45.790627Q506.39062 47.8375 508.51562 47.8375Q510.23438 47.8375 511.5 46.3375Q512.7656 44.8375 512.7656 41.853127Q512.7656 38.80625 511.54688 37.36875Q510.34375 35.915627 508.625 35.915627Q506.90625 35.915627 505.64062 37.415627Q504.375 38.915627 504.375 41.759377ZM529.625 44.634377L532.3594 44.978127Q531.7031 47.36875 529.9531 48.696877Q528.21875 50.009377 525.5156 50.009377Q522.09375 50.009377 520.09375 47.9Q518.09375 45.790627 518.09375 42.009377Q518.09375 38.071877 520.1094 35.915627Q522.1406 33.74375 525.3594 33.74375Q528.4844 33.74375 530.4531 35.86875Q532.4375 37.99375 532.4375 41.8375Q532.4375 42.071877 532.4219 42.540627L520.8281 42.540627Q520.96875 45.103127 522.2656 46.478127Q523.5781 47.8375 525.53125 47.8375Q526.96875 47.8375 528.0 47.071877Q529.03125 46.30625 529.625 44.634377ZM520.96875 40.384377L529.65625 40.384377Q529.4844 38.415627 528.65625 37.43125Q527.40625 35.915627 525.3906 35.915627Q523.5781 35.915627 522.34375 37.134377Q521.1094 38.3375 520.96875 40.384377ZM534.9219 49.65L534.9219 28.181252L537.5625 28.181252L537.5625 49.65L534.9219 49.65ZM542.0 31.212502L542.0 28.181252L544.625 28.181252L544.625 31.212502L542.0 31.212502ZM542.0 49.65L542.0 34.0875L544.625 34.0875L544.625 49.65L542.0 49.65ZM548.9844 49.65L548.9844 34.0875L551.34375 34.0875L551.34375 36.30625Q553.0625 33.74375 556.2969 33.74375Q557.7031 33.74375 558.875 34.259377Q560.0625 34.759377 560.6406 35.5875Q561.2344 36.4 561.46875 37.525Q561.625 38.259377 561.625 40.0875L561.625 49.65L558.9844 49.65L558.9844 40.18125Q558.9844 38.571877 558.6719 37.775Q558.375 36.978127 557.5781 36.509377Q556.7969 36.025 555.75 36.025Q554.0625 36.025 552.8281 37.103127Q551.6094 38.165627 551.6094 41.15L551.6094 49.65L548.9844 49.65ZM565.5 50.946877L568.0625 51.321877Q568.21875 52.509377 568.9531 53.05625Q569.9375 53.775 571.625 53.775Q573.46875 53.775 574.4531 53.040627Q575.4531 52.321877 575.8125 50.99375Q576.0156 50.196877 576.0 47.61875Q574.2656 49.65 571.6875 49.65Q568.4844 49.65 566.71875 47.3375Q564.96875 45.025 564.96875 41.790627Q564.96875 39.55625 565.7656 37.68125Q566.5781 35.790627 568.1094 34.775Q569.6406 33.74375 571.7031 33.74375Q574.4531 33.74375 576.25 35.9625L576.25 34.0875L578.6719 34.0875L578.6719 47.540627Q578.6719 51.18125 577.9375 52.696877Q577.2031 54.2125 575.59375 55.0875Q573.9844 55.9625 571.6406 55.9625Q568.8594 55.9625 567.1406 54.7125Q565.4375 53.4625 565.5 50.946877ZM567.6719 41.5875Q567.6719 44.65 568.8906 46.05625Q570.1094 47.4625 571.9375 47.4625Q573.75 47.4625 574.9844 46.071877Q576.21875 44.665627 576.21875 41.68125Q576.21875 38.821877 574.9531 37.384377Q573.6875 35.93125 571.8906 35.93125Q570.1406 35.93125 568.90625 37.353127Q567.6719 38.775 567.6719 41.5875Z" fill-rule="nonzero"/></svg>