<svg version="1.1" viewBox="0.0 0.0 700.0 433.0" fill="none" stroke="none" stroke-linecap="square" stroke-miterlimit="10" width="700" height="433" xmlns:xlink="http://www.w3.org/1999/xlink" xmlns="http://www.w3.org/2000/svg"><path fill="#ffffff" d="M0 0L700.0 0L700.0 433.0L0 433.0L0 0Z" fill-rule="nonzero"/><path stroke="#333333" stroke-width="1.0" stroke-linecap="butt" d="M162.5 83.5L162.5 323.5" fill-rule="nonzero"/><path stroke="#cccccc" stroke-width="1.0" stroke-linecap="butt" d="M334.5 83.5L334.5 323.5" fill-rule="nonzero"/><path stroke="#cccccc" stroke-width="1.0" stroke-linecap="butt" d="M506.5 83.5L506.5 323.5" fill-rule="nonzero"/><path stroke="#cccccc" stroke-width="1.0" stroke-linecap="butt" d="M678.5 83.5L678.5 323.5" fill-rule="nonzero"/><path stroke="#cccccc" stroke-width="1.0" stroke-linecap="butt" d="M162.5 323.5L678.5 323.5" fill-rule="nonzero"/><path stroke="#cccccc" stroke-width="1.0" stroke-linecap="butt" d="M162.5 285.5L678.5 285.5" fill-rule="nonzero"/><path stroke="#cccccc" stroke-width="1.0" stroke-linecap="butt" d="M162.5 247.5L678.5 247.5" fill-rule="nonzero"/><path stroke="#cccccc" stroke-width="1.0" stroke-linecap="butt" d="M162.5 208.5L678.5 208.5" fill-rule="nonzero"/><path stroke="#cccccc" stroke-width="1.0" stroke-linecap="butt" d="M162.5 170.5L678.5 170.5" fill-rule="nonzero"/><path stroke="#cccccc" stroke-width="1.0" stroke-linecap="butt" d="M162.5 132.5L678.5 132.5" fill-rule="nonzero"/><path stroke="#cccccc" stroke-width="1.0" stroke-linecap="butt" d="M162.5 94.5L678.5 94.5" fill-rule="nonzero"/><clipPath id="id_0"><path d="M162.65 83.083336L678.35 83.083336L678.35 323.35L162.65 323.35L162.65 83.083336Z" clip-rule="nonzero"/></clipPath><path fill="#4285f4" clip-path="url(#id_0)" d="M218.72 293.67807C218.72 296.16333 216.70528 298.17807 214.22 298.17807C211.73473 298.17807 209.72 296.16333 209.72 293.67807C209.72 291.19278 211.73473 289.17807 214.22 289.17807C216.70528 289.17807 218.72 291.19278 218.72 293.67807Z" fill-rule="nonzero"/><path fill="#4285f4" clip-path="url(#id_0)" d="M235.91 286.96347C235.91 289.44873 233.89528 291.46347 231.41 291.46347C228.92471 291.46347 226.91 289.44873 226.91 286.96347C226.91 284.47818 228.92471 282.46347 231.41 282.46347C233.89528 282.46347 235.91 284.47818 235.91 286.96347Z" fill-rule="nonzero"/><path fill="#4285f4" clip-path="url(#id_0)" d="M253.1 293.67807C253.1 296.16333 251.08528 298.17807 248.6 298.17807C246.11472 298.17807 244.1 296.16333 244.1 293.67807C244.1 291.19278 246.11472 289.17807 248.6 289.17807C251.08528 289.17807 253.1 291.19278 253.1 293.67807Z" fill-rule="nonzero"/><path fill="#4285f4" clip-path="url(#id_0)" d="M270.29 278.50406C270.29 280.98935 268.27527 283.00406 265.79 283.00406C263.30472 283.00406 261.29 280.98935 261.29 278.50406C261.29 276.0188 263.30472 274.00406 265.79 274.00406C268.27527 274.00406 270.29 276.0188 270.29 278.50406Z" fill-rule="nonzero"/><path fill="#4285f4" clip-path="url(#id_0)" d="M287.48 291.12527C287.48 293.61057 285.46527 295.62527 282.98 295.62527C280.49472 295.62527 278.48 293.61057 278.48 291.12527C278.48 288.64 280.49472 286.62527 282.98 286.62527C285.46527 286.62527 287.48 288.64 287.48 291.12527Z" fill-rule="nonzero"/><path fill="#4285f4" clip-path="url(#id_0)" d="M304.67 293.67807C304.67 296.16333 302.65527 298.17807 300.17 298.17807C297.68472 298.17807 295.67 296.16333 295.67 293.67807C295.67 291.19278 297.68472 289.17807 300.17 289.17807C302.65527 289.17807 304.67 291.19278 304.67 293.67807Z" fill-rule="nonzero"/><path fill="#4285f4" clip-path="url(#id_0)" d="M321.86 278.50406C321.86 280.98935 319.84528 283.00406 317.36 283.00406C314.87473 283.00406 312.86 280.98935 312.86 278.50406C312.86 276.0188 314.87473 274.00406 317.36 274.00406C319.84528 274.00406 321.86 276.0188 321.86 278.50406Z" fill-rule="nonzero"/><path fill="#4285f4" clip-path="url(#id_0)" d="M339.05 253.96837C339.05 256.45364 337.03528 258.46835 334.55 258.46835C332.06473 258.46835 330.05 256.45364 330.05 253.96837C330.05 251.48308 332.06473 249.46837 334.55 249.46837C337.03528 249.46837 339.05 251.48308 339.05 253.96837Z" fill-rule="nonzero"/><path fill="#4285f4" clip-path="url(#id_0)" d="M339.05 305.15674C339.05 307.642 337.03528 309.65674 334.55 309.65674C332.06473 309.65674 330.05 307.642 330.05 305.15674C330.05 302.67145 332.06473 300.65674 334.55 300.65674C337.03528 300.65674 339.05 302.67145 339.05 305.15674Z" fill-rule="nonzero"/><path fill="#4285f4" clip-path="url(#id_0)" d="M356.24 213.09183C356.24 215.5771 354.22528 217.59183 351.74 217.59183C349.25473 217.59183 347.24 215.5771 347.24 213.09183C347.24 210.60654 349.25473 208.59183 351.74 208.59183C354.22528 208.59183 356.24 210.60654 356.24 213.09183Z" fill-rule="nonzero"/><path fill="#4285f4" clip-path="url(#id_0)" d="M356.24 305.15674C356.24 307.642 354.22528 309.65674 351.74 309.65674C349.25473 309.65674 347.24 307.642 347.24 305.15674C347.24 302.67145 349.25473 300.65674 351.74 300.65674C354.22528 300.65674 356.24 302.67145 356.24 305.15674Z" fill-rule="nonzero"/><path fill="#4285f4" clip-path="url(#id_0)" d="M373.43 239.51228C373.43 241.99756 371.41528 244.01228 368.93 244.01228C366.44473 244.01228 364.43 241.99756 364.43 239.51228C364.43 237.027 366.44473 235.01228 368.93 235.01228C371.41528 235.01228 373.43 237.027 373.43 239.51228Z" fill-rule="nonzero"/><path fill="#4285f4" clip-path="url(#id_0)" d="M373.43 272.932C373.43 275.4173 371.41528 277.432 368.93 277.432C366.44473 277.432 364.43 275.4173 364.43 272.932C364.43 270.44675 366.44473 268.432 368.93 268.432C371.41528 268.432 373.43 270.44675 373.43 272.932Z" fill-rule="nonzero"/><path fill="#4285f4" clip-path="url(#id_0)" d="M390.62 291.12527C390.62 293.61057 388.6053 295.62527 386.12 295.62527C383.6347 295.62527 381.62 293.61057 381.62 291.12527C381.62 288.64 383.6347 286.62527 386.12 286.62527C388.6053 286.62527 390.62 288.64 390.62 291.12527Z" fill-rule="nonzero"/><path fill="#4285f4" clip-path="url(#id_0)" d="M390.62 125.12027C390.62 127.60555 388.6053 129.62027 386.12 129.62027C383.6347 129.62027 381.62 127.60555 381.62 125.12027C381.62 122.634995 383.6347 120.62027 386.12 120.62027C388.6053 120.62027 390.62 122.634995 390.62 125.12027Z" fill-rule="nonzero"/><path fill="#4285f4" clip-path="url(#id_0)" d="M407.81 130.8499C407.81 133.33517 405.7953 135.3499 403.31 135.3499C400.8247 135.3499 398.81 133.33517 398.81 130.8499C398.81 128.36461 400.8247 126.34989 403.31 126.34989C405.7953 126.34989 407.81 128.36461 407.81 130.8499Z" fill-rule="nonzero"/><path fill="#4285f4" clip-path="url(#id_0)" d="M407.81 257.60107C407.81 260.08633 405.7953 262.10107 403.31 262.10107C400.8247 262.10107 398.81 260.08633 398.81 257.60107C398.81 255.11578 400.8247 253.10106 403.31 253.10106C405.7953 253.10106 407.81 255.11578 407.81 257.60107Z" fill-rule="nonzero"/><path fill="#4285f4" clip-path="url(#id_0)" d="M425.0 300.39264C425.0 302.87793 422.9853 304.89264 420.5 304.89264C418.0147 304.89264 416.0 302.87793 416.0 300.39264C416.0 297.90738 418.0147 295.89264 420.5 295.89264C422.9853 295.89264 425.0 297.90738 425.0 300.39264Z" fill-rule="nonzero"/><path fill="#4285f4" clip-path="url(#id_0)" d="M425.0 232.79768C425.0 235.28296 422.9853 237.29768 420.5 237.29768C418.0147 237.29768 416.0 235.28296 416.0 232.79768C416.0 230.31241 418.0147 228.29768 420.5 228.29768C422.9853 228.29768 425.0 230.31241 425.0 232.79768Z" fill-rule="nonzero"/><path fill="#4285f4" clip-path="url(#id_0)" d="M442.19 112.55888C442.19 115.04417 440.1753 117.05888 437.69 117.05888C435.2047 117.05888 433.19 115.04417 433.19 112.55888C433.19 110.0736 435.2047 108.05888 437.69 108.05888C440.1753 108.05888 442.19 110.0736 442.19 112.55888Z" fill-rule="nonzero"/><path fill="#4285f4" clip-path="url(#id_0)" d="M442.19 176.2924C442.19 178.77768 440.1753 180.7924 437.69 180.7924C435.2047 180.7924 433.19 178.77768 433.19 176.2924C433.19 173.80711 435.2047 171.7924 437.69 171.7924C440.1753 171.7924 442.19 173.80711 442.19 176.2924Z" fill-rule="nonzero"/><path fill="#4285f4" clip-path="url(#id_0)" d="M442.19 278.50406C442.19 280.98935 440.1753 283.00406 437.69 283.00406C435.2047 283.00406 433.19 280.98935 433.19 278.50406C433.19 276.0188 435.2047 274.00406 437.69 274.00406C440.1753 274.00406 442.19 276.0188 442.19 278.50406Z" fill-rule="nonzero"/><path fill="#4285f4" clip-path="url(#id_0)" d="M459.38 177.7988C459.38 180.28409 457.3653 182.2988 454.88 182.2988C452.3947 182.2988 450.38 180.28409 450.38 177.7988C450.38 175.31352 452.3947 173.2988 454.88 173.2988C457.3653 173.2988 459.38 175.31352 459.38 177.7988Z" fill-rule="nonzero"/><path fill="#4285f4" clip-path="url(#id_0)" d="M459.38 219.84898C459.38 222.33427 457.3653 224.34898 454.88 224.34898C452.3947 224.34898 450.38 222.33427 450.38 219.84898C450.38 217.36371 452.3947 215.34898 454.88 215.34898C457.3653 215.34898 459.38 217.36371 459.38 219.84898Z" fill-rule="nonzero"/><path fill="#4285f4" clip-path="url(#id_0)" d="M459.38 117.97923C459.38 120.464516 457.3653 122.47923 454.88 122.47923C452.3947 122.47923 450.38 120.464516 450.38 117.97923C450.38 115.49396 452.3947 113.47923 454.88 113.47923C457.3653 113.47923 459.38 115.49396 459.38 117.97923Z" fill-rule="nonzero"/><path fill="#4285f4" clip-path="url(#id_0)" d="M476.57 209.7185C476.57 212.20378 474.55527 214.2185 472.07 214.2185C469.58472 214.2185 467.57 212.20378 467.57 209.7185C467.57 207.23322 469.58472 205.2185 472.07 205.2185C474.55527 205.2185 476.57 207.23322 476.57 209.7185Z" fill-rule="nonzero"/><path fill="#4285f4" clip-path="url(#id_0)" d="M493.76 218.26482C493.76 220.7501 491.74527 222.76482 489.26 222.76482C486.77472 222.76482 484.76 220.7501 484.76 218.26482C484.76 215.77954 486.77472 213.76482 489.26 213.76482C491.74527 213.76482 493.76 215.77954 493.76 218.26482Z" fill-rule="nonzero"/><path fill="#4285f4" clip-path="url(#id_0)" d="M493.76 168.57222C493.76 171.0575 491.74527 173.07222 489.26 173.07222C486.77472 173.07222 484.76 171.0575 484.76 168.57222C484.76 166.08694 486.77472 164.07222 489.26 164.07222C491.74527 164.07222 493.76 166.08694 493.76 168.57222Z" fill-rule="nonzero"/><path fill="#4285f4" clip-path="url(#id_0)" d="M510.95 179.60455C510.95 182.08983 508.93527 184.10455 506.45 184.10455C503.96472 184.10455 501.95 182.08983 501.95 179.60455C501.95 177.11926 503.96472 175.10455 506.45 175.10455C508.93527 175.10455 510.95 177.11926 510.95 179.60455Z" fill-rule="nonzero"/><path fill="#4285f4" clip-path="url(#id_0)" d="M510.95 233.88043C510.95 236.36572 508.93527 238.38043 506.45 238.38043C503.96472 238.38043 501.95 236.36572 501.95 233.88043C501.95 231.39516 503.96472 229.38043 506.45 229.38043C508.93527 229.38043 510.95 231.39516 510.95 233.88043Z" fill-rule="nonzero"/><path fill="#4285f4" clip-path="url(#id_0)" d="M596.9 142.14133C596.9 144.6266 594.88525 146.64133 592.4 146.64133C589.91473 146.64133 587.9 144.6266 587.9 142.14133C587.9 139.65604 589.91473 137.64133 592.4 137.64133C594.88525 137.64133 596.9 139.65604 596.9 142.14133Z" fill-rule="nonzero"/><path fill="#000000" d="M348.26562 401.33438L350.15625 401.80313Q349.5625 404.14688 348.01562 405.38126Q346.46875 406.6 344.21875 406.6Q341.90625 406.6 340.45312 405.6625Q339.01562 404.70938 338.25 402.92813Q337.5 401.13126 337.5 399.08438Q337.5 396.85 338.34375 395.19376Q339.20312 393.52188 340.78125 392.6625Q342.35938 391.7875 344.25 391.7875Q346.40625 391.7875 347.85938 392.88126Q349.32812 393.975 349.90625 395.95938L348.04688 396.39688Q347.54688 394.83438 346.59375 394.13126Q345.65625 393.4125 344.21875 393.4125Q342.5625 393.4125 341.45312 394.20938Q340.34375 394.99063 339.89062 396.33438Q339.45312 397.6625 339.45312 399.06876Q339.45312 400.89688 339.98438 402.27188Q340.51562 403.63126 341.64062 404.30313Q342.76562 404.975 344.0625 404.975Q345.65625 404.975 346.76562 404.05313Q347.875 403.13126 348.26562 401.33438ZM358.59375 405.06876Q357.60938 405.89688 356.70312 406.24063Q355.79688 406.58438 354.76562 406.58438Q353.0625 406.58438 352.14062 405.75626Q351.21875 404.9125 351.21875 403.61563Q351.21875 402.85 351.5625 402.225Q351.92188 401.6 352.48438 401.225Q353.04688 400.83438 353.75 400.63126Q354.26562 400.50626 355.3125 400.36563Q357.4375 400.11563 358.4375 399.77188Q358.45312 399.4125 358.45312 399.30313Q358.45312 398.24063 357.95312 397.7875Q357.28125 397.19376 355.95312 397.19376Q354.70312 397.19376 354.10938 397.63126Q353.53125 398.06876 353.25 399.17813L351.53125 398.94376Q351.76562 397.83438 352.29688 397.1625Q352.82812 396.475 353.84375 396.11563Q354.85938 395.74063 356.20312 395.74063Q357.53125 395.74063 358.35938 396.05313Q359.1875 396.36563 359.57812 396.85Q359.96875 397.31876 360.125 398.0375Q360.21875 398.49063 360.21875 399.6625L360.21875 402.00626Q360.21875 404.45938 360.32812 405.11563Q360.4375 405.75626 360.78125 406.35L358.9375 406.35Q358.67188 405.80313 358.59375 405.06876ZM358.4375 401.14688Q357.48438 401.5375 355.5625 401.80313Q354.48438 401.95938 354.03125 402.1625Q353.59375 402.35 353.34375 402.725Q353.09375 403.1 353.09375 403.56876Q353.09375 404.27188 353.625 404.74063Q354.15625 405.20938 355.1875 405.20938Q356.20312 405.20938 356.98438 404.77188Q357.78125 404.31876 358.15625 403.55313Q358.4375 402.94376 358.4375 401.7875L358.4375 401.14688ZM362.8125 406.35L362.8125 395.975L364.40625 395.975L364.40625 397.45938Q365.54688 395.74063 367.70312 395.74063Q368.64062 395.74063 369.42188 396.08438Q370.21875 396.4125 370.60938 396.95938Q371.0 397.50626 371.15625 398.25626Q371.25 398.75626 371.25 399.975L371.25 406.35L369.48438 406.35L369.48438 400.0375Q369.48438 398.95938 369.28125 398.42813Q369.07812 397.89688 368.54688 397.58438Q368.03125 397.27188 367.32812 397.27188Q366.20312 397.27188 365.39062 397.99063Q364.57812 398.69376 364.57812 400.67813L364.57812 406.35L362.8125 406.35ZM376.65625 404.77188L376.90625 406.33438Q376.17188 406.49063 375.57812 406.49063Q374.625 406.49063 374.09375 406.19376Q373.57812 405.88126 373.35938 405.39688Q373.14062 404.89688 373.14062 403.31876L373.14062 397.35L371.85938 397.35L371.85938 395.975L373.14062 395.975L373.14062 393.4125L374.89062 392.35L374.89062 395.975L376.65625 395.975L376.65625 397.35L374.89062 397.35L374.89062 403.4125Q374.89062 404.1625 374.98438 404.38126Q375.07812 404.58438 375.28125 404.725Q375.5 404.85 375.89062 404.85Q376.17188 404.85 376.65625 404.77188ZM378.82812 394.05313L378.82812 392.0375L380.59375 392.0375L380.59375 394.05313L378.82812 394.05313ZM378.82812 406.35L378.82812 395.975L380.59375 395.975L380.59375 406.35L378.82812 406.35ZM389.54688 406.35L389.54688 405.0375Q388.5625 406.58438 386.64062 406.58438Q385.40625 406.58438 384.35938 405.89688Q383.32812 405.20938 382.75 403.99063Q382.1875 402.77188 382.1875 401.17813Q382.1875 399.61563 382.70312 398.35Q383.21875 397.08438 384.25 396.4125Q385.29688 395.74063 386.5625 395.74063Q387.5 395.74063 388.23438 396.14688Q388.96875 396.5375 389.4375 397.1625L389.4375 392.0375L391.17188 392.0375L391.17188 406.35L389.54688 406.35ZM383.98438 401.17813Q383.98438 403.1625 384.82812 404.14688Q385.67188 405.13126 386.8125 405.13126Q387.96875 405.13126 388.76562 404.19376Q389.57812 403.25626 389.57812 401.31876Q389.57812 399.19376 388.75 398.19376Q387.9375 397.19376 386.73438 397.19376Q385.5625 397.19376 384.76562 398.1625Q383.98438 399.11563 383.98438 401.17813ZM400.59375 405.06876Q399.60938 405.89688 398.70312 406.24063Q397.79688 406.58438 396.76562 406.58438Q395.0625 406.58438 394.14062 405.75626Q393.21875 404.9125 393.21875 403.61563Q393.21875 402.85 393.5625 402.225Q393.92188 401.6 394.48438 401.225Q395.04688 400.83438 395.75 400.63126Q396.26562 400.50626 397.3125 400.36563Q399.4375 400.11563 400.4375 399.77188Q400.45312 399.4125 400.45312 399.30313Q400.45312 398.24063 399.95312 397.7875Q399.28125 397.19376 397.95312 397.19376Q396.70312 397.19376 396.10938 397.63126Q395.53125 398.06876 395.25 399.17813L393.53125 398.94376Q393.76562 397.83438 394.29688 397.1625Q394.82812 396.475 395.84375 396.11563Q396.85938 395.74063 398.20312 395.74063Q399.53125 395.74063 400.35938 396.05313Q401.1875 396.36563 401.57812 396.85Q401.96875 397.31876 402.125 398.0375Q402.21875 398.49063 402.21875 399.6625L402.21875 402.00626Q402.21875 404.45938 402.32812 405.11563Q402.4375 405.75626 402.78125 406.35L400.9375 406.35Q400.67188 405.80313 400.59375 405.06876ZM400.4375 401.14688Q399.48438 401.5375 397.5625 401.80313Q396.48438 401.95938 396.03125 402.1625Q395.59375 402.35 395.34375 402.725Q395.09375 403.1 395.09375 403.56876Q395.09375 404.27188 395.625 404.74063Q396.15625 405.20938 397.1875 405.20938Q398.20312 405.20938 398.98438 404.77188Q399.78125 404.31876 400.15625 403.55313Q400.4375 402.94376 400.4375 401.7875L400.4375 401.14688ZM411.54688 406.35L411.54688 405.0375Q410.5625 406.58438 408.64062 406.58438Q407.40625 406.58438 406.35938 405.89688Q405.32812 405.20938 404.75 403.99063Q404.1875 402.77188 404.1875 401.17813Q404.1875 399.61563 404.70312 398.35Q405.21875 397.08438 406.25 396.4125Q407.29688 395.74063 408.5625 395.74063Q409.5 395.74063 410.23438 396.14688Q410.96875 396.5375 411.4375 397.1625L411.4375 392.0375L413.17188 392.0375L413.17188 406.35L411.54688 406.35ZM405.98438 401.17813Q405.98438 403.1625 406.82812 404.14688Q407.67188 405.13126 408.8125 405.13126Q409.96875 405.13126 410.76562 404.19376Q411.57812 403.25626 411.57812 401.31876Q411.57812 399.19376 410.75 398.19376Q409.9375 397.19376 408.73438 397.19376Q407.5625 397.19376 406.76562 398.1625Q405.98438 399.11563 405.98438 401.17813ZM428.54688 406.35L428.54688 405.0375Q427.5625 406.58438 425.64062 406.58438Q424.40625 406.58438 423.35938 405.89688Q422.32812 405.20938 421.75 403.99063Q421.1875 402.77188 421.1875 401.17813Q421.1875 399.61563 421.70312 398.35Q422.21875 397.08438 423.25 396.4125Q424.29688 395.74063 425.5625 395.74063Q426.5 395.74063 427.23438 396.14688Q427.96875 396.5375 428.4375 397.1625L428.4375 392.0375L430.17188 392.0375L430.17188 406.35L428.54688 406.35ZM422.98438 401.17813Q422.98438 403.1625 423.82812 404.14688Q424.67188 405.13126 425.8125 405.13126Q426.96875 405.13126 427.76562 404.19376Q428.57812 403.25626 428.57812 401.31876Q428.57812 399.19376 427.75 398.19376Q426.9375 397.19376 425.73438 397.19376Q424.5625 397.19376 423.76562 398.1625Q422.98438 399.11563 422.98438 401.17813ZM439.92188 403.00626L441.73438 403.24063Q441.3125 404.81876 440.14062 405.70938Q438.98438 406.58438 437.17188 406.58438Q434.90625 406.58438 433.5625 405.19376Q432.23438 403.7875 432.23438 401.25626Q432.23438 398.63126 433.57812 397.19376Q434.92188 395.74063 437.07812 395.74063Q439.15625 395.74063 440.46875 397.1625Q441.79688 398.56876 441.79688 401.14688Q441.79688 401.30313 441.78125 401.61563L434.04688 401.61563Q434.14062 403.31876 435.01562 404.225Q435.89062 405.13126 437.1875 405.13126Q438.15625 405.13126 438.82812 404.63126Q439.51562 404.11563 439.92188 403.00626ZM434.14062 400.1625L439.9375 400.1625Q439.82812 398.86563 439.28125 398.20938Q438.4375 397.19376 437.09375 397.19376Q435.89062 397.19376 435.0625 398.00626Q434.23438 398.80313 434.14062 400.1625ZM450.03125 406.35L450.03125 392.0375L451.96875 392.0375L459.48438 403.27188L459.48438 392.0375L461.29688 392.0375L461.29688 406.35L459.35938 406.35L451.84375 395.1L451.84375 406.35L450.03125 406.35ZM462.17188 401.1625Q462.17188 398.2875 463.76562 396.89688Q465.10938 395.74063 467.03125 395.74063Q469.17188 395.74063 470.51562 397.14688Q471.875 398.55313 471.875 401.02188Q471.875 403.02188 471.28125 404.17813Q470.6875 405.31876 469.53125 405.95938Q468.39062 406.58438 467.03125 406.58438Q464.84375 406.58438 463.5 405.19376Q462.17188 403.7875 462.17188 401.1625ZM463.96875 401.1625Q463.96875 403.1625 464.82812 404.14688Q465.70312 405.13126 467.03125 405.13126Q468.34375 405.13126 469.20312 404.14688Q470.07812 403.14688 470.07812 401.1Q470.07812 399.17813 469.20312 398.19376Q468.32812 397.19376 467.03125 397.19376Q465.70312 397.19376 464.82812 398.19376Q463.96875 399.17813 463.96875 401.1625ZM480.54688 406.35L480.54688 405.0375Q479.5625 406.58438 477.64062 406.58438Q476.40625 406.58438 475.35938 405.89688Q474.32812 405.20938 473.75 403.99063Q473.1875 402.77188 473.1875 401.17813Q473.1875 399.61563 473.70312 398.35Q474.21875 397.08438 475.25 396.4125Q476.29688 395.74063 477.5625 395.74063Q478.5 395.74063 479.23438 396.14688Q479.96875 396.5375 480.4375 397.1625L480.4375 392.0375L482.17188 392.0375L482.17188 406.35L480.54688 406.35ZM474.98438 401.17813Q474.98438 403.1625 475.82812 404.14688Q476.67188 405.13126 477.8125 405.13126Q478.96875 405.13126 479.76562 404.19376Q480.57812 403.25626 480.57812 401.31876Q480.57812 399.19376 479.75 398.19376Q478.9375 397.19376 477.73438 397.19376Q476.5625 397.19376 475.76562 398.1625Q474.98438 399.11563 474.98438 401.17813ZM484.17188 401.1625Q484.17188 398.2875 485.76562 396.89688Q487.10938 395.74063 489.03125 395.74063Q491.17188 395.74063 492.51562 397.14688Q493.875 398.55313 493.875 401.02188Q493.875 403.02188 493.28125 404.17813Q492.6875 405.31876 491.53125 405.95938Q490.39062 406.58438 489.03125 406.58438Q486.84375 406.58438 485.5 405.19376Q484.17188 403.7875 484.17188 401.1625ZM485.96875 401.1625Q485.96875 403.1625 486.82812 404.14688Q487.70312 405.13126 489.03125 405.13126Q490.34375 405.13126 491.20312 404.14688Q492.07812 403.14688 492.07812 401.1Q492.07812 399.17813 491.20312 398.19376Q490.32812 397.19376 489.03125 397.19376Q487.70312 397.19376 486.82812 398.19376Q485.96875 399.17813 485.96875 401.1625ZM495.10938 403.25626L496.85938 402.975Q497.0 404.02188 497.67188 404.58438Q498.34375 405.13126 499.54688 405.13126Q500.75 405.13126 501.32812 404.64688Q501.92188 404.14688 501.92188 403.49063Q501.92188 402.89688 501.40625 402.55313Q501.04688 402.31876 499.60938 401.95938Q497.67188 401.45938 496.92188 401.11563Q496.1875 400.75626 495.79688 400.13126Q495.40625 399.49063 495.40625 398.725Q495.40625 398.0375 495.71875 397.44376Q496.04688 396.85 496.59375 396.45938Q497.0 396.1625 497.70312 395.95938Q498.42188 395.74063 499.23438 395.74063Q500.45312 395.74063 501.375 396.1Q502.29688 396.44376 502.73438 397.05313Q503.17188 397.64688 503.34375 398.64688L501.625 398.88126Q501.5 398.08438 500.9375 397.64688Q500.375 397.19376 499.35938 397.19376Q498.14062 397.19376 497.625 397.6Q497.10938 397.99063 497.10938 398.52188Q497.10938 398.86563 497.32812 399.14688Q497.53125 399.42813 498.0 399.61563Q498.26562 399.70938 499.54688 400.05313Q501.42188 400.55313 502.15625 400.88126Q502.89062 401.19376 503.3125 401.80313Q503.73438 402.39688 503.73438 403.30313Q503.73438 404.17813 503.21875 404.95938Q502.70312 405.74063 501.73438 406.1625Q500.76562 406.58438 499.54688 406.58438Q497.53125 406.58438 496.46875 405.74063Q495.40625 404.89688 495.10938 403.25626Z" fill-rule="nonzero"/><path fill="#000000" d="M40.650005 264.52917L28.025005 264.52917L28.025005 269.24792L26.337505 269.24792L26.337505 257.90417L28.025005 257.90417L28.025005 262.63855L40.650005 262.63855L40.650005 264.52917ZM28.35313 256.38855L26.337505 256.38855L26.337505 254.62292L28.35313 254.62292L28.35313 256.38855ZM40.650005 256.38855L30.275005 256.38855L30.275005 254.62292L40.650005 254.62292L40.650005 256.38855ZM37.306255 245.2948L37.54063 243.4823Q39.118755 243.90417 40.00938 245.07605Q40.88438 246.2323 40.88438 248.0448Q40.88438 250.31042 39.493755 251.65417Q38.087505 252.9823 35.556255 252.9823Q32.931255 252.9823 31.493755 251.63855Q30.04063 250.2948 30.04063 248.13855Q30.04063 246.06042 31.462505 244.74792Q32.868755 243.4198 35.44688 243.4198Q35.60313 243.4198 35.91563 243.43542L35.91563 251.1698Q37.618755 251.07605 38.525005 250.20105Q39.431255 249.32605 39.431255 248.02917Q39.431255 247.06042 38.931255 246.38855Q38.41563 245.70105 37.306255 245.2948ZM34.462505 251.07605L34.462505 245.27917Q33.16563 245.38855 32.50938 245.93542Q31.493755 246.77917 31.493755 248.12292Q31.493755 249.32605 32.306255 250.15417Q33.10313 250.9823 34.462505 251.07605ZM40.650005 241.40417L30.275005 241.40417L30.275005 239.82605L31.72813 239.82605Q30.97813 239.34167 30.50938 238.52917Q30.04063 237.71667 30.04063 236.68542Q30.04063 235.52917 30.525005 234.7948Q30.993755 234.06042 31.85313 233.74792Q30.04063 232.51355 30.04063 230.5448Q30.04063 228.99792 30.900005 228.1698Q31.75938 227.34167 33.525005 227.34167L40.650005 227.34167L40.650005 229.09167L34.118755 229.09167Q33.056255 229.09167 32.60313 229.26355Q32.13438 229.43542 31.85313 229.88855Q31.57188 230.32605 31.57188 230.93542Q31.57188 232.02917 32.306255 232.76355Q33.025005 233.4823 34.618755 233.4823L40.650005 233.4823L40.650005 235.2323L33.91563 235.2323Q32.743755 235.2323 32.16563 235.6698Q31.57188 236.09167 31.57188 237.07605Q31.57188 237.81042 31.962505 238.45105Q32.35313 239.07605 33.10313 239.3573Q33.85313 239.63855 35.275005 239.63855L40.650005 239.63855L40.650005 241.40417ZM44.618755 225.40417L30.275005 225.40417L30.275005 223.7948L31.618755 223.7948Q30.837505 223.2323 30.44688 222.52917Q30.04063 221.81042 30.04063 220.7948Q30.04063 219.46667 30.72813 218.45105Q31.41563 217.43542 32.66563 216.9198Q33.900005 216.38855 35.38438 216.38855Q36.97813 216.38855 38.25938 216.96667Q39.525005 217.52917 40.212505 218.62292Q40.88438 219.71667 40.88438 220.9198Q40.88438 221.7948 40.50938 222.49792Q40.13438 223.18542 39.57188 223.63855L44.618755 223.63855L44.618755 225.40417ZM35.525005 223.81042Q37.525005 223.81042 38.47813 222.99792Q39.431255 222.18542 39.431255 221.02917Q39.431255 219.8573 38.44688 219.02917Q37.462505 218.18542 35.368755 218.18542Q33.400005 218.18542 32.41563 219.01355Q31.41563 219.82605 31.41563 220.95105Q31.41563 222.07605 32.47813 222.95105Q33.525005 223.81042 35.525005 223.81042ZM35.462505 215.0448Q32.587505 215.0448 31.19688 213.45105Q30.04063 212.1073 30.04063 210.18542Q30.04063 208.0448 31.44688 206.70105Q32.85313 205.34167 35.32188 205.34167Q37.32188 205.34167 38.47813 205.93542Q39.618755 206.52917 40.25938 207.68542Q40.88438 208.82605 40.88438 210.18542Q40.88438 212.37292 39.493755 213.71667Q38.087505 215.0448 35.462505 215.0448ZM35.462505 213.24792Q37.462505 213.24792 38.44688 212.38855Q39.431255 211.51355 39.431255 210.18542Q39.431255 208.87292 38.44688 208.01355Q37.44688 207.13855 35.400005 207.13855Q33.47813 207.13855 32.493755 208.01355Q31.493755 208.88855 31.493755 210.18542Q31.493755 211.51355 32.493755 212.38855Q33.47813 213.24792 35.462505 213.24792ZM44.85313 194.0448Q43.025005 195.49792 40.57188 196.49792Q38.10313 197.49792 35.462505 197.49792Q33.13438 197.49792 31.00938 196.74792Q28.54063 195.87292 26.087505 194.0448L26.087505 192.77917Q28.118755 193.96667 28.993755 194.34167Q30.337505 194.93542 31.806255 195.27917Q33.63438 195.70105 35.47813 195.70105Q40.16563 195.70105 44.85313 192.77917L44.85313 194.0448ZM40.650005 190.40417L30.275005 190.40417L30.275005 188.82605L31.72813 188.82605Q30.97813 188.34167 30.50938 187.52917Q30.04063 186.71667 30.04063 185.68542Q30.04063 184.52917 30.525005 183.7948Q30.993755 183.06042 31.85313 182.74792Q30.04063 181.51355 30.04063 179.5448Q30.04063 177.99792 30.900005 177.1698Q31.75938 176.34167 33.525005 176.34167L40.650005 176.34167L40.650005 178.09167L34.118755 178.09167Q33.056255 178.09167 32.60313 178.26355Q32.13438 178.43542 31.85313 178.88855Q31.57188 179.32605 31.57188 179.93542Q31.57188 181.02917 32.306255 181.76355Q33.025005 182.4823 34.618755 182.4823L40.650005 182.4823L40.650005 184.2323L33.91563 184.2323Q32.743755 184.2323 32.16563 184.6698Q31.57188 185.09167 31.57188 186.07605Q31.57188 186.81042 31.962505 187.45105Q32.35313 188.07605 33.10313 188.3573Q33.85313 188.63855 35.275005 188.63855L40.650005 188.63855L40.650005 190.40417ZM37.556255 175.1073L37.275005 173.3573Q38.32188 173.21667 38.88438 172.5448Q39.431255 171.87292 39.431255 170.6698Q39.431255 169.46667 38.94688 168.88855Q38.44688 168.2948 37.79063 168.2948Q37.19688 168.2948 36.85313 168.81042Q36.618755 169.1698 36.25938 170.6073Q35.75938 172.5448 35.41563 173.2948Q35.056255 174.02917 34.431255 174.4198Q33.79063 174.81042 33.025005 174.81042Q32.337505 174.81042 31.743755 174.49792Q31.150005 174.1698 30.75938 173.62292Q30.462505 173.21667 30.25938 172.51355Q30.04063 171.7948 30.04063 170.9823Q30.04063 169.76355 30.400005 168.84167Q30.743755 167.9198 31.35313 167.4823Q31.94688 167.0448 32.94688 166.87292L33.181255 168.59167Q32.38438 168.71667 31.94688 169.27917Q31.493755 169.84167 31.493755 170.8573Q31.493755 172.07605 31.900005 172.59167Q32.29063 173.1073 32.82188 173.1073Q33.16563 173.1073 33.44688 172.88855Q33.72813 172.68542 33.91563 172.21667Q34.00938 171.95105 34.35313 170.6698Q34.85313 168.7948 35.181255 168.06042Q35.493755 167.32605 36.10313 166.90417Q36.69688 166.4823 37.60313 166.4823Q38.47813 166.4823 39.25938 166.99792Q40.04063 167.51355 40.462505 168.4823Q40.88438 169.45105 40.88438 170.6698Q40.88438 172.68542 40.04063 173.74792Q39.19688 174.81042 37.556255 175.1073ZM44.85313 163.24792L44.85313 164.49792Q40.16563 161.59167 35.47813 161.59167Q33.63438 161.59167 31.837505 161.99792Q30.368755 162.34167 29.025005 162.93542Q28.13438 163.31042 26.087505 164.49792L26.087505 163.24792Q28.54063 161.40417 31.00938 160.52917Q33.13438 159.77917 35.462505 159.77917Q38.10313 159.77917 40.57188 160.7948Q43.025005 161.7948 44.85313 163.24792Z" fill-rule="nonzero"/><path fill="#000000" d="M149.10312 330.35L147.3375 330.35L147.3375 319.14688Q146.7125 319.75626 145.68124 320.36563Q144.65 320.95938 143.82187 321.27188L143.82187 319.56876Q145.30624 318.88126 146.4 317.89688Q147.50937 316.89688 147.9625 315.975L149.10312 315.975L149.10312 330.35Z" fill-rule="nonzero"/><path fill="#000000" d="M138.10312 292.21866L136.3375 292.21866L136.3375 281.01553Q135.7125 281.6249 134.68124 282.23428Q133.65 282.82803 132.82187 283.14053L132.82187 281.4374Q134.30624 280.7499 135.4 279.76553Q136.50937 278.76553 136.9625 277.84366L138.10312 277.84366L138.10312 292.21866ZM142.47812 285.15616Q142.47812 282.6249 142.99374 281.07803Q143.525 279.51553 144.55624 278.6874Q145.5875 277.84366 147.15 277.84366Q148.30624 277.84366 149.16562 278.3124Q150.04062 278.76553 150.60312 279.64053Q151.16562 280.51553 151.49374 281.78116Q151.82187 283.03116 151.82187 285.15616Q151.82187 287.67178 151.29062 289.21866Q150.775 290.76553 149.74374 291.6249Q148.72812 292.46866 147.15 292.46866Q145.07187 292.46866 143.9 290.98428Q142.47812 289.1874 142.47812 285.15616ZM144.29062 285.15616Q144.29062 288.6874 145.10312 289.85928Q145.93124 291.01553 147.15 291.01553Q148.35312 291.01553 149.18124 289.84366Q150.00937 288.67178 150.00937 285.15616Q150.00937 281.6249 149.18124 280.46866Q148.35312 279.29678 147.13437 279.29678Q145.91562 279.29678 145.19687 280.32803Q144.29062 281.6249 144.29062 285.15616Z" fill-rule="nonzero"/><path fill="#000000" d="M127.10313 254.08734L125.3375 254.08734L125.3375 242.88422Q124.7125 243.49359 123.68125 244.10297Q122.65 244.69672 121.82188 245.00922L121.82188 243.30609Q123.30625 242.61859 124.4 241.63422Q125.50938 240.63422 125.9625 239.71234L127.10313 239.71234L127.10313 254.08734ZM131.47812 247.02484Q131.47812 244.49359 131.99374 242.94672Q132.525 241.38422 133.55624 240.55609Q134.5875 239.71234 136.15 239.71234Q137.30624 239.71234 138.16562 240.18109Q139.04062 240.63422 139.60312 241.50922Q140.16562 242.38422 140.49374 243.64984Q140.82187 244.89984 140.82187 247.02484Q140.82187 249.54047 140.29062 251.08734Q139.775 252.63422 138.74374 253.49359Q137.72812 254.33734 136.15 254.33734Q134.07187 254.33734 132.9 252.85297Q131.47812 251.05609 131.47812 247.02484ZM133.29062 247.02484Q133.29062 250.55609 134.10312 251.72797Q134.93124 252.88422 136.15 252.88422Q137.35312 252.88422 138.18124 251.71234Q139.00937 250.54047 139.00937 247.02484Q139.00937 243.49359 138.18124 242.33734Q137.35312 241.16547 136.13437 241.16547Q134.91562 241.16547 134.19687 242.19672Q133.29062 243.49359 133.29062 247.02484ZM142.47812 247.02484Q142.47812 244.49359 142.99374 242.94672Q143.525 241.38422 144.55624 240.55609Q145.5875 239.71234 147.15 239.71234Q148.30624 239.71234 149.16562 240.18109Q150.04062 240.63422 150.60312 241.50922Q151.16562 242.38422 151.49374 243.64984Q151.82187 244.89984 151.82187 247.02484Q151.82187 249.54047 151.29062 251.08734Q150.775 252.63422 149.74374 253.49359Q148.72812 254.33734 147.15 254.33734Q145.07187 254.33734 143.9 252.85297Q142.47812 251.05609 142.47812 247.02484ZM144.29062 247.02484Q144.29062 250.55609 145.10312 251.72797Q145.93124 252.88422 147.15 252.88422Q148.35312 252.88422 149.18124 251.71234Q150.00937 250.54047 150.00937 247.02484Q150.00937 243.49359 149.18124 242.33734Q148.35312 241.16547 147.13437 241.16547Q145.91562 241.16547 145.19687 242.19672Q144.29062 243.49359 144.29062 247.02484Z" fill-rule="nonzero"/><path fill="#000000" d="M116.10313 215.95601L114.3375 215.95601L114.3375 204.75288Q113.7125 205.36226 112.68125 205.97163Q111.65 206.56538 110.82188 206.87788L110.82188 205.17476Q112.30625 204.48726 113.4 203.50288Q114.50938 202.50288 114.9625 201.58101L116.10313 201.58101L116.10313 215.95601ZM120.47813 208.89351Q120.47813 206.36226 120.99375 204.81538Q121.525 203.25288 122.55625 202.42476Q123.5875 201.58101 125.15 201.58101Q126.30625 201.58101 127.16563 202.04976Q128.04062 202.50288 128.60312 203.37788Q129.16562 204.25288 129.49374 205.51851Q129.82187 206.76851 129.82187 208.89351Q129.82187 211.40913 129.29062 212.95601Q128.775 214.50288 127.74375 215.36226Q126.72813 216.20601 125.15 216.20601Q123.07188 216.20601 121.9 214.72163Q120.47813 212.92476 120.47813 208.89351ZM122.29063 208.89351Q122.29063 212.42476 123.10313 213.59663Q123.93125 214.75288 125.15 214.75288Q126.35313 214.75288 127.18125 213.58101Q128.00937 212.40913 128.00937 208.89351Q128.00937 205.36226 127.18125 204.20601Q126.35313 203.03413 125.13438 203.03413Q123.91563 203.03413 123.19688 204.06538Q122.29063 205.36226 122.29063 208.89351ZM131.47812 208.89351Q131.47812 206.36226 131.99374 204.81538Q132.525 203.25288 133.55624 202.42476Q134.5875 201.58101 136.15 201.58101Q137.30624 201.58101 138.16562 202.04976Q139.04062 202.50288 139.60312 203.37788Q140.16562 204.25288 140.49374 205.51851Q140.82187 206.76851 140.82187 208.89351Q140.82187 211.40913 140.29062 212.95601Q139.775 214.50288 138.74374 215.36226Q137.72812 216.20601 136.15 216.20601Q134.07187 216.20601 132.9 214.72163Q131.47812 212.92476 131.47812 208.89351ZM133.29062 208.89351Q133.29062 212.42476 134.10312 213.59663Q134.93124 214.75288 136.15 214.75288Q137.35312 214.75288 138.18124 213.58101Q139.00937 212.40913 139.00937 208.89351Q139.00937 205.36226 138.18124 204.20601Q137.35312 203.03413 136.13437 203.03413Q134.91562 203.03413 134.19687 204.06538Q133.29062 205.36226 133.29062 208.89351ZM142.47812 208.89351Q142.47812 206.36226 142.99374 204.81538Q143.525 203.25288 144.55624 202.42476Q145.5875 201.58101 147.15 201.58101Q148.30624 201.58101 149.16562 202.04976Q150.04062 202.50288 150.60312 203.37788Q151.16562 204.25288 151.49374 205.51851Q151.82187 206.76851 151.82187 208.89351Q151.82187 211.40913 151.29062 212.95601Q150.775 214.50288 149.74374 215.36226Q148.72812 216.20601 147.15 216.20601Q145.07187 216.20601 143.9 214.72163Q142.47812 212.92476 142.47812 208.89351ZM144.29062 208.89351Q144.29062 212.42476 145.10312 213.59663Q145.93124 214.75288 147.15 214.75288Q148.35312 214.75288 149.18124 213.58101Q150.00937 212.40913 150.00937 208.89351Q150.00937 205.36226 149.18124 204.20601Q148.35312 203.03413 147.13437 203.03413Q145.91562 203.03413 145.19687 204.06538Q144.29062 205.36226 144.29062 208.89351Z" fill-rule="nonzero"/><path fill="#000000" d="M105.10313 177.82468L103.3375 177.82468L103.3375 166.62155Q102.7125 167.23093 101.68125 167.8403Q100.65 168.43405 99.82188 168.74655L99.82188 167.04343Q101.30625 166.35593 102.4 165.37155Q103.50938 164.37155 103.9625 163.44968L105.10313 163.44968L105.10313 177.82468ZM109.47813 170.76218Q109.47813 168.23093 109.99375 166.68405Q110.525 165.12155 111.55625 164.29343Q112.5875 163.44968 114.15 163.44968Q115.30625 163.44968 116.16563 163.91843Q117.04063 164.37155 117.60313 165.24655Q118.16563 166.12155 118.49375 167.38718Q118.82188 168.63718 118.82188 170.76218Q118.82188 173.2778 118.29063 174.82468Q117.775 176.37155 116.74375 177.23093Q115.72813 178.07468 114.15 178.07468Q112.07188 178.07468 110.9 176.5903Q109.47813 174.79343 109.47813 170.76218ZM111.29063 170.76218Q111.29063 174.29343 112.10313 175.4653Q112.93125 176.62155 114.15 176.62155Q115.35313 176.62155 116.18125 175.44968Q117.00938 174.2778 117.00938 170.76218Q117.00938 167.23093 116.18125 166.07468Q115.35313 164.9028 114.13438 164.9028Q112.91563 164.9028 112.19688 165.93405Q111.29063 167.23093 111.29063 170.76218ZM120.47813 170.76218Q120.47813 168.23093 120.99375 166.68405Q121.525 165.12155 122.55625 164.29343Q123.5875 163.44968 125.15 163.44968Q126.30625 163.44968 127.16563 163.91843Q128.04062 164.37155 128.60312 165.24655Q129.16562 166.12155 129.49374 167.38718Q129.82187 168.63718 129.82187 170.76218Q129.82187 173.2778 129.29062 174.82468Q128.775 176.37155 127.74375 177.23093Q126.72813 178.07468 125.15 178.07468Q123.07188 178.07468 121.9 176.5903Q120.47813 174.79343 120.47813 170.76218ZM122.29063 170.76218Q122.29063 174.29343 123.10313 175.4653Q123.93125 176.62155 125.15 176.62155Q126.35313 176.62155 127.18125 175.44968Q128.00937 174.2778 128.00937 170.76218Q128.00937 167.23093 127.18125 166.07468Q126.35313 164.9028 125.13438 164.9028Q123.91563 164.9028 123.19688 165.93405Q122.29063 167.23093 122.29063 170.76218ZM131.47812 170.76218Q131.47812 168.23093 131.99374 166.68405Q132.525 165.12155 133.55624 164.29343Q134.5875 163.44968 136.15 163.44968Q137.30624 163.44968 138.16562 163.91843Q139.04062 164.37155 139.60312 165.24655Q140.16562 166.12155 140.49374 167.38718Q140.82187 168.63718 140.82187 170.76218Q140.82187 173.2778 140.29062 174.82468Q139.775 176.37155 138.74374 177.23093Q137.72812 178.07468 136.15 178.07468Q134.07187 178.07468 132.9 176.5903Q131.47812 174.79343 131.47812 170.76218ZM133.29062 170.76218Q133.29062 174.29343 134.10312 175.4653Q134.93124 176.62155 136.15 176.62155Q137.35312 176.62155 138.18124 175.44968Q139.00937 174.2778 139.00937 170.76218Q139.00937 167.23093 138.18124 166.07468Q137.35312 164.9028 136.13437 164.9028Q134.91562 164.9028 134.19687 165.93405Q133.29062 167.23093 133.29062 170.76218ZM142.47812 170.76218Q142.47812 168.23093 142.99374 166.68405Q143.525 165.12155 144.55624 164.29343Q145.5875 163.44968 147.15 163.44968Q148.30624 163.44968 149.16562 163.91843Q150.04062 164.37155 150.60312 165.24655Q151.16562 166.12155 151.49374 167.38718Q151.82187 168.63718 151.82187 170.76218Q151.82187 173.2778 151.29062 174.82468Q150.775 176.37155 149.74374 177.23093Q148.72812 178.07468 147.15 178.07468Q145.07187 178.07468 143.9 176.5903Q142.47812 174.79343 142.47812 170.76218ZM144.29062 170.76218Q144.29062 174.29343 145.10312 175.4653Q145.93124 176.62155 147.15 176.62155Q148.35312 176.62155 149.18124 175.44968Q150.00937 174.2778 150.00937 170.76218Q150.00937 167.23093 149.18124 166.07468Q148.35312 164.9028 147.13437 164.9028Q145.91562 164.9028 145.19687 165.93405Q144.29062 167.23093 144.29062 170.76218Z" fill-rule="nonzero"/><path fill="#000000" d="M94.10313 139.69334L92.3375 139.69334L92.3375 128.49022Q91.7125 129.0996 90.68125 129.70897Q89.65 130.30272 88.82188 130.61522L88.82188 128.9121Q90.30625 128.2246 91.4 127.24022Q92.50938 126.24022 92.9625 125.318344L94.10313 125.318344L94.10313 139.69334ZM98.47813 132.63084Q98.47813 130.0996 98.99375 128.55272Q99.525 126.99022 100.55625 126.162094Q101.5875 125.318344 103.15 125.318344Q104.30625 125.318344 105.16563 125.787094Q106.04063 126.24022 106.60313 127.11522Q107.16563 127.99022 107.49375 129.25584Q107.82188 130.50584 107.82188 132.63084Q107.82188 135.14647 107.29063 136.69334Q106.775 138.24022 105.74375 139.0996Q104.72813 139.94334 103.15 139.94334Q101.07188 139.94334 99.9 138.45897Q98.47813 136.6621 98.47813 132.63084ZM100.29063 132.63084Q100.29063 136.1621 101.10313 137.33397Q101.93125 138.49022 103.15 138.49022Q104.35313 138.49022 105.18125 137.31834Q106.00938 136.14647 106.00938 132.63084Q106.00938 129.0996 105.18125 127.943344Q104.35313 126.77147 103.13438 126.77147Q101.91563 126.77147 101.19688 127.80272Q100.29063 129.0996 100.29063 132.63084ZM109.47813 132.63084Q109.47813 130.0996 109.99375 128.55272Q110.525 126.99022 111.55625 126.162094Q112.5875 125.318344 114.15 125.318344Q115.30625 125.318344 116.16563 125.787094Q117.04063 126.24022 117.60313 127.11522Q118.16563 127.99022 118.49375 129.25584Q118.82188 130.50584 118.82188 132.63084Q118.82188 135.14647 118.29063 136.69334Q117.775 138.24022 116.74375 139.0996Q115.72813 139.94334 114.15 139.94334Q112.07188 139.94334 110.9 138.45897Q109.47813 136.6621 109.47813 132.63084ZM111.29063 132.63084Q111.29063 136.1621 112.10313 137.33397Q112.93125 138.49022 114.15 138.49022Q115.35313 138.49022 116.18125 137.31834Q117.00938 136.14647 117.00938 132.63084Q117.00938 129.0996 116.18125 127.943344Q115.35313 126.77147 114.13438 126.77147Q112.91563 126.77147 112.19688 127.80272Q111.29063 129.0996 111.29063 132.63084ZM120.47813 132.63084Q120.47813 130.0996 120.99375 128.55272Q121.525 126.99022 122.55625 126.162094Q123.5875 125.318344 125.15 125.318344Q126.30625 125.318344 127.16563 125.787094Q128.04062 126.24022 128.60312 127.11522Q129.16562 127.99022 129.49374 129.25584Q129.82187 130.50584 129.82187 132.63084Q129.82187 135.14647 129.29062 136.69334Q128.775 138.24022 127.74375 139.0996Q126.72813 139.94334 125.15 139.94334Q123.07188 139.94334 121.9 138.45897Q120.47813 136.6621 120.47813 132.63084ZM122.29063 132.63084Q122.29063 136.1621 123.10313 137.33397Q123.93125 138.49022 125.15 138.49022Q126.35313 138.49022 127.18125 137.31834Q128.00937 136.14647 128.00937 132.63084Q128.00937 129.0996 127.18125 127.943344Q126.35313 126.77147 125.13438 126.77147Q123.91563 126.77147 123.19688 127.80272Q122.29063 129.0996 122.29063 132.63084ZM131.47812 132.63084Q131.47812 130.0996 131.99374 128.55272Q132.525 126.99022 133.55624 126.162094Q134.5875 125.318344 136.15 125.318344Q137.30624 125.318344 138.16562 125.787094Q139.04062 126.24022 139.60312 127.11522Q140.16562 127.99022 140.49374 129.25584Q140.82187 130.50584 140.82187 132.63084Q140.82187 135.14647 140.29062 136.69334Q139.775 138.24022 138.74374 139.0996Q137.72812 139.94334 136.15 139.94334Q134.07187 139.94334 132.9 138.45897Q131.47812 136.6621 131.47812 132.63084ZM133.29062 132.63084Q133.29062 136.1621 134.10312 137.33397Q134.93124 138.49022 136.15 138.49022Q137.35312 138.49022 138.18124 137.31834Q139.00937 136.14647 139.00937 132.63084Q139.00937 129.0996 138.18124 127.943344Q137.35312 126.77147 136.13437 126.77147Q134.91562 126.77147 134.19687 127.80272Q133.29062 129.0996 133.29062 132.63084ZM142.47812 132.63084Q142.47812 130.0996 142.99374 128.55272Q143.525 126.99022 144.55624 126.162094Q145.5875 125.318344 147.15 125.318344Q148.30624 125.318344 149.16562 125.787094Q150.04062 126.24022 150.60312 127.11522Q151.16562 127.99022 151.49374 129.25584Q151.82187 130.50584 151.82187 132.63084Q151.82187 135.14647 151.29062 136.69334Q150.775 138.24022 149.74374 139.0996Q148.72812 139.94334 147.15 139.94334Q145.07187 139.94334 143.9 138.45897Q142.47812 136.6621 142.47812 132.63084ZM144.29062 132.63084Q144.29062 136.1621 145.10312 137.33397Q145.93124 138.49022 147.15 138.49022Q148.35312 138.49022 149.18124 137.31834Q150.00937 136.14647 150.00937 132.63084Q150.00937 129.0996 149.18124 127.943344Q148.35312 126.77147 147.13437 126.77147Q145.91562 126.77147 145.19687 127.80272Q144.29062 129.0996 144.29062 132.63084Z" fill-rule="nonzero"/><path fill="#000000" d="M83.10313 101.56201L81.3375 101.56201L81.3375 90.35889Q80.7125 90.96826 79.68125 91.57764Q78.65 92.17139 77.82188 92.48389L77.82188 90.78076Q79.30625 90.09326 80.4 89.10889Q81.50938 88.10889 81.9625 87.18701L83.10313 87.18701L83.10313 101.56201ZM87.47813 94.49951Q87.47813 91.96826 87.99375 90.42139Q88.525 88.85889 89.55625 88.03076Q90.5875 87.18701 92.15 87.18701Q93.30625 87.18701 94.16563 87.65576Q95.04063 88.10889 95.60313 88.98389Q96.16563 89.85889 96.49375 91.12451Q96.82188 92.37451 96.82188 94.49951Q96.82188 97.01514 96.29063 98.56201Q95.775 100.10889 94.74375 100.96826Q93.72813 101.81201 92.15 101.81201Q90.07188 101.81201 88.9 100.32764Q87.47813 98.53076 87.47813 94.49951ZM89.29063 94.49951Q89.29063 98.03076 90.10313 99.20264Q90.93125 100.35889 92.15 100.35889Q93.35313 100.35889 94.18125 99.18701Q95.00938 98.01514 95.00938 94.49951Q95.00938 90.96826 94.18125 89.81201Q93.35313 88.64014 92.13438 88.64014Q90.91563 88.64014 90.19688 89.67139Q89.29063 90.96826 89.29063 94.49951ZM98.47813 94.49951Q98.47813 91.96826 98.99375 90.42139Q99.525 88.85889 100.55625 88.03076Q101.5875 87.18701 103.15 87.18701Q104.30625 87.18701 105.16563 87.65576Q106.04063 88.10889 106.60313 88.98389Q107.16563 89.85889 107.49375 91.12451Q107.82188 92.37451 107.82188 94.49951Q107.82188 97.01514 107.29063 98.56201Q106.775 100.10889 105.74375 100.96826Q104.72813 101.81201 103.15 101.81201Q101.07188 101.81201 99.9 100.32764Q98.47813 98.53076 98.47813 94.49951ZM100.29063 94.49951Q100.29063 98.03076 101.10313 99.20264Q101.93125 100.35889 103.15 100.35889Q104.35313 100.35889 105.18125 99.18701Q106.00938 98.01514 106.00938 94.49951Q106.00938 90.96826 105.18125 89.81201Q104.35313 88.64014 103.13438 88.64014Q101.91563 88.64014 101.19688 89.67139Q100.29063 90.96826 100.29063 94.49951ZM109.47813 94.49951Q109.47813 91.96826 109.99375 90.42139Q110.525 88.85889 111.55625 88.03076Q112.5875 87.18701 114.15 87.18701Q115.30625 87.18701 116.16563 87.65576Q117.04063 88.10889 117.60313 88.98389Q118.16563 89.85889 118.49375 91.12451Q118.82188 92.37451 118.82188 94.49951Q118.82188 97.01514 118.29063 98.56201Q117.775 100.10889 116.74375 100.96826Q115.72813 101.81201 114.15 101.81201Q112.07188 101.81201 110.9 100.32764Q109.47813 98.53076 109.47813 94.49951ZM111.29063 94.49951Q111.29063 98.03076 112.10313 99.20264Q112.93125 100.35889 114.15 100.35889Q115.35313 100.35889 116.18125 99.18701Q117.00938 98.01514 117.00938 94.49951Q117.00938 90.96826 116.18125 89.81201Q115.35313 88.64014 114.13438 88.64014Q112.91563 88.64014 112.19688 89.67139Q111.29063 90.96826 111.29063 94.49951ZM120.47813 94.49951Q120.47813 91.96826 120.99375 90.42139Q121.525 88.85889 122.55625 88.03076Q123.5875 87.18701 125.15 87.18701Q126.30625 87.18701 127.16563 87.65576Q128.04062 88.10889 128.60312 88.98389Q129.16562 89.85889 129.49374 91.12451Q129.82187 92.37451 129.82187 94.49951Q129.82187 97.01514 129.29062 98.56201Q128.775 100.10889 127.74375 100.96826Q126.72813 101.81201 125.15 101.81201Q123.07188 101.81201 121.9 100.32764Q120.47813 98.53076 120.47813 94.49951ZM122.29063 94.49951Q122.29063 98.03076 123.10313 99.20264Q123.93125 100.35889 125.15 100.35889Q126.35313 100.35889 127.18125 99.18701Q128.00937 98.01514 128.00937 94.49951Q128.00937 90.96826 127.18125 89.81201Q126.35313 88.64014 125.13438 88.64014Q123.91563 88.64014 123.19688 89.67139Q122.29063 90.96826 122.29063 94.49951ZM131.47812 94.49951Q131.47812 91.96826 131.99374 90.42139Q132.525 88.85889 133.55624 88.03076Q134.5875 87.18701 136.15 87.18701Q137.30624 87.18701 138.16562 87.65576Q139.04062 88.10889 139.60312 88.98389Q140.16562 89.85889 140.49374 91.12451Q140.82187 92.37451 140.82187 94.49951Q140.82187 97.01514 140.29062 98.56201Q139.775 100.10889 138.74374 100.96826Q137.72812 101.81201 136.15 101.81201Q134.07187 101.81201 132.9 100.32764Q131.47812 98.53076 131.47812 94.49951ZM133.29062 94.49951Q133.29062 98.03076 134.10312 99.20264Q134.93124 100.35889 136.15 100.35889Q137.35312 100.35889 138.18124 99.18701Q139.00937 98.01514 139.00937 94.49951Q139.00937 90.96826 138.18124 89.81201Q137.35312 88.64014 136.13437 88.64014Q134.91562 88.64014 134.19687 89.67139Q133.29062 90.96826 133.29062 94.49951ZM142.47812 94.49951Q142.47812 91.96826 142.99374 90.42139Q143.525 88.85889 144.55624 88.03076Q145.5875 87.18701 147.15 87.18701Q148.30624 87.18701 149.16562 87.65576Q150.04062 88.10889 150.60312 88.98389Q151.16562 89.85889 151.49374 91.12451Q151.82187 92.37451 151.82187 94.49951Q151.82187 97.01514 151.29062 98.56201Q150.775 100.10889 149.74374 100.96826Q148.72812 101.81201 147.15 101.81201Q145.07187 101.81201 143.9 100.32764Q142.47812 98.53076 142.47812 94.49951ZM144.29062 94.49951Q144.29062 98.03076 145.10312 99.20264Q145.93124 100.35889 147.15 100.35889Q148.35312 100.35889 149.18124 99.18701Q150.00937 98.01514 150.00937 94.49951Q150.00937 90.96826 149.18124 89.81201Q148.35312 88.64014 147.13437 88.64014Q145.91562 88.64014 145.19687 89.67139Q144.29062 90.96826 144.29062 94.49951Z" fill-rule="nonzero"/><path fill="#000000" d="M157.97812 345.2875Q157.97812 342.75626 158.49374 341.20938Q159.025 339.64688 160.05624 338.81876Q161.0875 337.975 162.65 337.975Q163.80624 337.975 164.66562 338.44376Q165.54062 338.89688 166.10312 339.77188Q166.66562 340.64688 166.99374 341.9125Q167.32187 343.1625 167.32187 345.2875Q167.32187 347.80313 166.79062 349.35Q166.275 350.89688 165.24374 351.75626Q164.22812 352.6 162.65 352.6Q160.57187 352.6 159.4 351.11563Q157.97812 349.31876 157.97812 345.2875ZM159.79062 345.2875Q159.79062 348.81876 160.60312 349.99063Q161.43124 351.14688 162.65 351.14688Q163.85312 351.14688 164.68124 349.975Q165.50937 348.80313 165.50937 345.2875Q165.50937 341.75626 164.68124 340.6Q163.85312 339.42813 162.63437 339.42813Q161.41562 339.42813 160.69687 340.45938Q159.79062 341.75626 159.79062 345.2875Z" fill-rule="nonzero"/><path fill="#000000" d="M331.0031 352.35L329.2375 352.35L329.2375 341.14688Q328.6125 341.75626 327.58124 342.36563Q326.55 342.95938 325.72186 343.27188L325.72186 341.56876Q327.20624 340.88126 328.3 339.89688Q329.40936 338.89688 329.8625 337.975L331.0031 337.975L331.0031 352.35ZM335.3781 345.2875Q335.3781 342.75626 335.89374 341.20938Q336.425 339.64688 337.45624 338.81876Q338.4875 337.975 340.05 337.975Q341.20624 337.975 342.0656 338.44376Q342.9406 338.89688 343.5031 339.77188Q344.0656 340.64688 344.39374 341.9125Q344.72186 343.1625 344.72186 345.2875Q344.72186 347.80313 344.1906 349.35Q343.675 350.89688 342.64374 351.75626Q341.6281 352.6 340.05 352.6Q337.97186 352.6 336.8 351.11563Q335.3781 349.31876 335.3781 345.2875ZM337.1906 345.2875Q337.1906 348.81876 338.0031 349.99063Q338.83124 351.14688 340.05 351.14688Q341.2531 351.14688 342.08124 349.975Q342.90936 348.80313 342.90936 345.2875Q342.90936 341.75626 342.08124 340.6Q341.2531 339.42813 340.03436 339.42813Q338.8156 339.42813 338.09686 340.45938Q337.1906 341.75626 337.1906 345.2875Z" fill-rule="nonzero"/><path fill="#000000" d="M505.5125 350.6625L505.5125 352.35L496.0594 352.35Q496.04376 351.70938 496.2625 351.13126Q496.6219 350.1625 497.41876 349.225Q498.21564 348.2875 499.71564 347.05313Q502.0594 345.14688 502.8719 344.0375Q503.7 342.9125 503.7 341.9125Q503.7 340.86563 502.95 340.14688Q502.2 339.42813 500.9969 339.42813Q499.73126 339.42813 498.96564 340.19376Q498.2 340.95938 498.2 342.30313L496.3875 342.11563Q496.575 340.1 497.77814 339.0375Q498.9969 337.975 501.04376 337.975Q503.09064 337.975 504.29376 339.11563Q505.4969 340.25626 505.4969 341.94376Q505.4969 342.80313 505.1375 343.64688Q504.79376 344.475 503.98126 345.39688Q503.16876 346.30313 501.27814 347.9125Q499.6844 349.24063 499.23126 349.70938Q498.79376 350.17813 498.4969 350.6625L505.5125 350.6625ZM507.27814 345.2875Q507.27814 342.75626 507.79376 341.20938Q508.325 339.64688 509.35626 338.81876Q510.3875 337.975 511.95 337.975Q513.10626 337.975 513.96564 338.44376Q514.84064 338.89688 515.40314 339.77188Q515.96564 340.64688 516.29376 341.9125Q516.6219 343.1625 516.6219 345.2875Q516.6219 347.80313 516.09064 349.35Q515.575 350.89688 514.54376 351.75626Q513.52814 352.6 511.95 352.6Q509.8719 352.6 508.7 351.11563Q507.27814 349.31876 507.27814 345.2875ZM509.09064 345.2875Q509.09064 348.81876 509.90314 349.99063Q510.73126 351.14688 511.95 351.14688Q513.15314 351.14688 513.98126 349.975Q514.8094 348.80313 514.8094 345.2875Q514.8094 341.75626 513.98126 340.6Q513.15314 339.42813 511.9344 339.42813Q510.71564 339.42813 509.9969 340.45938Q509.09064 341.75626 509.09064 345.2875Z" fill-rule="nonzero"/><path fill="#000000" d="M668.1937 348.56876L669.9437 348.33438Q670.2562 349.83438 670.975 350.49063Q671.70935 351.14688 672.7562 351.14688Q673.9906 351.14688 674.83435 350.2875Q675.6937 349.42813 675.6937 348.1625Q675.6937 346.94376 674.89685 346.1625Q674.1156 345.38126 672.89685 345.38126Q672.39685 345.38126 671.6625 345.56876L671.85 344.02188Q672.02185 344.05313 672.1312 344.05313Q673.2562 344.05313 674.14685 343.475Q675.0531 342.88126 675.0531 341.6625Q675.0531 340.69376 674.39685 340.05313Q673.7406 339.4125 672.70935 339.4125Q671.6937 339.4125 671.0062 340.06876Q670.3187 340.70938 670.1312 341.99063L668.3656 341.67813Q668.6937 339.9125 669.83435 338.94376Q670.975 337.975 672.6781 337.975Q673.85 337.975 674.83435 338.475Q675.8187 338.975 676.33435 339.85Q676.8656 340.725 676.8656 341.69376Q676.8656 342.61563 676.3656 343.38126Q675.8656 344.14688 674.89685 344.6Q676.1625 344.88126 676.8656 345.81876Q677.5687 346.74063 677.5687 348.11563Q677.5687 349.99063 676.1937 351.30313Q674.83435 352.6 672.7406 352.6Q670.85 352.6 669.6 351.475Q668.3656 350.35 668.1937 348.56876ZM679.1781 345.2875Q679.1781 342.75626 679.6937 341.20938Q680.225 339.64688 681.2562 338.81876Q682.2875 337.975 683.85 337.975Q685.0062 337.975 685.8656 338.44376Q686.7406 338.89688 687.3031 339.77188Q687.8656 340.64688 688.1937 341.9125Q688.52185 343.1625 688.52185 345.2875Q688.52185 347.80313 687.9906 349.35Q687.475 350.89688 686.4437 351.75626Q685.4281 352.6 683.85 352.6Q681.77185 352.6 680.6 351.11563Q679.1781 349.31876 679.1781 345.2875ZM680.9906 345.2875Q680.9906 348.81876 681.8031 349.99063Q682.6312 351.14688 683.85 351.14688Q685.0531 351.14688 685.8812 349.975Q686.70935 348.80313 686.70935 345.2875Q686.70935 341.75626 685.8812 340.6Q685.0531 339.42813 683.83435 339.42813Q682.6156 339.42813 681.89685 340.45938Q680.9906 341.75626 680.9906 345.2875Z" fill-rule="nonzero"/><path fill="#757575" d="M121.3125 49.65L121.3125 28.181252L129.42188 28.181252Q131.54688 28.181252 132.6875 28.384377Q134.26562 28.650002 135.32812 29.384377Q136.40625 30.118752 137.04688 31.462502Q137.70312 32.790627 137.70312 34.384377Q137.70312 37.11875 135.95312 39.025Q134.21875 40.915627 129.67188 40.915627L124.15625 40.915627L124.15625 49.65L121.3125 49.65ZM124.15625 38.384377L129.70312 38.384377Q132.46875 38.384377 133.625 37.36875Q134.78125 36.3375 134.78125 34.478127Q134.78125 33.11875 134.09375 32.165627Q133.42188 31.212502 132.29688 30.900002Q131.57812 30.712502 129.65625 30.712502L124.15625 30.712502L124.15625 38.384377ZM151.625 44.634377L154.35938 44.978127Q153.70312 47.36875 151.95312 48.696877Q150.21875 50.009377 147.51562 50.009377Q144.09375 50.009377 142.09375 47.9Q140.09375 45.790627 140.09375 42.009377Q140.09375 38.071877 142.10938 35.915627Q144.14062 33.74375 147.35938 33.74375Q150.48438 33.74375 152.45312 35.86875Q154.4375 37.99375 154.4375 41.8375Q154.4375 42.071877 154.42188 42.540627L142.82812 42.540627Q142.96875 45.103127 144.26562 46.478127Q145.57812 47.8375 147.53125 47.8375Q148.96875 47.8375 150.0 47.071877Q151.03125 46.30625 151.625 44.634377ZM142.96875 40.384377L151.65625 40.384377Q151.48438 38.415627 150.65625 37.43125Q149.40625 35.915627 147.39062 35.915627Q145.57812 35.915627 144.34375 37.134377Q143.10938 38.3375 142.96875 40.384377ZM156.95312 49.65L156.95312 34.0875L159.32812 34.0875L159.32812 36.446877Q160.23438 34.790627 161.0 34.275Q161.76562 33.74375 162.6875 33.74375Q164.03125 33.74375 165.40625 34.5875L164.5 37.040627Q163.53125 36.4625 162.5625 36.4625Q161.6875 36.4625 161.0 36.99375Q160.3125 37.509377 160.03125 38.43125Q159.57812 39.8375 159.57812 41.509377L159.57812 49.65L156.95312 49.65ZM167.60938 49.65L167.60938 36.15L165.28125 36.15L165.28125 34.0875L167.60938 34.0875L167.60938 32.43125Q167.60938 30.868752 167.89062 30.103127Q168.26562 29.087502 169.21875 28.446877Q170.1875 27.806252 171.92188 27.806252Q173.03125 27.806252 174.375 28.071877L173.98438 30.368752Q173.15625 30.228127 172.42188 30.228127Q171.21875 30.228127 170.71875 30.743752Q170.23438 31.243752 170.23438 32.65L170.23438 34.0875L173.26562 34.0875L173.26562 36.15L170.23438 36.15L170.23438 49.65L167.60938 49.65ZM174.0 41.86875Q174.0 37.55625 176.40625 35.4625Q178.40625 33.74375 181.29688 33.74375Q184.5 33.74375 186.53125 35.853127Q188.57812 37.946877 188.57812 41.65Q188.57812 44.65 187.67188 46.384377Q186.76562 48.103127 185.04688 49.05625Q183.32812 50.009377 181.29688 50.009377Q178.03125 50.009377 176.01562 47.915627Q174.0 45.80625 174.0 41.86875ZM176.70312 41.86875Q176.70312 44.853127 178.0 46.353127Q179.3125 47.8375 181.29688 47.8375Q183.25 47.8375 184.54688 46.3375Q185.85938 44.8375 185.85938 41.790627Q185.85938 38.9 184.54688 37.415627Q183.23438 35.93125 181.29688 35.93125Q179.3125 35.93125 178.0 37.415627Q176.70312 38.884377 176.70312 41.86875ZM190.95312 49.65L190.95312 34.0875L193.32812 34.0875L193.32812 36.446877Q194.23438 34.790627 195.0 34.275Q195.76562 33.74375 196.6875 33.74375Q198.03125 33.74375 199.40625 34.5875L198.5 37.040627Q197.53125 36.4625 196.5625 36.4625Q195.6875 36.4625 195.0 36.99375Q194.3125 37.509377 194.03125 38.43125Q193.57812 39.8375 193.57812 41.509377L193.57812 49.65L190.95312 49.65ZM200.98438 49.65L200.98438 34.0875L203.34375 34.0875L203.34375 36.275Q204.0625 35.134377 205.28125 34.446877Q206.5 33.74375 208.04688 33.74375Q209.78125 33.74375 210.89062 34.4625Q212.0 35.18125 212.45312 36.4625Q214.29688 33.74375 217.25 33.74375Q219.5625 33.74375 220.8125 35.025Q222.0625 36.30625 222.0625 38.978127L222.0625 49.65L219.4375 49.65L219.4375 39.853127Q219.4375 38.275 219.17188 37.571877Q218.92188 36.86875 218.25 36.446877Q217.57812 36.025 216.67188 36.025Q215.03125 36.025 213.9375 37.11875Q212.85938 38.2125 212.85938 40.61875L212.85938 49.65L210.21875 49.65L210.21875 39.540627Q210.21875 37.790627 209.57812 36.915627Q208.9375 36.025 207.46875 36.025Q206.35938 36.025 205.40625 36.61875Q204.46875 37.196877 204.03125 38.321877Q203.60938 39.446877 203.60938 41.571877L203.60938 49.65L200.98438 49.65ZM236.125 47.728127Q234.67188 48.978127 233.3125 49.49375Q231.95312 50.009377 230.40625 50.009377Q227.84375 50.009377 226.45312 48.759377Q225.07812 47.49375 225.07812 45.540627Q225.07812 44.4 225.59375 43.4625Q226.125 42.509377 226.96875 41.946877Q227.8125 41.36875 228.85938 41.0875Q229.64062 40.86875 231.20312 40.68125Q234.40625 40.30625 235.90625 39.775Q235.92188 39.228127 235.92188 39.0875Q235.92188 37.478127 235.17188 36.821877Q234.17188 35.93125 232.17188 35.93125Q230.3125 35.93125 229.42188 36.5875Q228.54688 37.228127 228.10938 38.884377L225.53125 38.525Q225.89062 36.86875 226.6875 35.853127Q227.5 34.8375 229.01562 34.290627Q230.54688 33.74375 232.5625 33.74375Q234.54688 33.74375 235.78125 34.2125Q237.03125 34.68125 237.60938 35.4Q238.20312 36.103127 238.4375 37.18125Q238.57812 37.853127 238.57812 39.61875L238.57812 43.134377Q238.57812 46.80625 238.73438 47.790627Q238.90625 48.759377 239.40625 49.65L236.65625 49.65Q236.25 48.821877 236.125 47.728127ZM235.90625 41.8375Q234.46875 42.43125 231.60938 42.8375Q229.98438 43.071877 229.29688 43.36875Q228.625 43.665627 228.25 44.228127Q227.89062 44.790627 227.89062 45.478127Q227.89062 46.525 228.6875 47.228127Q229.5 47.93125 231.03125 47.93125Q232.5625 47.93125 233.73438 47.275Q234.92188 46.603127 235.48438 45.446877Q235.90625 44.55625 235.90625 42.80625L235.90625 41.8375ZM241.98438 49.65L241.98438 34.0875L244.34375 34.0875L244.34375 36.30625Q246.0625 33.74375 249.29688 33.74375Q250.70312 33.74375 251.875 34.259377Q253.0625 34.759377 253.64062 35.5875Q254.23438 36.4 254.46875 37.525Q254.625 38.259377 254.625 40.0875L254.625 49.65L251.98438 49.65L251.98438 40.18125Q251.98438 38.571877 251.67188 37.775Q251.375 36.978127 250.57812 36.509377Q249.79688 36.025 248.75 36.025Q247.0625 36.025 245.82812 37.103127Q244.60938 38.165627 244.60938 41.15L244.60938 49.65L241.98438 49.65ZM269.125 43.946877L271.71875 44.290627Q271.29688 46.9625 269.54688 48.49375Q267.79688 50.009377 265.25 50.009377Q262.04688 50.009377 260.10938 47.915627Q258.17188 45.821877 258.17188 41.93125Q258.17188 39.415627 259.0 37.525Q259.84375 35.634377 261.54688 34.696877Q263.25 33.74375 265.26562 33.74375Q267.79688 33.74375 269.40625 35.025Q271.01562 36.30625 271.46875 38.665627L268.90625 39.05625Q268.54688 37.49375 267.60938 36.7125Q266.6875 35.915627 265.35938 35.915627Q263.375 35.915627 262.125 37.3375Q260.875 38.759377 260.875 41.853127Q260.875 44.99375 262.07812 46.415627Q263.28125 47.8375 265.21875 47.8375Q266.76562 47.8375 267.79688 46.884377Q268.84375 45.93125 269.125 43.946877ZM284.625 44.634377L287.35938 44.978127Q286.70312 47.36875 284.95312 48.696877Q283.21875 50.009377 280.51562 50.009377Q277.09375 50.009377 275.09375 47.9Q273.09375 45.790627 273.09375 42.009377Q273.09375 38.071877 275.10938 35.915627Q277.14062 33.74375 280.35938 33.74375Q283.48438 33.74375 285.45312 35.86875Q287.4375 37.99375 287.4375 41.8375Q287.4375 42.071877 287.42188 42.540627L275.82812 42.540627Q275.96875 45.103127 277.26562 46.478127Q278.57812 47.8375 280.53125 47.8375Q281.96875 47.8375 283.0 47.071877Q284.03125 46.30625 284.625 44.634377ZM275.96875 40.384377L284.65625 40.384377Q284.48438 38.415627 283.65625 37.43125Q282.40625 35.915627 280.39062 35.915627Q278.57812 35.915627 277.34375 37.134377Q276.10938 38.3375 275.96875 40.384377ZM308.125 47.728127Q306.67188 48.978127 305.3125 49.49375Q303.95312 50.009377 302.40625 50.009377Q299.84375 50.009377 298.45312 48.759377Q297.07812 47.49375 297.07812 45.540627Q297.07812 44.4 297.59375 43.4625Q298.125 42.509377 298.96875 41.946877Q299.8125 41.36875 300.85938 41.0875Q301.64062 40.86875 303.20312 40.68125Q306.40625 40.30625 307.90625 39.775Q307.92188 39.228127 307.92188 39.0875Q307.92188 37.478127 307.17188 36.821877Q306.17188 35.93125 304.17188 35.93125Q302.3125 35.93125 301.42188 36.5875Q300.54688 37.228127 300.10938 38.884377L297.53125 38.525Q297.89062 36.86875 298.6875 35.853127Q299.5 34.8375 301.01562 34.290627Q302.54688 33.74375 304.5625 33.74375Q306.54688 33.74375 307.78125 34.2125Q309.03125 34.68125 309.60938 35.4Q310.20312 36.103127 310.4375 37.18125Q310.57812 37.853127 310.57812 39.61875L310.57812 43.134377Q310.57812 46.80625 310.73438 47.790627Q310.90625 48.759377 311.40625 49.65L308.65625 49.65Q308.25 48.821877 308.125 47.728127ZM307.90625 41.8375Q306.46875 42.43125 303.60938 42.8375Q301.98438 43.071877 301.29688 43.36875Q300.625 43.665627 300.25 44.228127Q299.89062 44.790627 299.89062 45.478127Q299.89062 46.525 300.6875 47.228127Q301.5 47.93125 303.03125 47.93125Q304.5625 47.93125 305.73438 47.275Q306.92188 46.603127 307.48438 45.446877Q307.90625 44.55625 307.90625 42.80625L307.90625 41.8375ZM313.92188 49.65L313.92188 28.181252L316.5625 28.181252L316.5625 49.65L313.92188 49.65ZM320.5 50.946877L323.0625 51.321877Q323.21875 52.509377 323.95312 53.05625Q324.9375 53.775 326.625 53.775Q328.46875 53.775 329.45312 53.040627Q330.45312 52.321877 330.8125 50.99375Q331.01562 50.196877 331.0 47.61875Q329.26562 49.65 326.6875 49.65Q323.48438 49.65 321.71875 47.3375Q319.96875 45.025 319.96875 41.790627Q319.96875 39.55625 320.76562 37.68125Q321.57812 35.790627 323.10938 34.775Q324.64062 33.74375 326.70312 33.74375Q329.45312 33.74375 331.25 35.9625L331.25 34.0875L333.67188 34.0875L333.67188 47.540627Q333.67188 51.18125 332.9375 52.696877Q332.20312 54.2125 330.59375 55.0875Q328.98438 55.9625 326.64062 55.9625Q323.85938 55.9625 322.14062 54.7125Q320.4375 53.4625 320.5 50.946877ZM322.67188 41.5875Q322.67188 44.65 323.89062 46.05625Q325.10938 47.4625 326.9375 47.4625Q328.75 47.4625 329.98438 46.071877Q331.21875 44.665627 331.21875 41.68125Q331.21875 38.821877 329.95312 37.384377Q328.6875 35.93125 326.89062 35.93125Q325.14062 35.93125 323.90625 37.353127Q322.67188 38.775 322.67188 41.5875ZM337.0 41.86875Q337.0 37.55625 339.40625 35.4625Q341.40625 33.74375 344.29688 33.74375Q347.5 33.74375 349.53125 35.853127Q351.57812 37.946877 351.57812 41.65Q351.57812 44.65 350.67188 46.384377Q349.76562 48.103127 348.04688 49.05625Q346.32812 50.009377 344.29688 50.009377Q341.03125 50.009377 339.01562 47.915627Q337.0 45.80625 337.0 41.86875ZM339.70312 41.86875Q339.70312 44.853127 341.0 46.353127Q342.3125 47.8375 344.29688 47.8375Q346.25 47.8375 347.54688 46.3375Q348.85938 44.8375 348.85938 41.790627Q348.85938 38.9 347.54688 37.415627Q346.23438 35.93125 344.29688 35.93125Q342.3125 35.93125 341.0 37.415627Q339.70312 38.884377 339.70312 41.86875ZM353.95312 49.65L353.95312 34.0875L356.32812 34.0875L356.32812 36.446877Q357.23438 34.790627 358.0 34.275Q358.76562 33.74375 359.6875 33.74375Q361.03125 33.74375 362.40625 34.5875L361.5 37.040627Q360.53125 36.4625 359.5625 36.4625Q358.6875 36.4625 358.0 36.99375Q357.3125 37.509377 357.03125 38.43125Q356.57812 39.8375 356.57812 41.509377L356.57812 49.65L353.95312 49.65ZM364.0 31.212502L364.0 28.181252L366.625 28.181252L366.625 31.212502L364.0 31.212502ZM364.0 49.65L364.0 34.0875L366.625 34.0875L366.625 49.65L364.0 49.65ZM376.73438 47.290627L377.10938 49.61875Q376.0 49.853127 375.125 49.853127Q373.6875 49.853127 372.89062 49.4Q372.10938 48.946877 371.78125 48.2125Q371.46875 47.4625 371.46875 45.0875L371.46875 36.15L369.53125 36.15L369.53125 34.0875L371.46875 34.0875L371.46875 30.243752L374.07812 28.665627L374.07812 34.0875L376.73438 34.0875L376.73438 36.15L374.07812 36.15L374.07812 45.24375Q374.07812 46.36875 374.21875 46.696877Q374.35938 47.009377 374.67188 47.2125Q374.98438 47.4 375.57812 47.4Q376.01562 47.4 376.73438 47.290627ZM378.98438 49.65L378.98438 34.0875L381.34375 34.0875L381.34375 36.275Q382.0625 35.134377 383.28125 34.446877Q384.5 33.74375 386.04688 33.74375Q387.78125 33.74375 388.89062 34.4625Q390.0 35.18125 390.45312 36.4625Q392.29688 33.74375 395.25 33.74375Q397.5625 33.74375 398.8125 35.025Q400.0625 36.30625 400.0625 38.978127L400.0625 49.65L397.4375 49.65L397.4375 39.853127Q397.4375 38.275 397.17188 37.571877Q396.92188 36.86875 396.25 36.446877Q395.57812 36.025 394.67188 36.025Q393.03125 36.025 391.9375 37.11875Q390.85938 38.2125 390.85938 40.61875L390.85938 49.65L388.21875 49.65L388.21875 39.540627Q388.21875 37.790627 387.57812 36.915627Q386.9375 36.025 385.46875 36.025Q384.35938 36.025 383.40625 36.61875Q382.46875 37.196877 382.03125 38.321877Q381.60938 39.446877 381.60938 41.571877L381.60938 49.65L378.98438 49.65ZM403.0 41.86875Q403.0 37.55625 405.40625 35.4625Q407.40625 33.74375 410.29688 33.74375Q413.5 33.74375 415.53125 35.853127Q417.57812 37.946877 417.57812 41.65Q417.57812 44.65 416.67188 46.384377Q415.76562 48.103127 414.04688 49.05625Q412.32812 50.009377 410.29688 50.009377Q407.03125 50.009377 405.01562 47.915627Q403.0 45.80625 403.0 41.86875ZM405.70312 41.86875Q405.70312 44.853127 407.0 46.353127Q408.3125 47.8375 410.29688 47.8375Q412.25 47.8375 413.54688 46.3375Q414.85938 44.8375 414.85938 41.790627Q414.85938 38.9 413.54688 37.415627Q412.23438 35.93125 410.29688 35.93125Q408.3125 35.93125 407.0 37.415627Q405.70312 38.884377 405.70312 41.86875ZM438.07812 49.65L438.07812 47.68125Q436.59375 50.009377 433.71875 50.009377Q431.85938 50.009377 430.29688 48.978127Q428.73438 47.946877 427.875 46.11875Q427.03125 44.275 427.03125 41.884377Q427.03125 39.55625 427.79688 37.665627Q428.57812 35.759377 430.125 34.759377Q431.6875 33.74375 433.60938 33.74375Q435.01562 33.74375 436.10938 34.3375Q437.20312 34.93125 437.89062 35.884377L437.89062 28.181252L440.51562 28.181252L440.51562 49.65L438.07812 49.65ZM429.73438 41.884377Q429.73438 44.86875 430.98438 46.353127Q432.25 47.8375 433.96875 47.8375Q435.70312 47.8375 436.90625 46.43125Q438.10938 45.009377 438.10938 42.103127Q438.10938 38.915627 436.875 37.43125Q435.65625 35.93125 433.85938 35.93125Q432.09375 35.93125 430.90625 37.36875Q429.73438 38.790627 429.73438 41.884377ZM455.625 44.634377L458.35938 44.978127Q457.70312 47.36875 455.95312 48.696877Q454.21875 50.009377 451.51562 50.009377Q448.09375 50.009377 446.09375 47.9Q444.09375 45.790627 444.09375 42.009377Q444.09375 38.071877 446.10938 35.915627Q448.14062 33.74375 451.35938 33.74375Q454.48438 33.74375 456.45312 35.86875Q458.4375 37.99375 458.4375 41.8375Q458.4375 42.071877 458.42188 42.540627L446.82812 42.540627Q446.96875 45.103127 448.26562 46.478127Q449.57812 47.8375 451.53125 47.8375Q452.96875 47.8375 454.0 47.071877Q455.03125 46.30625 455.625 44.634377ZM446.96875 40.384377L455.65625 40.384377Q455.48438 38.415627 454.65625 37.43125Q453.40625 35.915627 451.39062 35.915627Q449.57812 35.915627 448.34375 37.134377Q447.10938 38.3375 446.96875 40.384377ZM469.20312 49.65L469.20312 28.181252L472.04688 28.181252L472.04688 47.11875L482.60938 47.11875L482.60938 49.65L469.20312 49.65ZM496.125 47.728127Q494.67188 48.978127 493.3125 49.49375Q491.95312 50.009377 490.40625 50.009377Q487.84375 50.009377 486.45312 48.759377Q485.07812 47.49375 485.07812 45.540627Q485.07812 44.4 485.59375 43.4625Q486.125 42.509377 486.96875 41.946877Q487.8125 41.36875 488.85938 41.0875Q489.64062 40.86875 491.20312 40.68125Q494.40625 40.30625 495.90625 39.775Q495.92188 39.228127 495.92188 39.0875Q495.92188 37.478127 495.17188 36.821877Q494.17188 35.93125 492.17188 35.93125Q490.3125 35.93125 489.42188 36.5875Q488.54688 37.228127 488.10938 38.884377L485.53125 38.525Q485.89062 36.86875 486.6875 35.853127Q487.5 34.8375 489.01562 34.290627Q490.54688 33.74375 492.5625 33.74375Q494.54688 33.74375 495.78125 34.2125Q497.03125 34.68125 497.60938 35.4Q498.20312 36.103127 498.4375 37.18125Q498.57812 37.853127 498.57812 39.61875L498.57812 43.134377Q498.57812 46.80625 498.73438 47.790627Q498.90625 48.759377 499.40625 49.65L496.65625 49.65Q496.25 48.821877 496.125 47.728127ZM495.90625 41.8375Q494.46875 42.43125 491.60938 42.8375Q489.98438 43.071877 489.29688 43.36875Q488.625 43.665627 488.25 44.228127Q487.89062 44.790627 487.89062 45.478127Q487.89062 46.525 488.6875 47.228127Q489.5 47.93125 491.03125 47.93125Q492.5625 47.93125 493.73438 47.275Q494.92188 46.603127 495.48438 45.446877Q495.90625 44.55625 495.90625 42.80625L495.90625 41.8375ZM504.40625 49.65L501.96875 49.65L501.96875 28.181252L504.59375 28.181252L504.59375 35.8375Q506.26562 33.74375 508.85938 33.74375Q510.29688 33.74375 511.57812 34.321877Q512.8594 34.9 513.6875 35.946877Q514.5156 36.99375 514.9844 38.478127Q515.4531 39.946877 515.4531 41.634377Q515.4531 45.634377 513.46875 47.821877Q511.5 50.009377 508.73438 50.009377Q505.98438 50.009377 504.40625 47.696877L504.40625 49.65ZM504.375 41.759377Q504.375 44.55625 505.14062 45.790627Q506.39062 47.8375 508.51562 47.8375Q510.23438 47.8375 511.5 46.3375Q512.7656 44.8375 512.7656 41.853127Q512.7656 38.80625 511.54688 37.36875Q510.34375 35.915627 508.625 35.915627Q506.90625 35.915627 505.64062 37.415627Q504.375 38.915627 504.375 41.759377ZM529.625 44.634377L532.3594 44.978127Q531.7031 47.36875 529.9531 48.696877Q528.21875 50.009377 525.5156 50.009377Q522.09375 50.009377 520.09375 47.9Q518.09375 45.790627 518.09375 42.009377Q518.09375 38.071877 520.1094 35.915627Q522.1406 33.74375 525.3594 33.74375Q528.4844 33.74375 530.4531 35.86875Q532.4375 37.99375 532.4375 41.8375Q532.4375 42.071877 532.4219 42.540627L520.8281 42.540627Q520.96875 45.103127 522.2656 46.478127Q523.5781 47.8375 525.53125 47.8375Q526.96875 47.8375 528.0 47.071877Q529.03125 46.30625 529.625 44.634377ZM520.96875 40.384377L529.65625 40.384377Q529.4844 38.415627 528.65625 37.43125Q527.40625 35.915627 525.3906 35.915627Q523.5781 35.915627 522.34375 37.134377Q521.1094 38.3375 520.96875 40.384377ZM534.9219 49.65L534.9219 28.181252L537.5625 28.181252L537.5625 49.65L534.9219 49.65ZM542.0 31.212502L542.0 28.181252L544.625 28.181252L544.625 31.212502L542.0 31.212502ZM542.0 49.65L542.0 34.0875L544.625 34.0875L544.625 49.65L542.0 49.65ZM548.9844 49.65L548.9844 34.0875L551.34375 34.0875L551.34375 36.30625Q553.0625 33.74375 556.2969 33.74375Q557.7031 33.74375 558.875 34.259377Q560.0625 34.759377 560.6406 35.5875Q561.2344 36.4 561.46875 37.525Q561.625 38.259377 561.625 40.0875L561.625 49.65L558.9844 49.65L558.9844 40.18125Q558.9844 38.571877 558.6719 37.775Q558.375 36.978127 557.5781 36.509377Q556.7969 36.025 555.75 36.025Q554.0625 36.025 552.8281 37.103127Q551.6094 38.165627 551.6094 41.15L551.6094 49.65L548.9844 49.65ZM565.5 50.946877L568.0625 51.321877Q568.21875 52.509377 568.9531 53.05625Q569.9375 53.775 571.625 53.775Q573.46875 53.775 574.4531 53.040627Q575.4531 52.321877 575.8125 50.99375Q576.0156 50.196877 576.0 47.61875Q574.2656 49.65 571.6875 49.65Q568.4844 49.65 566.71875 47.3375Q564.96875 45.025 564.96875 41.790627Q564.96875 39.55625 565.7656 37.68125Q566.5781 35.790627 568.1094 34.775Q569.6406 33.74375 571.7031 33.74375Q574.4531 33.74375 576.25 35.9625L576.25 34.0875L578.6719 34.0875L578.6719 47.540627Q578.6719 51.18125 577.9375 52.696877Q577.2031 54.2125 575.59375 55.0875Q573.9844 55.9625 571.6406 55.9625Q568.8594 55.9625 567.1406 54.7125Q565.4375 53.4625 565.5 50.946877ZM567.6719 41.5875Q567.6719 44.65 568.8906 46.05625Q570.1094 47.4625 571.9375 47.4625Q573.75 47.4625 574.9844 46.071877Q576.21875 44.665627 576.21875 41.68125Q576.21875 38.821877 574.9531 37.384377Q573.6875 35.93125 571.8906 35.93125Q570.1406 35.93125 568.90625 37.353127Q567.6719 38.775 567.6719 41.5875Z" fill-rule="nonzero"/></svg>