<svg version="1.1" viewBox="0.0 0.0 700.0 433.0" fill="none" stroke="none" stroke-linecap="square" stroke-miterlimit="10" width="700" height="433" xmlns:xlink="http://www.w3.org/1999/xlink" xmlns="http://www.w3.org/2000/svg"><path fill="#ffffff" d="M0 0L700.0 0L700.0 433.0L0 433.0L0 0Z" fill-rule="nonzero"/><path stroke="#333333" stroke-width="1.0" stroke-linecap="butt" d="M162.5 83.5L162.5 323.5" fill-rule="nonzero"/><path stroke="#cccccc" stroke-width="1.0" stroke-linecap="butt" d="M291.5 83.5L291.5 323.5" fill-rule="nonzero"/><path stroke="#cccccc" stroke-width="1.0" stroke-linecap="butt" d="M420.5 83.5L420.5 323.5" fill-rule="nonzero"/><path stroke="#cccccc" stroke-width="1.0" stroke-linecap="butt" d="M549.5 83.5L549.5 323.5" fill-rule="nonzero"/><path stroke="#cccccc" stroke-width="1.0" stroke-linecap="butt" d="M678.5 83.5L678.5 323.5" fill-rule="nonzero"/><path stroke="#cccccc" stroke-width="1.0" stroke-linecap="butt" d="M162.5 323.5L678.5 323.5" fill-rule="nonzero"/><path stroke="#cccccc" stroke-width="1.0" stroke-linecap="butt" d="M162.5 285.5L678.5 285.5" fill-rule="nonzero"/><path stroke="#cccccc" stroke-width="1.0" stroke-linecap="butt" d="M162.5 247.5L678.5 247.5" fill-rule="nonzero"/><path stroke="#cccccc" stroke-width="1.0" stroke-linecap="butt" d="M162.5 208.5L678.5 208.5" fill-rule="nonzero"/><path stroke="#cccccc" stroke-width="1.0" stroke-linecap="butt" d="M162.5 170.5L678.5 170.5" fill-rule="nonzero"/><path stroke="#cccccc" stroke-width="1.0" stroke-linecap="butt" d="M162.5 132.5L678.5 132.5" fill-rule="nonzero"/><path stroke="#cccccc" stroke-width="1.0" stroke-linecap="butt" d="M162.5 94.5L678.5 94.5" fill-rule="nonzero"/><clipPath id="id_0"><path d="M162.65 83.083336L678.35 83.083336L678.35 323.35L162.65 323.35L162.65 83.083336Z" clip-rule="nonzero"/></clipPath><path fill="#4285f4" clip-path="url(#id_0)" d="M192.935 276.43134C192.935 278.91663 190.92029 280.93134 188.435 280.93134C185.94972 280.93134 183.935 278.91663 183.935 276.43134C183.935 273.94608 185.94972 271.93134 188.435 271.93134C190.92029 271.93134 192.935 273.94608 192.935 276.43134Z" fill-rule="nonzero"/><path fill="#4285f4" clip-path="url(#id_0)" d="M218.72 253.96837C218.72 256.45364 216.70528 258.46835 214.22 258.46835C211.73473 258.46835 209.72 256.45364 209.72 253.96837C209.72 251.48308 211.73473 249.46837 214.22 249.46837C216.70528 249.46837 218.72 251.48308 218.72 253.96837Z" fill-rule="nonzero"/><path fill="#4285f4" clip-path="url(#id_0)" d="M218.72 268.7702C218.72 271.25546 216.70528 273.2702 214.22 273.2702C211.73473 273.2702 209.72 271.25546 209.72 268.7702C209.72 266.2849 211.73473 264.2702 214.22 264.2702C216.70528 264.2702 218.72 266.2849 218.72 268.7702Z" fill-rule="nonzero"/><path fill="#4285f4" clip-path="url(#id_0)" d="M244.505 252.75905C244.505 255.24434 242.49028 257.25906 240.005 257.25906C237.51971 257.25906 235.505 255.24434 235.505 252.75905C235.505 250.27377 237.51971 248.25905 240.005 248.25905C242.49028 248.25905 244.505 250.27377 244.505 252.75905Z" fill-rule="nonzero"/><path fill="#4285f4" clip-path="url(#id_0)" d="M244.505 261.85242C244.505 264.33768 242.49028 266.35242 240.005 266.35242C237.51971 266.35242 235.505 264.33768 235.505 261.85242C235.505 259.36713 237.51971 257.35242 240.005 257.35242C242.49028 257.35242 244.505 259.36713 244.505 261.85242Z" fill-rule="nonzero"/><path fill="#4285f4" clip-path="url(#id_0)" d="M244.505 255.82506C244.505 258.31033 242.49028 260.32504 240.005 260.32504C237.51971 260.32504 235.505 258.31033 235.505 255.82506C235.505 253.33977 237.51971 251.32506 240.005 251.32506C242.49028 251.32506 244.505 253.33977 244.505 255.82506Z" fill-rule="nonzero"/><path fill="#4285f4" clip-path="url(#id_0)" d="M270.29 243.93062C270.29 246.4159 268.27527 248.43062 265.79 248.43062C263.30472 248.43062 261.29 246.4159 261.29 243.93062C261.29 241.44534 263.30472 239.43062 265.79 239.43062C268.27527 239.43062 270.29 241.44534 270.29 243.93062Z" fill-rule="nonzero"/><path fill="#4285f4" clip-path="url(#id_0)" d="M347.645 227.36597C347.645 229.85124 345.63028 231.86597 343.145 231.86597C340.65973 231.86597 338.645 229.85124 338.645 227.36597C338.645 224.88069 340.65973 222.86597 343.145 222.86597C345.63028 222.86597 347.645 224.88069 347.645 227.36597Z" fill-rule="nonzero"/><path fill="#4285f4" clip-path="url(#id_0)" d="M218.72 280.87387C218.72 283.35913 216.70528 285.37387 214.22 285.37387C211.73473 285.37387 209.72 283.35913 209.72 280.87387C209.72 278.38858 211.73473 276.37387 214.22 276.37387C216.70528 276.37387 218.72 278.38858 218.72 280.87387Z" fill-rule="nonzero"/><path fill="#4285f4" clip-path="url(#id_0)" d="M399.215 210.5725C399.215 213.05777 397.2003 215.0725 394.715 215.0725C392.2297 215.0725 390.215 213.05777 390.215 210.5725C390.215 208.08722 392.2297 206.0725 394.715 206.0725C397.2003 206.0725 399.215 208.08722 399.215 210.5725Z" fill-rule="nonzero"/><path fill="#4285f4" clip-path="url(#id_0)" d="M218.72 253.474C218.72 255.95927 216.70528 257.974 214.22 257.974C211.73473 257.974 209.72 255.95927 209.72 253.474C209.72 250.98871 211.73473 248.974 214.22 248.974C216.70528 248.974 218.72 250.98871 218.72 253.474Z" fill-rule="nonzero"/><path fill="#4285f4" clip-path="url(#id_0)" d="M425.0 201.37047C425.0 203.85574 422.9853 205.87047 420.5 205.87047C418.0147 205.87047 416.0 203.85574 416.0 201.37047C416.0 198.8852 418.0147 196.87047 420.5 196.87047C422.9853 196.87047 425.0 198.8852 425.0 201.37047Z" fill-rule="nonzero"/><path fill="#4285f4" clip-path="url(#id_0)" d="M244.505 234.33417C244.505 236.81944 242.49028 238.83417 240.005 238.83417C237.51971 238.83417 235.505 236.81944 235.505 234.33417C235.505 231.84889 237.51971 229.83417 240.005 229.83417C242.49028 229.83417 244.505 231.84889 244.505 234.33417Z" fill-rule="nonzero"/><path fill="#4285f4" clip-path="url(#id_0)" d="M244.505 232.24791C244.505 234.7332 242.49028 236.74791 240.005 236.74791C237.51971 236.74791 235.505 234.7332 235.505 232.24791C235.505 229.76263 237.51971 227.74791 240.005 227.74791C242.49028 227.74791 244.505 229.76263 244.505 232.24791Z" fill-rule="nonzero"/><path fill="#4285f4" clip-path="url(#id_0)" d="M450.785 161.69414C450.785 164.17941 448.7703 166.19414 446.285 166.19414C443.7997 166.19414 441.785 164.17941 441.785 161.69414C441.785 159.20886 443.7997 157.19414 446.285 157.19414C448.7703 157.19414 450.785 159.20886 450.785 161.69414Z" fill-rule="nonzero"/><path fill="#4285f4" clip-path="url(#id_0)" d="M476.57 170.921C476.57 173.40628 474.55527 175.421 472.07 175.421C469.58472 175.421 467.57 173.40628 467.57 170.921C467.57 168.43571 469.58472 166.421 472.07 166.421C474.55527 166.421 476.57 168.43571 476.57 170.921Z" fill-rule="nonzero"/><path fill="#4285f4" clip-path="url(#id_0)" d="M270.29 182.62778C270.29 185.11305 268.27527 187.12778 265.79 187.12778C263.30472 187.12778 261.29 185.11305 261.29 182.62778C261.29 180.14249 263.30472 178.12778 265.79 178.12778C268.27527 178.12778 270.29 180.14249 270.29 182.62778Z" fill-rule="nonzero"/><path fill="#4285f4" clip-path="url(#id_0)" d="M218.72 271.4255C218.72 273.9108 216.70528 275.9255 214.22 275.9255C211.73473 275.9255 209.72 273.9108 209.72 271.4255C209.72 268.94022 211.73473 266.9255 214.22 266.9255C216.70528 266.9255 218.72 268.94022 218.72 271.4255Z" fill-rule="nonzero"/><path fill="#4285f4" clip-path="url(#id_0)" d="M502.355 154.8648C502.355 157.35008 500.34027 159.3648 497.855 159.3648C495.36972 159.3648 493.355 157.35008 493.355 154.8648C493.355 152.37953 495.36972 150.3648 497.855 150.3648C500.34027 150.3648 502.355 152.37953 502.355 154.8648Z" fill-rule="nonzero"/><path fill="#4285f4" clip-path="url(#id_0)" d="M373.43 190.70763C373.43 193.1929 371.41528 195.20763 368.93 195.20763C366.44473 195.20763 364.43 193.1929 364.43 190.70763C364.43 188.22235 366.44473 186.20763 368.93 186.20763C371.41528 186.20763 373.43 188.22235 373.43 190.70763Z" fill-rule="nonzero"/><path fill="#4285f4" clip-path="url(#id_0)" d="M502.355 144.45293C502.355 146.9382 500.34027 148.95293 497.855 148.95293C495.36972 148.95293 493.355 146.9382 493.355 144.45293C493.355 141.96765 495.36972 139.95293 497.855 139.95293C500.34027 139.95293 502.355 141.96765 502.355 144.45293Z" fill-rule="nonzero"/><path fill="#4285f4" clip-path="url(#id_0)" d="M373.43 182.53683C373.43 185.02211 371.41528 187.03683 368.93 187.03683C366.44473 187.03683 364.43 185.02211 364.43 182.53683C364.43 180.05154 366.44473 178.03683 368.93 178.03683C371.41528 178.03683 373.43 180.05154 373.43 182.53683Z" fill-rule="nonzero"/><path fill="#4285f4" clip-path="url(#id_0)" d="M244.505 229.86012C244.505 232.3454 242.49028 234.36012 240.005 234.36012C237.51971 234.36012 235.505 232.3454 235.505 229.86012C235.505 227.37483 237.51971 225.36012 240.005 225.36012C242.49028 225.36012 244.505 227.37483 244.505 229.86012Z" fill-rule="nonzero"/><path fill="#4285f4" clip-path="url(#id_0)" d="M528.14 164.58379C528.14 167.06906 526.1253 169.08379 523.64 169.08379C521.1547 169.08379 519.14 167.06906 519.14 164.58379C519.14 162.09851 521.1547 160.08379 523.64 160.08379C526.1253 160.08379 528.14 162.09851 528.14 164.58379Z" fill-rule="nonzero"/><path fill="#4285f4" clip-path="url(#id_0)" d="M270.29 174.78499C270.29 177.27026 268.27527 179.28499 265.79 179.28499C263.30472 179.28499 261.29 177.27026 261.29 174.78499C261.29 172.2997 263.30472 170.28499 265.79 170.28499C268.27527 170.28499 270.29 172.2997 270.29 174.78499Z" fill-rule="nonzero"/><path fill="#4285f4" clip-path="url(#id_0)" d="M399.215 134.38412C399.215 136.8694 397.2003 138.88412 394.715 138.88412C392.2297 138.88412 390.215 136.8694 390.215 134.38412C390.215 131.89885 392.2297 129.88412 394.715 129.88412C397.2003 129.88412 399.215 131.89885 399.215 134.38412Z" fill-rule="nonzero"/><path fill="#4285f4" clip-path="url(#id_0)" d="M296.075 168.40825C296.075 170.89354 294.06027 172.90825 291.575 172.90825C289.08972 172.90825 287.075 170.89354 287.075 168.40825C287.075 165.92297 289.08972 163.90825 291.575 163.90825C294.06027 163.90825 296.075 165.92297 296.075 168.40825Z" fill-rule="nonzero"/><path fill="#4285f4" clip-path="url(#id_0)" d="M425.0 104.43516C425.0 106.92044 422.9853 108.93516 420.5 108.93516C418.0147 108.93516 416.0 106.92044 416.0 104.43516C416.0 101.949875 418.0147 99.93516 420.5 99.93516C422.9853 99.93516 425.0 101.949875 425.0 104.43516Z" fill-rule="nonzero"/><path fill="#4285f4" clip-path="url(#id_0)" d="M553.925 147.52884C553.925 150.01411 551.9103 152.02884 549.425 152.02884C546.9397 152.02884 544.925 150.01411 544.925 147.52884C544.925 145.04355 546.9397 143.02884 549.425 143.02884C551.9103 143.02884 553.925 145.04355 553.925 147.52884Z" fill-rule="nonzero"/><path fill="#4285f4" clip-path="url(#id_0)" d="M296.075 214.55789C296.075 217.04318 294.06027 219.05789 291.575 219.05789C289.08972 219.05789 287.075 217.04318 287.075 214.55789C287.075 212.07262 289.08972 210.05789 291.575 210.05789C294.06027 210.05789 296.075 212.07262 296.075 214.55789Z" fill-rule="nonzero"/><path fill="#4285f4" clip-path="url(#id_0)" d="M605.495 149.31126C605.495 151.79654 603.4803 153.81126 600.995 153.81126C598.5097 153.81126 596.495 151.79654 596.495 149.31126C596.495 146.82597 598.5097 144.81126 600.995 144.81126C603.4803 144.81126 605.495 146.82597 605.495 149.31126Z" fill-rule="nonzero"/><path fill="#4285f4" clip-path="url(#id_0)" d="M425.0 121.8781C425.0 124.36338 422.9853 126.3781 420.5 126.3781C418.0147 126.3781 416.0 124.36338 416.0 121.8781C416.0 119.392815 418.0147 117.3781 420.5 117.3781C422.9853 117.3781 425.0 119.392815 425.0 121.8781Z" fill-rule="nonzero"/><path fill="#4285f4" clip-path="url(#id_0)" d="M553.925 158.57434C553.925 161.05962 551.9103 163.07434 549.425 163.07434C546.9397 163.07434 544.925 161.05962 544.925 158.57434C544.925 156.08905 546.9397 154.07434 549.425 154.07434C551.9103 154.07434 553.925 156.08905 553.925 158.57434Z" fill-rule="nonzero"/><path fill="#4285f4" clip-path="url(#id_0)" d="M425.0 118.937584C425.0 121.42287 422.9853 123.437584 420.5 123.437584C418.0147 123.437584 416.0 121.42287 416.0 118.937584C416.0 116.45231 418.0147 114.437584 420.5 114.437584C422.9853 114.437584 425.0 116.45231 425.0 118.937584Z" fill-rule="nonzero"/><path fill="#4285f4" clip-path="url(#id_0)" d="M296.075 206.77162C296.075 209.25691 294.06027 211.27162 291.575 211.27162C289.08972 211.27162 287.075 209.25691 287.075 206.77162C287.075 204.28635 289.08972 202.27162 291.575 202.27162C294.06027 202.27162 296.075 204.28635 296.075 206.77162Z" fill-rule="nonzero"/><path fill="#4285f4" clip-path="url(#id_0)" d="M425.0 146.40756C425.0 148.89285 422.9853 150.90756 420.5 150.90756C418.0147 150.90756 416.0 148.89285 416.0 146.40756C416.0 143.92229 418.0147 141.90756 420.5 141.90756C422.9853 141.90756 425.0 143.92229 425.0 146.40756Z" fill-rule="nonzero"/><path fill="#4285f4" clip-path="url(#id_0)" d="M553.925 110.026085C553.925 112.51137 551.9103 114.526085 549.425 114.526085C546.9397 114.526085 544.925 112.51137 544.925 110.026085C544.925 107.5408 546.9397 105.526085 549.425 105.526085C551.9103 105.526085 553.925 107.5408 553.925 110.026085Z" fill-rule="nonzero"/><path fill="#000000" d="M341.26562 401.33438L343.15625 401.80313Q342.5625 404.14688 341.01562 405.38126Q339.46875 406.6 337.21875 406.6Q334.90625 406.6 333.45312 405.6625Q332.01562 404.70938 331.25 402.92813Q330.5 401.13126 330.5 399.08438Q330.5 396.85 331.34375 395.19376Q332.20312 393.52188 333.78125 392.6625Q335.35938 391.7875 337.25 391.7875Q339.40625 391.7875 340.85938 392.88126Q342.32812 393.975 342.90625 395.95938L341.04688 396.39688Q340.54688 394.83438 339.59375 394.13126Q338.65625 393.4125 337.21875 393.4125Q335.5625 393.4125 334.45312 394.20938Q333.34375 394.99063 332.89062 396.33438Q332.45312 397.6625 332.45312 399.06876Q332.45312 400.89688 332.98438 402.27188Q333.51562 403.63126 334.64062 404.30313Q335.76562 404.975 337.0625 404.975Q338.65625 404.975 339.76562 404.05313Q340.875 403.13126 341.26562 401.33438ZM351.59375 405.06876Q350.60938 405.89688 349.70312 406.24063Q348.79688 406.58438 347.76562 406.58438Q346.0625 406.58438 345.14062 405.75626Q344.21875 404.9125 344.21875 403.61563Q344.21875 402.85 344.5625 402.225Q344.92188 401.6 345.48438 401.225Q346.04688 400.83438 346.75 400.63126Q347.26562 400.50626 348.3125 400.36563Q350.4375 400.11563 351.4375 399.77188Q351.45312 399.4125 351.45312 399.30313Q351.45312 398.24063 350.95312 397.7875Q350.28125 397.19376 348.95312 397.19376Q347.70312 397.19376 347.10938 397.63126Q346.53125 398.06876 346.25 399.17813L344.53125 398.94376Q344.76562 397.83438 345.29688 397.1625Q345.82812 396.475 346.84375 396.11563Q347.85938 395.74063 349.20312 395.74063Q350.53125 395.74063 351.35938 396.05313Q352.1875 396.36563 352.57812 396.85Q352.96875 397.31876 353.125 398.0375Q353.21875 398.49063 353.21875 399.6625L353.21875 402.00626Q353.21875 404.45938 353.32812 405.11563Q353.4375 405.75626 353.78125 406.35L351.9375 406.35Q351.67188 405.80313 351.59375 405.06876ZM351.4375 401.14688Q350.48438 401.5375 348.5625 401.80313Q347.48438 401.95938 347.03125 402.1625Q346.59375 402.35 346.34375 402.725Q346.09375 403.1 346.09375 403.56876Q346.09375 404.27188 346.625 404.74063Q347.15625 405.20938 348.1875 405.20938Q349.20312 405.20938 349.98438 404.77188Q350.78125 404.31876 351.15625 403.55313Q351.4375 402.94376 351.4375 401.7875L351.4375 401.14688ZM355.8125 406.35L355.8125 395.975L357.40625 395.975L357.40625 397.45938Q358.54688 395.74063 360.70312 395.74063Q361.64062 395.74063 362.42188 396.08438Q363.21875 396.4125 363.60938 396.95938Q364.0 397.50626 364.15625 398.25626Q364.25 398.75626 364.25 399.975L364.25 406.35L362.48438 406.35L362.48438 400.0375Q362.48438 398.95938 362.28125 398.42813Q362.07812 397.89688 361.54688 397.58438Q361.03125 397.27188 360.32812 397.27188Q359.20312 397.27188 358.39062 397.99063Q357.57812 398.69376 357.57812 400.67813L357.57812 406.35L355.8125 406.35ZM369.65625 404.77188L369.90625 406.33438Q369.17188 406.49063 368.57812 406.49063Q367.625 406.49063 367.09375 406.19376Q366.57812 405.88126 366.35938 405.39688Q366.14062 404.89688 366.14062 403.31876L366.14062 397.35L364.85938 397.35L364.85938 395.975L366.14062 395.975L366.14062 393.4125L367.89062 392.35L367.89062 395.975L369.65625 395.975L369.65625 397.35L367.89062 397.35L367.89062 403.4125Q367.89062 404.1625 367.98438 404.38126Q368.07812 404.58438 368.28125 404.725Q368.5 404.85 368.89062 404.85Q369.17188 404.85 369.65625 404.77188ZM371.82812 394.05313L371.82812 392.0375L373.59375 392.0375L373.59375 394.05313L371.82812 394.05313ZM371.82812 406.35L371.82812 395.975L373.59375 395.975L373.59375 406.35L371.82812 406.35ZM382.54688 406.35L382.54688 405.0375Q381.5625 406.58438 379.64062 406.58438Q378.40625 406.58438 377.35938 405.89688Q376.32812 405.20938 375.75 403.99063Q375.1875 402.77188 375.1875 401.17813Q375.1875 399.61563 375.70312 398.35Q376.21875 397.08438 377.25 396.4125Q378.29688 395.74063 379.5625 395.74063Q380.5 395.74063 381.23438 396.14688Q381.96875 396.5375 382.4375 397.1625L382.4375 392.0375L384.17188 392.0375L384.17188 406.35L382.54688 406.35ZM376.98438 401.17813Q376.98438 403.1625 377.82812 404.14688Q378.67188 405.13126 379.8125 405.13126Q380.96875 405.13126 381.76562 404.19376Q382.57812 403.25626 382.57812 401.31876Q382.57812 399.19376 381.75 398.19376Q380.9375 397.19376 379.73438 397.19376Q378.5625 397.19376 377.76562 398.1625Q376.98438 399.11563 376.98438 401.17813ZM393.59375 405.06876Q392.60938 405.89688 391.70312 406.24063Q390.79688 406.58438 389.76562 406.58438Q388.0625 406.58438 387.14062 405.75626Q386.21875 404.9125 386.21875 403.61563Q386.21875 402.85 386.5625 402.225Q386.92188 401.6 387.48438 401.225Q388.04688 400.83438 388.75 400.63126Q389.26562 400.50626 390.3125 400.36563Q392.4375 400.11563 393.4375 399.77188Q393.45312 399.4125 393.45312 399.30313Q393.45312 398.24063 392.95312 397.7875Q392.28125 397.19376 390.95312 397.19376Q389.70312 397.19376 389.10938 397.63126Q388.53125 398.06876 388.25 399.17813L386.53125 398.94376Q386.76562 397.83438 387.29688 397.1625Q387.82812 396.475 388.84375 396.11563Q389.85938 395.74063 391.20312 395.74063Q392.53125 395.74063 393.35938 396.05313Q394.1875 396.36563 394.57812 396.85Q394.96875 397.31876 395.125 398.0375Q395.21875 398.49063 395.21875 399.6625L395.21875 402.00626Q395.21875 404.45938 395.32812 405.11563Q395.4375 405.75626 395.78125 406.35L393.9375 406.35Q393.67188 405.80313 393.59375 405.06876ZM393.4375 401.14688Q392.48438 401.5375 390.5625 401.80313Q389.48438 401.95938 389.03125 402.1625Q388.59375 402.35 388.34375 402.725Q388.09375 403.1 388.09375 403.56876Q388.09375 404.27188 388.625 404.74063Q389.15625 405.20938 390.1875 405.20938Q391.20312 405.20938 391.98438 404.77188Q392.78125 404.31876 393.15625 403.55313Q393.4375 402.94376 393.4375 401.7875L393.4375 401.14688ZM404.54688 406.35L404.54688 405.0375Q403.5625 406.58438 401.64062 406.58438Q400.40625 406.58438 399.35938 405.89688Q398.32812 405.20938 397.75 403.99063Q397.1875 402.77188 397.1875 401.17813Q397.1875 399.61563 397.70312 398.35Q398.21875 397.08438 399.25 396.4125Q400.29688 395.74063 401.5625 395.74063Q402.5 395.74063 403.23438 396.14688Q403.96875 396.5375 404.4375 397.1625L404.4375 392.0375L406.17188 392.0375L406.17188 406.35L404.54688 406.35ZM398.98438 401.17813Q398.98438 403.1625 399.82812 404.14688Q400.67188 405.13126 401.8125 405.13126Q402.96875 405.13126 403.76562 404.19376Q404.57812 403.25626 404.57812 401.31876Q404.57812 399.19376 403.75 398.19376Q402.9375 397.19376 401.73438 397.19376Q400.5625 397.19376 399.76562 398.1625Q398.98438 399.11563 398.98438 401.17813ZM421.54688 406.35L421.54688 405.0375Q420.5625 406.58438 418.64062 406.58438Q417.40625 406.58438 416.35938 405.89688Q415.32812 405.20938 414.75 403.99063Q414.1875 402.77188 414.1875 401.17813Q414.1875 399.61563 414.70312 398.35Q415.21875 397.08438 416.25 396.4125Q417.29688 395.74063 418.5625 395.74063Q419.5 395.74063 420.23438 396.14688Q420.96875 396.5375 421.4375 397.1625L421.4375 392.0375L423.17188 392.0375L423.17188 406.35L421.54688 406.35ZM415.98438 401.17813Q415.98438 403.1625 416.82812 404.14688Q417.67188 405.13126 418.8125 405.13126Q419.96875 405.13126 420.76562 404.19376Q421.57812 403.25626 421.57812 401.31876Q421.57812 399.19376 420.75 398.19376Q419.9375 397.19376 418.73438 397.19376Q417.5625 397.19376 416.76562 398.1625Q415.98438 399.11563 415.98438 401.17813ZM432.92188 403.00626L434.73438 403.24063Q434.3125 404.81876 433.14062 405.70938Q431.98438 406.58438 430.17188 406.58438Q427.90625 406.58438 426.5625 405.19376Q425.23438 403.7875 425.23438 401.25626Q425.23438 398.63126 426.57812 397.19376Q427.92188 395.74063 430.07812 395.74063Q432.15625 395.74063 433.46875 397.1625Q434.79688 398.56876 434.79688 401.14688Q434.79688 401.30313 434.78125 401.61563L427.04688 401.61563Q427.14062 403.31876 428.01562 404.225Q428.89062 405.13126 430.1875 405.13126Q431.15625 405.13126 431.82812 404.63126Q432.51562 404.11563 432.92188 403.00626ZM427.14062 400.1625L432.9375 400.1625Q432.82812 398.86563 432.28125 398.20938Q431.4375 397.19376 430.09375 397.19376Q428.89062 397.19376 428.0625 398.00626Q427.23438 398.80313 427.14062 400.1625ZM453.26562 401.33438L455.15625 401.80313Q454.5625 404.14688 453.01562 405.38126Q451.46875 406.6 449.21875 406.6Q446.90625 406.6 445.45312 405.6625Q444.01562 404.70938 443.25 402.92813Q442.5 401.13126 442.5 399.08438Q442.5 396.85 443.34375 395.19376Q444.20312 393.52188 445.78125 392.6625Q447.35938 391.7875 449.25 391.7875Q451.40625 391.7875 452.85938 392.88126Q454.32812 393.975 454.90625 395.95938L453.04688 396.39688Q452.54688 394.83438 451.59375 394.13126Q450.65625 393.4125 449.21875 393.4125Q447.5625 393.4125 446.45312 394.20938Q445.34375 394.99063 444.89062 396.33438Q444.45312 397.6625 444.45312 399.06876Q444.45312 400.89688 444.98438 402.27188Q445.51562 403.63126 446.64062 404.30313Q447.76562 404.975 449.0625 404.975Q450.65625 404.975 451.76562 404.05313Q452.875 403.13126 453.26562 401.33438ZM456.78125 406.35L456.78125 392.0375L458.53125 392.0375L458.53125 406.35L456.78125 406.35ZM460.82812 394.05313L460.82812 392.0375L462.59375 392.0375L462.59375 394.05313L460.82812 394.05313ZM460.82812 406.35L460.82812 395.975L462.59375 395.975L462.59375 406.35L460.82812 406.35ZM471.92188 403.00626L473.73438 403.24063Q473.3125 404.81876 472.14062 405.70938Q470.98438 406.58438 469.17188 406.58438Q466.90625 406.58438 465.5625 405.19376Q464.23438 403.7875 464.23438 401.25626Q464.23438 398.63126 465.57812 397.19376Q466.92188 395.74063 469.07812 395.74063Q471.15625 395.74063 472.46875 397.1625Q473.79688 398.56876 473.79688 401.14688Q473.79688 401.30313 473.78125 401.61563L466.04688 401.61563Q466.14062 403.31876 467.01562 404.225Q467.89062 405.13126 469.1875 405.13126Q470.15625 405.13126 470.82812 404.63126Q471.51562 404.11563 471.92188 403.00626ZM466.14062 400.1625L471.9375 400.1625Q471.82812 398.86563 471.28125 398.20938Q470.4375 397.19376 469.09375 397.19376Q467.89062 397.19376 467.0625 398.00626Q466.23438 398.80313 466.14062 400.1625ZM475.8125 406.35L475.8125 395.975L477.40625 395.975L477.40625 397.45938Q478.54688 395.74063 480.70312 395.74063Q481.64062 395.74063 482.42188 396.08438Q483.21875 396.4125 483.60938 396.95938Q484.0 397.50626 484.15625 398.25626Q484.25 398.75626 484.25 399.975L484.25 406.35L482.48438 406.35L482.48438 400.0375Q482.48438 398.95938 482.28125 398.42813Q482.07812 397.89688 481.54688 397.58438Q481.03125 397.27188 480.32812 397.27188Q479.20312 397.27188 478.39062 397.99063Q477.57812 398.69376 477.57812 400.67813L477.57812 406.35L475.8125 406.35ZM489.65625 404.77188L489.90625 406.33438Q489.17188 406.49063 488.57812 406.49063Q487.625 406.49063 487.09375 406.19376Q486.57812 405.88126 486.35938 405.39688Q486.14062 404.89688 486.14062 403.31876L486.14062 397.35L484.85938 397.35L484.85938 395.975L486.14062 395.975L486.14062 393.4125L487.89062 392.35L487.89062 395.975L489.65625 395.975L489.65625 397.35L487.89062 397.35L487.89062 403.4125Q487.89062 404.1625 487.98438 404.38126Q488.07812 404.58438 488.28125 404.725Q488.5 404.85 488.89062 404.85Q489.17188 404.85 489.65625 404.77188ZM498.92188 403.00626L500.73438 403.24063Q500.3125 404.81876 499.14062 405.70938Q497.98438 406.58438 496.17188 406.58438Q493.90625 406.58438 492.5625 405.19376Q491.23438 403.7875 491.23438 401.25626Q491.23438 398.63126 492.57812 397.19376Q493.92188 395.74063 496.07812 395.74063Q498.15625 395.74063 499.46875 397.1625Q500.79688 398.56876 500.79688 401.14688Q500.79688 401.30313 500.78125 401.61563L493.04688 401.61563Q493.14062 403.31876 494.01562 404.225Q494.89062 405.13126 496.1875 405.13126Q497.15625 405.13126 497.82812 404.63126Q498.51562 404.11563 498.92188 403.00626ZM493.14062 400.1625L498.9375 400.1625Q498.82812 398.86563 498.28125 398.20938Q497.4375 397.19376 496.09375 397.19376Q494.89062 397.19376 494.0625 398.00626Q493.23438 398.80313 493.14062 400.1625ZM502.10938 403.25626L503.85938 402.975Q504.0 404.02188 504.67188 404.58438Q505.34375 405.13126 506.54688 405.13126Q507.75 405.13126 508.32812 404.64688Q508.92188 404.14688 508.92188 403.49063Q508.92188 402.89688 508.40625 402.55313Q508.04688 402.31876 506.60938 401.95938Q504.67188 401.45938 503.92188 401.11563Q503.1875 400.75626 502.79688 400.13126Q502.40625 399.49063 502.40625 398.725Q502.40625 398.0375 502.71875 397.44376Q503.04688 396.85 503.59375 396.45938Q504.0 396.1625 504.70312 395.95938Q505.42188 395.74063 506.23438 395.74063Q507.45312 395.74063 508.375 396.1Q509.29688 396.44376 509.73438 397.05313Q510.17188 397.64688 510.34375 398.64688L508.625 398.88126Q508.5 398.08438 507.9375 397.64688Q507.375 397.19376 506.35938 397.19376Q505.14062 397.19376 504.625 397.6Q504.10938 397.99063 504.10938 398.52188Q504.10938 398.86563 504.32812 399.14688Q504.53125 399.42813 505.0 399.61563Q505.26562 399.70938 506.54688 400.05313Q508.42188 400.55313 509.15625 400.88126Q509.89062 401.19376 510.3125 401.80313Q510.73438 402.39688 510.73438 403.30313Q510.73438 404.17813 510.21875 404.95938Q509.70312 405.74063 508.73438 406.1625Q507.76562 406.58438 506.54688 406.58438Q504.53125 406.58438 503.46875 405.74063Q502.40625 404.89688 502.10938 403.25626Z" fill-rule="nonzero"/><path fill="#000000" d="M40.650005 264.52917L28.025005 264.52917L28.025005 269.24792L26.337505 269.24792L26.337505 257.90417L28.025005 257.90417L28.025005 262.63855L40.650005 262.63855L40.650005 264.52917ZM28.35313 256.38855L26.337505 256.38855L26.337505 254.62292L28.35313 254.62292L28.35313 256.38855ZM40.650005 256.38855L30.275005 256.38855L30.275005 254.62292L40.650005 254.62292L40.650005 256.38855ZM37.306255 245.2948L37.54063 243.4823Q39.118755 243.90417 40.00938 245.07605Q40.88438 246.2323 40.88438 248.0448Q40.88438 250.31042 39.493755 251.65417Q38.087505 252.9823 35.556255 252.9823Q32.931255 252.9823 31.493755 251.63855Q30.04063 250.2948 30.04063 248.13855Q30.04063 246.06042 31.462505 244.74792Q32.868755 243.4198 35.44688 243.4198Q35.60313 243.4198 35.91563 243.43542L35.91563 251.1698Q37.618755 251.07605 38.525005 250.20105Q39.431255 249.32605 39.431255 248.02917Q39.431255 247.06042 38.931255 246.38855Q38.41563 245.70105 37.306255 245.2948ZM34.462505 251.07605L34.462505 245.27917Q33.16563 245.38855 32.50938 245.93542Q31.493755 246.77917 31.493755 248.12292Q31.493755 249.32605 32.306255 250.15417Q33.10313 250.9823 34.462505 251.07605ZM40.650005 241.40417L30.275005 241.40417L30.275005 239.82605L31.72813 239.82605Q30.97813 239.34167 30.50938 238.52917Q30.04063 237.71667 30.04063 236.68542Q30.04063 235.52917 30.525005 234.7948Q30.993755 234.06042 31.85313 233.74792Q30.04063 232.51355 30.04063 230.5448Q30.04063 228.99792 30.900005 228.1698Q31.75938 227.34167 33.525005 227.34167L40.650005 227.34167L40.650005 229.09167L34.118755 229.09167Q33.056255 229.09167 32.60313 229.26355Q32.13438 229.43542 31.85313 229.88855Q31.57188 230.32605 31.57188 230.93542Q31.57188 232.02917 32.306255 232.76355Q33.025005 233.4823 34.618755 233.4823L40.650005 233.4823L40.650005 235.2323L33.91563 235.2323Q32.743755 235.2323 32.16563 235.6698Q31.57188 236.09167 31.57188 237.07605Q31.57188 237.81042 31.962505 238.45105Q32.35313 239.07605 33.10313 239.3573Q33.85313 239.63855 35.275005 239.63855L40.650005 239.63855L40.650005 241.40417ZM44.618755 225.40417L30.275005 225.40417L30.275005 223.7948L31.618755 223.7948Q30.837505 223.2323 30.44688 222.52917Q30.04063 221.81042 30.04063 220.7948Q30.04063 219.46667 30.72813 218.45105Q31.41563 217.43542 32.66563 216.9198Q33.900005 216.38855 35.38438 216.38855Q36.97813 216.38855 38.25938 216.96667Q39.525005 217.52917 40.212505 218.62292Q40.88438 219.71667 40.88438 220.9198Q40.88438 221.7948 40.50938 222.49792Q40.13438 223.18542 39.57188 223.63855L44.618755 223.63855L44.618755 225.40417ZM35.525005 223.81042Q37.525005 223.81042 38.47813 222.99792Q39.431255 222.18542 39.431255 221.02917Q39.431255 219.8573 38.44688 219.02917Q37.462505 218.18542 35.368755 218.18542Q33.400005 218.18542 32.41563 219.01355Q31.41563 219.82605 31.41563 220.95105Q31.41563 222.07605 32.47813 222.95105Q33.525005 223.81042 35.525005 223.81042ZM35.462505 215.0448Q32.587505 215.0448 31.19688 213.45105Q30.04063 212.1073 30.04063 210.18542Q30.04063 208.0448 31.44688 206.70105Q32.85313 205.34167 35.32188 205.34167Q37.32188 205.34167 38.47813 205.93542Q39.618755 206.52917 40.25938 207.68542Q40.88438 208.82605 40.88438 210.18542Q40.88438 212.37292 39.493755 213.71667Q38.087505 215.0448 35.462505 215.0448ZM35.462505 213.24792Q37.462505 213.24792 38.44688 212.38855Q39.431255 211.51355 39.431255 210.18542Q39.431255 208.87292 38.44688 208.01355Q37.44688 207.13855 35.400005 207.13855Q33.47813 207.13855 32.493755 208.01355Q31.493755 208.88855 31.493755 210.18542Q31.493755 211.51355 32.493755 212.38855Q33.47813 213.24792 35.462505 213.24792ZM44.85313 194.0448Q43.025005 195.49792 40.57188 196.49792Q38.10313 197.49792 35.462505 197.49792Q33.13438 197.49792 31.00938 196.74792Q28.54063 195.87292 26.087505 194.0448L26.087505 192.77917Q28.118755 193.96667 28.993755 194.34167Q30.337505 194.93542 31.806255 195.27917Q33.63438 195.70105 35.47813 195.70105Q40.16563 195.70105 44.85313 192.77917L44.85313 194.0448ZM40.650005 190.40417L30.275005 190.40417L30.275005 188.82605L31.72813 188.82605Q30.97813 188.34167 30.50938 187.52917Q30.04063 186.71667 30.04063 185.68542Q30.04063 184.52917 30.525005 183.7948Q30.993755 183.06042 31.85313 182.74792Q30.04063 181.51355 30.04063 179.5448Q30.04063 177.99792 30.900005 177.1698Q31.75938 176.34167 33.525005 176.34167L40.650005 176.34167L40.650005 178.09167L34.118755 178.09167Q33.056255 178.09167 32.60313 178.26355Q32.13438 178.43542 31.85313 178.88855Q31.57188 179.32605 31.57188 179.93542Q31.57188 181.02917 32.306255 181.76355Q33.025005 182.4823 34.618755 182.4823L40.650005 182.4823L40.650005 184.2323L33.91563 184.2323Q32.743755 184.2323 32.16563 184.6698Q31.57188 185.09167 31.57188 186.07605Q31.57188 186.81042 31.962505 187.45105Q32.35313 188.07605 33.10313 188.3573Q33.85313 188.63855 35.275005 188.63855L40.650005 188.63855L40.650005 190.40417ZM37.556255 175.1073L37.275005 173.3573Q38.32188 173.21667 38.88438 172.5448Q39.431255 171.87292 39.431255 170.6698Q39.431255 169.46667 38.94688 168.88855Q38.44688 168.2948 37.79063 168.2948Q37.19688 168.2948 36.85313 168.81042Q36.618755 169.1698 36.25938 170.6073Q35.75938 172.5448 35.41563 173.2948Q35.056255 174.02917 34.431255 174.4198Q33.79063 174.81042 33.025005 174.81042Q32.337505 174.81042 31.743755 174.49792Q31.150005 174.1698 30.75938 173.62292Q30.462505 173.21667 30.25938 172.51355Q30.04063 171.7948 30.04063 170.9823Q30.04063 169.76355 30.400005 168.84167Q30.743755 167.9198 31.35313 167.4823Q31.94688 167.0448 32.94688 166.87292L33.181255 168.59167Q32.38438 168.71667 31.94688 169.27917Q31.493755 169.84167 31.493755 170.8573Q31.493755 172.07605 31.900005 172.59167Q32.29063 173.1073 32.82188 173.1073Q33.16563 173.1073 33.44688 172.88855Q33.72813 172.68542 33.91563 172.21667Q34.00938 171.95105 34.35313 170.6698Q34.85313 168.7948 35.181255 168.06042Q35.493755 167.32605 36.10313 166.90417Q36.69688 166.4823 37.60313 166.4823Q38.47813 166.4823 39.25938 166.99792Q40.04063 167.51355 40.462505 168.4823Q40.88438 169.45105 40.88438 170.6698Q40.88438 172.68542 40.04063 173.74792Q39.19688 174.81042 37.556255 175.1073ZM44.85313 163.24792L44.85313 164.49792Q40.16563 161.59167 35.47813 161.59167Q33.63438 161.59167 31.837505 161.99792Q30.368755 162.34167 29.025005 162.93542Q28.13438 163.31042 26.087505 164.49792L26.087505 163.24792Q28.54063 161.40417 31.00938 160.52917Q33.13438 159.77917 35.462505 159.77917Q38.10313 159.77917 40.57188 160.7948Q43.025005 161.7948 44.85313 163.24792Z" fill-rule="nonzero"/><path fill="#000000" d="M149.10312 330.35L147.3375 330.35L147.3375 319.14688Q146.7125 319.75626 145.68124 320.36563Q144.65 320.95938 143.82187 321.27188L143.82187 319.56876Q145.30624 318.88126 146.4 317.89688Q147.50937 316.89688 147.9625 315.975L149.10312 315.975L149.10312 330.35Z" fill-rule="nonzero"/><path fill="#000000" d="M138.10312 292.21866L136.3375 292.21866L136.3375 281.01553Q135.7125 281.6249 134.68124 282.23428Q133.65 282.82803 132.82187 283.14053L132.82187 281.4374Q134.30624 280.7499 135.4 279.76553Q136.50937 278.76553 136.9625 277.84366L138.10312 277.84366L138.10312 292.21866ZM142.47812 285.15616Q142.47812 282.6249 142.99374 281.07803Q143.525 279.51553 144.55624 278.6874Q145.5875 277.84366 147.15 277.84366Q148.30624 277.84366 149.16562 278.3124Q150.04062 278.76553 150.60312 279.64053Q151.16562 280.51553 151.49374 281.78116Q151.82187 283.03116 151.82187 285.15616Q151.82187 287.67178 151.29062 289.21866Q150.775 290.76553 149.74374 291.6249Q148.72812 292.46866 147.15 292.46866Q145.07187 292.46866 143.9 290.98428Q142.47812 289.1874 142.47812 285.15616ZM144.29062 285.15616Q144.29062 288.6874 145.10312 289.85928Q145.93124 291.01553 147.15 291.01553Q148.35312 291.01553 149.18124 289.84366Q150.00937 288.67178 150.00937 285.15616Q150.00937 281.6249 149.18124 280.46866Q148.35312 279.29678 147.13437 279.29678Q145.91562 279.29678 145.19687 280.32803Q144.29062 281.6249 144.29062 285.15616Z" fill-rule="nonzero"/><path fill="#000000" d="M127.10313 254.08734L125.3375 254.08734L125.3375 242.88422Q124.7125 243.49359 123.68125 244.10297Q122.65 244.69672 121.82188 245.00922L121.82188 243.30609Q123.30625 242.61859 124.4 241.63422Q125.50938 240.63422 125.9625 239.71234L127.10313 239.71234L127.10313 254.08734ZM131.47812 247.02484Q131.47812 244.49359 131.99374 242.94672Q132.525 241.38422 133.55624 240.55609Q134.5875 239.71234 136.15 239.71234Q137.30624 239.71234 138.16562 240.18109Q139.04062 240.63422 139.60312 241.50922Q140.16562 242.38422 140.49374 243.64984Q140.82187 244.89984 140.82187 247.02484Q140.82187 249.54047 140.29062 251.08734Q139.775 252.63422 138.74374 253.49359Q137.72812 254.33734 136.15 254.33734Q134.07187 254.33734 132.9 252.85297Q131.47812 251.05609 131.47812 247.02484ZM133.29062 247.02484Q133.29062 250.55609 134.10312 251.72797Q134.93124 252.88422 136.15 252.88422Q137.35312 252.88422 138.18124 251.71234Q139.00937 250.54047 139.00937 247.02484Q139.00937 243.49359 138.18124 242.33734Q137.35312 241.16547 136.13437 241.16547Q134.91562 241.16547 134.19687 242.19672Q133.29062 243.49359 133.29062 247.02484ZM142.47812 247.02484Q142.47812 244.49359 142.99374 242.94672Q143.525 241.38422 144.55624 240.55609Q145.5875 239.71234 147.15 239.71234Q148.30624 239.71234 149.16562 240.18109Q150.04062 240.63422 150.60312 241.50922Q151.16562 242.38422 151.49374 243.64984Q151.82187 244.89984 151.82187 247.02484Q151.82187 249.54047 151.29062 251.08734Q150.775 252.63422 149.74374 253.49359Q148.72812 254.33734 147.15 254.33734Q145.07187 254.33734 143.9 252.85297Q142.47812 251.05609 142.47812 247.02484ZM144.29062 247.02484Q144.29062 250.55609 145.10312 251.72797Q145.93124 252.88422 147.15 252.88422Q148.35312 252.88422 149.18124 251.71234Q150.00937 250.54047 150.00937 247.02484Q150.00937 243.49359 149.18124 242.33734Q148.35312 241.16547 147.13437 241.16547Q145.91562 241.16547 145.19687 242.19672Q144.29062 243.49359 144.29062 247.02484Z" fill-rule="nonzero"/><path fill="#000000" d="M116.10313 215.95601L114.3375 215.95601L114.3375 204.75288Q113.7125 205.36226 112.68125 205.97163Q111.65 206.56538 110.82188 206.87788L110.82188 205.17476Q112.30625 204.48726 113.4 203.50288Q114.50938 202.50288 114.9625 201.58101L116.10313 201.58101L116.10313 215.95601ZM120.47813 208.89351Q120.47813 206.36226 120.99375 204.81538Q121.525 203.25288 122.55625 202.42476Q123.5875 201.58101 125.15 201.58101Q126.30625 201.58101 127.16563 202.04976Q128.04062 202.50288 128.60312 203.37788Q129.16562 204.25288 129.49374 205.51851Q129.82187 206.76851 129.82187 208.89351Q129.82187 211.40913 129.29062 212.95601Q128.775 214.50288 127.74375 215.36226Q126.72813 216.20601 125.15 216.20601Q123.07188 216.20601 121.9 214.72163Q120.47813 212.92476 120.47813 208.89351ZM122.29063 208.89351Q122.29063 212.42476 123.10313 213.59663Q123.93125 214.75288 125.15 214.75288Q126.35313 214.75288 127.18125 213.58101Q128.00937 212.40913 128.00937 208.89351Q128.00937 205.36226 127.18125 204.20601Q126.35313 203.03413 125.13438 203.03413Q123.91563 203.03413 123.19688 204.06538Q122.29063 205.36226 122.29063 208.89351ZM131.47812 208.89351Q131.47812 206.36226 131.99374 204.81538Q132.525 203.25288 133.55624 202.42476Q134.5875 201.58101 136.15 201.58101Q137.30624 201.58101 138.16562 202.04976Q139.04062 202.50288 139.60312 203.37788Q140.16562 204.25288 140.49374 205.51851Q140.82187 206.76851 140.82187 208.89351Q140.82187 211.40913 140.29062 212.95601Q139.775 214.50288 138.74374 215.36226Q137.72812 216.20601 136.15 216.20601Q134.07187 216.20601 132.9 214.72163Q131.47812 212.92476 131.47812 208.89351ZM133.29062 208.89351Q133.29062 212.42476 134.10312 213.59663Q134.93124 214.75288 136.15 214.75288Q137.35312 214.75288 138.18124 213.58101Q139.00937 212.40913 139.00937 208.89351Q139.00937 205.36226 138.18124 204.20601Q137.35312 203.03413 136.13437 203.03413Q134.91562 203.03413 134.19687 204.06538Q133.29062 205.36226 133.29062 208.89351ZM142.47812 208.89351Q142.47812 206.36226 142.99374 204.81538Q143.525 203.25288 144.55624 202.42476Q145.5875 201.58101 147.15 201.58101Q148.30624 201.58101 149.16562 202.04976Q150.04062 202.50288 150.60312 203.37788Q151.16562 204.25288 151.49374 205.51851Q151.82187 206.76851 151.82187 208.89351Q151.82187 211.40913 151.29062 212.95601Q150.775 214.50288 149.74374 215.36226Q148.72812 216.20601 147.15 216.20601Q145.07187 216.20601 143.9 214.72163Q142.47812 212.92476 142.47812 208.89351ZM144.29062 208.89351Q144.29062 212.42476 145.10312 213.59663Q145.93124 214.75288 147.15 214.75288Q148.35312 214.75288 149.18124 213.58101Q150.00937 212.40913 150.00937 208.89351Q150.00937 205.36226 149.18124 204.20601Q148.35312 203.03413 147.13437 203.03413Q145.91562 203.03413 145.19687 204.06538Q144.29062 205.36226 144.29062 208.89351Z" fill-rule="nonzero"/><path fill="#000000" d="M105.10313 177.82468L103.3375 177.82468L103.3375 166.62155Q102.7125 167.23093 101.68125 167.8403Q100.65 168.43405 99.82188 168.74655L99.82188 167.04343Q101.30625 166.35593 102.4 165.37155Q103.50938 164.37155 103.9625 163.44968L105.10313 163.44968L105.10313 177.82468ZM109.47813 170.76218Q109.47813 168.23093 109.99375 166.68405Q110.525 165.12155 111.55625 164.29343Q112.5875 163.44968 114.15 163.44968Q115.30625 163.44968 116.16563 163.91843Q117.04063 164.37155 117.60313 165.24655Q118.16563 166.12155 118.49375 167.38718Q118.82188 168.63718 118.82188 170.76218Q118.82188 173.2778 118.29063 174.82468Q117.775 176.37155 116.74375 177.23093Q115.72813 178.07468 114.15 178.07468Q112.07188 178.07468 110.9 176.5903Q109.47813 174.79343 109.47813 170.76218ZM111.29063 170.76218Q111.29063 174.29343 112.10313 175.4653Q112.93125 176.62155 114.15 176.62155Q115.35313 176.62155 116.18125 175.44968Q117.00938 174.2778 117.00938 170.76218Q117.00938 167.23093 116.18125 166.07468Q115.35313 164.9028 114.13438 164.9028Q112.91563 164.9028 112.19688 165.93405Q111.29063 167.23093 111.29063 170.76218ZM120.47813 170.76218Q120.47813 168.23093 120.99375 166.68405Q121.525 165.12155 122.55625 164.29343Q123.5875 163.44968 125.15 163.44968Q126.30625 163.44968 127.16563 163.91843Q128.04062 164.37155 128.60312 165.24655Q129.16562 166.12155 129.49374 167.38718Q129.82187 168.63718 129.82187 170.76218Q129.82187 173.2778 129.29062 174.82468Q128.775 176.37155 127.74375 177.23093Q126.72813 178.07468 125.15 178.07468Q123.07188 178.07468 121.9 176.5903Q120.47813 174.79343 120.47813 170.76218ZM122.29063 170.76218Q122.29063 174.29343 123.10313 175.4653Q123.93125 176.62155 125.15 176.62155Q126.35313 176.62155 127.18125 175.44968Q128.00937 174.2778 128.00937 170.76218Q128.00937 167.23093 127.18125 166.07468Q126.35313 164.9028 125.13438 164.9028Q123.91563 164.9028 123.19688 165.93405Q122.29063 167.23093 122.29063 170.76218ZM131.47812 170.76218Q131.47812 168.23093 131.99374 166.68405Q132.525 165.12155 133.55624 164.29343Q134.5875 163.44968 136.15 163.44968Q137.30624 163.44968 138.16562 163.91843Q139.04062 164.37155 139.60312 165.24655Q140.16562 166.12155 140.49374 167.38718Q140.82187 168.63718 140.82187 170.76218Q140.82187 173.2778 140.29062 174.82468Q139.775 176.37155 138.74374 177.23093Q137.72812 178.07468 136.15 178.07468Q134.07187 178.07468 132.9 176.5903Q131.47812 174.79343 131.47812 170.76218ZM133.29062 170.76218Q133.29062 174.29343 134.10312 175.4653Q134.93124 176.62155 136.15 176.62155Q137.35312 176.62155 138.18124 175.44968Q139.00937 174.2778 139.00937 170.76218Q139.00937 167.23093 138.18124 166.07468Q137.35312 164.9028 136.13437 164.9028Q134.91562 164.9028 134.19687 165.93405Q133.29062 167.23093 133.29062 170.76218ZM142.47812 170.76218Q142.47812 168.23093 142.99374 166.68405Q143.525 165.12155 144.55624 164.29343Q145.5875 163.44968 147.15 163.44968Q148.30624 163.44968 149.16562 163.91843Q150.04062 164.37155 150.60312 165.24655Q151.16562 166.12155 151.49374 167.38718Q151.82187 168.63718 151.82187 170.76218Q151.82187 173.2778 151.29062 174.82468Q150.775 176.37155 149.74374 177.23093Q148.72812 178.07468 147.15 178.07468Q145.07187 178.07468 143.9 176.5903Q142.47812 174.79343 142.47812 170.76218ZM144.29062 170.76218Q144.29062 174.29343 145.10312 175.4653Q145.93124 176.62155 147.15 176.62155Q148.35312 176.62155 149.18124 175.44968Q150.00937 174.2778 150.00937 170.76218Q150.00937 167.23093 149.18124 166.07468Q148.35312 164.9028 147.13437 164.9028Q145.91562 164.9028 145.19687 165.93405Q144.29062 167.23093 144.29062 170.76218Z" fill-rule="nonzero"/><path fill="#000000" d="M94.10313 139.69334L92.3375 139.69334L92.3375 128.49022Q91.7125 129.0996 90.68125 129.70897Q89.65 130.30272 88.82188 130.61522L88.82188 128.9121Q90.30625 128.2246 91.4 127.24022Q92.50938 126.24022 92.9625 125.318344L94.10313 125.318344L94.10313 139.69334ZM98.47813 132.63084Q98.47813 130.0996 98.99375 128.55272Q99.525 126.99022 100.55625 126.162094Q101.5875 125.318344 103.15 125.318344Q104.30625 125.318344 105.16563 125.787094Q106.04063 126.24022 106.60313 127.11522Q107.16563 127.99022 107.49375 129.25584Q107.82188 130.50584 107.82188 132.63084Q107.82188 135.14647 107.29063 136.69334Q106.775 138.24022 105.74375 139.0996Q104.72813 139.94334 103.15 139.94334Q101.07188 139.94334 99.9 138.45897Q98.47813 136.6621 98.47813 132.63084ZM100.29063 132.63084Q100.29063 136.1621 101.10313 137.33397Q101.93125 138.49022 103.15 138.49022Q104.35313 138.49022 105.18125 137.31834Q106.00938 136.14647 106.00938 132.63084Q106.00938 129.0996 105.18125 127.943344Q104.35313 126.77147 103.13438 126.77147Q101.91563 126.77147 101.19688 127.80272Q100.29063 129.0996 100.29063 132.63084ZM109.47813 132.63084Q109.47813 130.0996 109.99375 128.55272Q110.525 126.99022 111.55625 126.162094Q112.5875 125.318344 114.15 125.318344Q115.30625 125.318344 116.16563 125.787094Q117.04063 126.24022 117.60313 127.11522Q118.16563 127.99022 118.49375 129.25584Q118.82188 130.50584 118.82188 132.63084Q118.82188 135.14647 118.29063 136.69334Q117.775 138.24022 116.74375 139.0996Q115.72813 139.94334 114.15 139.94334Q112.07188 139.94334 110.9 138.45897Q109.47813 136.6621 109.47813 132.63084ZM111.29063 132.63084Q111.29063 136.1621 112.10313 137.33397Q112.93125 138.49022 114.15 138.49022Q115.35313 138.49022 116.18125 137.31834Q117.00938 136.14647 117.00938 132.63084Q117.00938 129.0996 116.18125 127.943344Q115.35313 126.77147 114.13438 126.77147Q112.91563 126.77147 112.19688 127.80272Q111.29063 129.0996 111.29063 132.63084ZM120.47813 132.63084Q120.47813 130.0996 120.99375 128.55272Q121.525 126.99022 122.55625 126.162094Q123.5875 125.318344 125.15 125.318344Q126.30625 125.318344 127.16563 125.787094Q128.04062 126.24022 128.60312 127.11522Q129.16562 127.99022 129.49374 129.25584Q129.82187 130.50584 129.82187 132.63084Q129.82187 135.14647 129.29062 136.69334Q128.775 138.24022 127.74375 139.0996Q126.72813 139.94334 125.15 139.94334Q123.07188 139.94334 121.9 138.45897Q120.47813 136.6621 120.47813 132.63084ZM122.29063 132.63084Q122.29063 136.1621 123.10313 137.33397Q123.93125 138.49022 125.15 138.49022Q126.35313 138.49022 127.18125 137.31834Q128.00937 136.14647 128.00937 132.63084Q128.00937 129.0996 127.18125 127.943344Q126.35313 126.77147 125.13438 126.77147Q123.91563 126.77147 123.19688 127.80272Q122.29063 129.0996 122.29063 132.63084ZM131.47812 132.63084Q131.47812 130.0996 131.99374 128.55272Q132.525 126.99022 133.55624 126.162094Q134.5875 125.318344 136.15 125.318344Q137.30624 125.318344 138.16562 125.787094Q139.04062 126.24022 139.60312 127.11522Q140.16562 127.99022 140.49374 129.25584Q140.82187 130.50584 140.82187 132.63084Q140.82187 135.14647 140.29062 136.69334Q139.775 138.24022 138.74374 139.0996Q137.72812 139.94334 136.15 139.94334Q134.07187 139.94334 132.9 138.45897Q131.47812 136.6621 131.47812 132.63084ZM133.29062 132.63084Q133.29062 136.1621 134.10312 137.33397Q134.93124 138.49022 136.15 138.49022Q137.35312 138.49022 138.18124 137.31834Q139.00937 136.14647 139.00937 132.63084Q139.00937 129.0996 138.18124 127.943344Q137.35312 126.77147 136.13437 126.77147Q134.91562 126.77147 134.19687 127.80272Q133.29062 129.0996 133.29062 132.63084ZM142.47812 132.63084Q142.47812 130.0996 142.99374 128.55272Q143.525 126.99022 144.55624 126.162094Q145.5875 125.318344 147.15 125.318344Q148.30624 125.318344 149.16562 125.787094Q150.04062 126.24022 150.60312 127.11522Q151.16562 127.99022 151.49374 129.25584Q151.82187 130.50584 151.82187 132.63084Q151.82187 135.14647 151.29062 136.69334Q150.775 138.24022 149.74374 139.0996Q148.72812 139.94334 147.15 139.94334Q145.07187 139.94334 143.9 138.45897Q142.47812 136.6621 142.47812 132.63084ZM144.29062 132.63084Q144.29062 136.1621 145.10312 137.33397Q145.93124 138.49022 147.15 138.49022Q148.35312 138.49022 149.18124 137.31834Q150.00937 136.14647 150.00937 132.63084Q150.00937 129.0996 149.18124 127.943344Q148.35312 126.77147 147.13437 126.77147Q145.91562 126.77147 145.19687 127.80272Q144.29062 129.0996 144.29062 132.63084Z" fill-rule="nonzero"/><path fill="#000000" d="M83.10313 101.56201L81.3375 101.56201L81.3375 90.35889Q80.7125 90.96826 79.68125 91.57764Q78.65 92.17139 77.82188 92.48389L77.82188 90.78076Q79.30625 90.09326 80.4 89.10889Q81.50938 88.10889 81.9625 87.18701L83.10313 87.18701L83.10313 101.56201ZM87.47813 94.49951Q87.47813 91.96826 87.99375 90.42139Q88.525 88.85889 89.55625 88.03076Q90.5875 87.18701 92.15 87.18701Q93.30625 87.18701 94.16563 87.65576Q95.04063 88.10889 95.60313 88.98389Q96.16563 89.85889 96.49375 91.12451Q96.82188 92.37451 96.82188 94.49951Q96.82188 97.01514 96.29063 98.56201Q95.775 100.10889 94.74375 100.96826Q93.72813 101.81201 92.15 101.81201Q90.07188 101.81201 88.9 100.32764Q87.47813 98.53076 87.47813 94.49951ZM89.29063 94.49951Q89.29063 98.03076 90.10313 99.20264Q90.93125 100.35889 92.15 100.35889Q93.35313 100.35889 94.18125 99.18701Q95.00938 98.01514 95.00938 94.49951Q95.00938 90.96826 94.18125 89.81201Q93.35313 88.64014 92.13438 88.64014Q90.91563 88.64014 90.19688 89.67139Q89.29063 90.96826 89.29063 94.49951ZM98.47813 94.49951Q98.47813 91.96826 98.99375 90.42139Q99.525 88.85889 100.55625 88.03076Q101.5875 87.18701 103.15 87.18701Q104.30625 87.18701 105.16563 87.65576Q106.04063 88.10889 106.60313 88.98389Q107.16563 89.85889 107.49375 91.12451Q107.82188 92.37451 107.82188 94.49951Q107.82188 97.01514 107.29063 98.56201Q106.775 100.10889 105.74375 100.96826Q104.72813 101.81201 103.15 101.81201Q101.07188 101.81201 99.9 100.32764Q98.47813 98.53076 98.47813 94.49951ZM100.29063 94.49951Q100.29063 98.03076 101.10313 99.20264Q101.93125 100.35889 103.15 100.35889Q104.35313 100.35889 105.18125 99.18701Q106.00938 98.01514 106.00938 94.49951Q106.00938 90.96826 105.18125 89.81201Q104.35313 88.64014 103.13438 88.64014Q101.91563 88.64014 101.19688 89.67139Q100.29063 90.96826 100.29063 94.49951ZM109.47813 94.49951Q109.47813 91.96826 109.99375 90.42139Q110.525 88.85889 111.55625 88.03076Q112.5875 87.18701 114.15 87.18701Q115.30625 87.18701 116.16563 87.65576Q117.04063 88.10889 117.60313 88.98389Q118.16563 89.85889 118.49375 91.12451Q118.82188 92.37451 118.82188 94.49951Q118.82188 97.01514 118.29063 98.56201Q117.775 100.10889 116.74375 100.96826Q115.72813 101.81201 114.15 101.81201Q112.07188 101.81201 110.9 100.32764Q109.47813 98.53076 109.47813 94.49951ZM111.29063 94.49951Q111.29063 98.03076 112.10313 99.20264Q112.93125 100.35889 114.15 100.35889Q115.35313 100.35889 116.18125 99.18701Q117.00938 98.01514 117.00938 94.49951Q117.00938 90.96826 116.18125 89.81201Q115.35313 88.64014 114.13438 88.64014Q112.91563 88.64014 112.19688 89.67139Q111.29063 90.96826 111.29063 94.49951ZM120.47813 94.49951Q120.47813 91.96826 120.99375 90.42139Q121.525 88.85889 122.55625 88.03076Q123.5875 87.18701 125.15 87.18701Q126.30625 87.18701 127.16563 87.65576Q128.04062 88.10889 128.60312 88.98389Q129.16562 89.85889 129.49374 91.12451Q129.82187 92.37451 129.82187 94.49951Q129.82187 97.01514 129.29062 98.56201Q128.775 100.10889 127.74375 100.96826Q126.72813 101.81201 125.15 101.81201Q123.07188 101.81201 121.9 100.32764Q120.47813 98.53076 120.47813 94.49951ZM122.29063 94.49951Q122.29063 98.03076 123.10313 99.20264Q123.93125 100.35889 125.15 100.35889Q126.35313 100.35889 127.18125 99.18701Q128.00937 98.01514 128.00937 94.49951Q128.00937 90.96826 127.18125 89.81201Q126.35313 88.64014 125.13438 88.64014Q123.91563 88.64014 123.19688 89.67139Q122.29063 90.96826 122.29063 94.49951ZM131.47812 94.49951Q131.47812 91.96826 131.99374 90.42139Q132.525 88.85889 133.55624 88.03076Q134.5875 87.18701 136.15 87.18701Q137.30624 87.18701 138.16562 87.65576Q139.04062 88.10889 139.60312 88.98389Q140.16562 89.85889 140.49374 91.12451Q140.82187 92.37451 140.82187 94.49951Q140.82187 97.01514 140.29062 98.56201Q139.775 100.10889 138.74374 100.96826Q137.72812 101.81201 136.15 101.81201Q134.07187 101.81201 132.9 100.32764Q131.47812 98.53076 131.47812 94.49951ZM133.29062 94.49951Q133.29062 98.03076 134.10312 99.20264Q134.93124 100.35889 136.15 100.35889Q137.35312 100.35889 138.18124 99.18701Q139.00937 98.01514 139.00937 94.49951Q139.00937 90.96826 138.18124 89.81201Q137.35312 88.64014 136.13437 88.64014Q134.91562 88.64014 134.19687 89.67139Q133.29062 90.96826 133.29062 94.49951ZM142.47812 94.49951Q142.47812 91.96826 142.99374 90.42139Q143.525 88.85889 144.55624 88.03076Q145.5875 87.18701 147.15 87.18701Q148.30624 87.18701 149.16562 87.65576Q150.04062 88.10889 150.60312 88.98389Q151.16562 89.85889 151.49374 91.12451Q151.82187 92.37451 151.82187 94.49951Q151.82187 97.01514 151.29062 98.56201Q150.775 100.10889 149.74374 100.96826Q148.72812 101.81201 147.15 101.81201Q145.07187 101.81201 143.9 100.32764Q142.47812 98.53076 142.47812 94.49951ZM144.29062 94.49951Q144.29062 98.03076 145.10312 99.20264Q145.93124 100.35889 147.15 100.35889Q148.35312 100.35889 149.18124 99.18701Q150.00937 98.01514 150.00937 94.49951Q150.00937 90.96826 149.18124 89.81201Q148.35312 88.64014 147.13437 88.64014Q145.91562 88.64014 145.19687 89.67139Q144.29062 90.96826 144.29062 94.49951Z" fill-rule="nonzero"/><path fill="#000000" d="M157.97812 345.2875Q157.97812 342.75626 158.49374 341.20938Q159.025 339.64688 160.05624 338.81876Q161.0875 337.975 162.65 337.975Q163.80624 337.975 164.66562 338.44376Q165.54062 338.89688 166.10312 339.77188Q166.66562 340.64688 166.99374 341.9125Q167.32187 343.1625 167.32187 345.2875Q167.32187 347.80313 166.79062 349.35Q166.275 350.89688 165.24374 351.75626Q164.22812 352.6 162.65 352.6Q160.57187 352.6 159.4 351.11563Q157.97812 349.31876 157.97812 345.2875ZM159.79062 345.2875Q159.79062 348.81876 160.60312 349.99063Q161.43124 351.14688 162.65 351.14688Q163.85312 351.14688 164.68124 349.975Q165.50937 348.80313 165.50937 345.2875Q165.50937 341.75626 164.68124 340.6Q163.85312 339.42813 162.63437 339.42813Q161.41562 339.42813 160.69687 340.45938Q159.79062 341.75626 159.79062 345.2875Z" fill-rule="nonzero"/><path fill="#000000" d="M286.90314 348.6L288.7469 348.44376Q288.95 349.7875 289.7 350.475Q290.45 351.14688 291.5125 351.14688Q292.77814 351.14688 293.65314 350.19376Q294.52814 349.24063 294.52814 347.64688Q294.52814 346.14688 293.6844 345.2875Q292.84064 344.4125 291.48126 344.4125Q290.6219 344.4125 289.9344 344.80313Q289.2625 345.17813 288.8719 345.80313L287.21564 345.58438L288.60626 338.225L295.73126 338.225L295.73126 339.9125L290.0125 339.9125L289.2469 343.75626Q290.52814 342.85 291.95 342.85Q293.825 342.85 295.10626 344.1625Q296.40314 345.45938 296.40314 347.49063Q296.40314 349.44376 295.2625 350.85Q293.8875 352.6 291.5125 352.6Q289.5594 352.6 288.3094 351.50626Q287.075 350.4125 286.90314 348.6Z" fill-rule="nonzero"/><path fill="#000000" d="M416.95312 352.35L415.1875 352.35L415.1875 341.14688Q414.5625 341.75626 413.53125 342.36563Q412.5 342.95938 411.67188 343.27188L411.67188 341.56876Q413.15625 340.88126 414.25 339.89688Q415.35938 338.89688 415.8125 337.975L416.95312 337.975L416.95312 352.35ZM421.32812 345.2875Q421.32812 342.75626 421.84375 341.20938Q422.375 339.64688 423.40625 338.81876Q424.4375 337.975 426.0 337.975Q427.15625 337.975 428.01562 338.44376Q428.89062 338.89688 429.45312 339.77188Q430.01562 340.64688 430.34375 341.9125Q430.67188 343.1625 430.67188 345.2875Q430.67188 347.80313 430.14062 349.35Q429.625 350.89688 428.59375 351.75626Q427.57812 352.6 426.0 352.6Q423.92188 352.6 422.75 351.11563Q421.32812 349.31876 421.32812 345.2875ZM423.14062 345.2875Q423.14062 348.81876 423.95312 349.99063Q424.78125 351.14688 426.0 351.14688Q427.20312 351.14688 428.03125 349.975Q428.85938 348.80313 428.85938 345.2875Q428.85938 341.75626 428.03125 340.6Q427.20312 339.42813 425.98438 339.42813Q424.76562 339.42813 424.04688 340.45938Q423.14062 341.75626 423.14062 345.2875Z" fill-rule="nonzero"/><path fill="#000000" d="M545.8781 352.35L544.1125 352.35L544.1125 341.14688Q543.4875 341.75626 542.45624 342.36563Q541.425 342.95938 540.59686 343.27188L540.59686 341.56876Q542.08124 340.88126 543.175 339.89688Q544.28436 338.89688 544.7375 337.975L545.8781 337.975L545.8781 352.35ZM550.2531 348.6L552.09686 348.44376Q552.3 349.7875 553.05 350.475Q553.8 351.14688 554.8625 351.14688Q556.1281 351.14688 557.0031 350.19376Q557.8781 349.24063 557.8781 347.64688Q557.8781 346.14688 557.03436 345.2875Q556.1906 344.4125 554.83124 344.4125Q553.97186 344.4125 553.28436 344.80313Q552.6125 345.17813 552.22186 345.80313L550.5656 345.58438L551.95624 338.225L559.08124 338.225L559.08124 339.9125L553.3625 339.9125L552.59686 343.75626Q553.8781 342.85 555.3 342.85Q557.175 342.85 558.45624 344.1625Q559.7531 345.45938 559.7531 347.49063Q559.7531 349.44376 558.6125 350.85Q557.2375 352.6 554.8625 352.6Q552.90936 352.6 551.65936 351.50626Q550.425 350.4125 550.2531 348.6Z" fill-rule="nonzero"/><path fill="#000000" d="M677.4125 350.6625L677.4125 352.35L667.95935 352.35Q667.9437 351.70938 668.1625 351.13126Q668.52185 350.1625 669.3187 349.225Q670.1156 348.2875 671.6156 347.05313Q673.95935 345.14688 674.77185 344.0375Q675.6 342.9125 675.6 341.9125Q675.6 340.86563 674.85 340.14688Q674.1 339.42813 672.89685 339.42813Q671.6312 339.42813 670.8656 340.19376Q670.1 340.95938 670.1 342.30313L668.2875 342.11563Q668.475 340.1 669.6781 339.0375Q670.89685 337.975 672.9437 337.975Q674.9906 337.975 676.1937 339.11563Q677.39685 340.25626 677.39685 341.94376Q677.39685 342.80313 677.0375 343.64688Q676.6937 344.475 675.8812 345.39688Q675.0687 346.30313 673.1781 347.9125Q671.58435 349.24063 671.1312 349.70938Q670.6937 350.17813 670.39685 350.6625L677.4125 350.6625ZM679.1781 345.2875Q679.1781 342.75626 679.6937 341.20938Q680.225 339.64688 681.2562 338.81876Q682.2875 337.975 683.85 337.975Q685.0062 337.975 685.8656 338.44376Q686.7406 338.89688 687.3031 339.77188Q687.8656 340.64688 688.1937 341.9125Q688.52185 343.1625 688.52185 345.2875Q688.52185 347.80313 687.9906 349.35Q687.475 350.89688 686.4437 351.75626Q685.4281 352.6 683.85 352.6Q681.77185 352.6 680.6 351.11563Q679.1781 349.31876 679.1781 345.2875ZM680.9906 345.2875Q680.9906 348.81876 681.8031 349.99063Q682.6312 351.14688 683.85 351.14688Q685.0531 351.14688 685.8812 349.975Q686.70935 348.80313 686.70935 345.2875Q686.70935 341.75626 685.8812 340.6Q685.0531 339.42813 683.83435 339.42813Q682.6156 339.42813 681.89685 340.45938Q680.9906 341.75626 680.9906 345.2875Z" fill-rule="nonzero"/><path fill="#757575" d="M184.8125 49.65L184.8125 28.181252L192.92188 28.181252Q195.04688 28.181252 196.1875 28.384377Q197.76562 28.650002 198.82812 29.384377Q199.90625 30.118752 200.54688 31.462502Q201.20312 32.790627 201.20312 34.384377Q201.20312 37.11875 199.45312 39.025Q197.71875 40.915627 193.17188 40.915627L187.65625 40.915627L187.65625 49.65L184.8125 49.65ZM187.65625 38.384377L193.20312 38.384377Q195.96875 38.384377 197.125 37.36875Q198.28125 36.3375 198.28125 34.478127Q198.28125 33.11875 197.59375 32.165627Q196.92188 31.212502 195.79688 30.900002Q195.07812 30.712502 193.15625 30.712502L187.65625 30.712502L187.65625 38.384377ZM215.125 44.634377L217.85938 44.978127Q217.20312 47.36875 215.45312 48.696877Q213.71875 50.009377 211.01562 50.009377Q207.59375 50.009377 205.59375 47.9Q203.59375 45.790627 203.59375 42.009377Q203.59375 38.071877 205.60938 35.915627Q207.64062 33.74375 210.85938 33.74375Q213.98438 33.74375 215.95312 35.86875Q217.9375 37.99375 217.9375 41.8375Q217.9375 42.071877 217.92188 42.540627L206.32812 42.540627Q206.46875 45.103127 207.76562 46.478127Q209.07812 47.8375 211.03125 47.8375Q212.46875 47.8375 213.5 47.071877Q214.53125 46.30625 215.125 44.634377ZM206.46875 40.384377L215.15625 40.384377Q214.98438 38.415627 214.15625 37.43125Q212.90625 35.915627 210.89062 35.915627Q209.07812 35.915627 207.84375 37.134377Q206.60938 38.3375 206.46875 40.384377ZM220.45312 49.65L220.45312 34.0875L222.82812 34.0875L222.82812 36.446877Q223.73438 34.790627 224.5 34.275Q225.26562 33.74375 226.1875 33.74375Q227.53125 33.74375 228.90625 34.5875L228.0 37.040627Q227.03125 36.4625 226.0625 36.4625Q225.1875 36.4625 224.5 36.99375Q223.8125 37.509377 223.53125 38.43125Q223.07812 39.8375 223.07812 41.509377L223.07812 49.65L220.45312 49.65ZM231.10938 49.65L231.10938 36.15L228.78125 36.15L228.78125 34.0875L231.10938 34.0875L231.10938 32.43125Q231.10938 30.868752 231.39062 30.103127Q231.76562 29.087502 232.71875 28.446877Q233.6875 27.806252 235.42188 27.806252Q236.53125 27.806252 237.875 28.071877L237.48438 30.368752Q236.65625 30.228127 235.92188 30.228127Q234.71875 30.228127 234.21875 30.743752Q233.73438 31.243752 233.73438 32.65L233.73438 34.0875L236.76562 34.0875L236.76562 36.15L233.73438 36.15L233.73438 49.65L231.10938 49.65ZM237.5 41.86875Q237.5 37.55625 239.90625 35.4625Q241.90625 33.74375 244.79688 33.74375Q248.0 33.74375 250.03125 35.853127Q252.07812 37.946877 252.07812 41.65Q252.07812 44.65 251.17188 46.384377Q250.26562 48.103127 248.54688 49.05625Q246.82812 50.009377 244.79688 50.009377Q241.53125 50.009377 239.51562 47.915627Q237.5 45.80625 237.5 41.86875ZM240.20312 41.86875Q240.20312 44.853127 241.5 46.353127Q242.8125 47.8375 244.79688 47.8375Q246.75 47.8375 248.04688 46.3375Q249.35938 44.8375 249.35938 41.790627Q249.35938 38.9 248.04688 37.415627Q246.73438 35.93125 244.79688 35.93125Q242.8125 35.93125 241.5 37.415627Q240.20312 38.884377 240.20312 41.86875ZM254.45312 49.65L254.45312 34.0875L256.82812 34.0875L256.82812 36.446877Q257.73438 34.790627 258.5 34.275Q259.26562 33.74375 260.1875 33.74375Q261.53125 33.74375 262.90625 34.5875L262.0 37.040627Q261.03125 36.4625 260.0625 36.4625Q259.1875 36.4625 258.5 36.99375Q257.8125 37.509377 257.53125 38.43125Q257.07812 39.8375 257.07812 41.509377L257.07812 49.65L254.45312 49.65ZM264.48438 49.65L264.48438 34.0875L266.84375 34.0875L266.84375 36.275Q267.5625 35.134377 268.78125 34.446877Q270.0 33.74375 271.54688 33.74375Q273.28125 33.74375 274.39062 34.4625Q275.5 35.18125 275.95312 36.4625Q277.79688 33.74375 280.75 33.74375Q283.0625 33.74375 284.3125 35.025Q285.5625 36.30625 285.5625 38.978127L285.5625 49.65L282.9375 49.65L282.9375 39.853127Q282.9375 38.275 282.67188 37.571877Q282.42188 36.86875 281.75 36.446877Q281.07812 36.025 280.17188 36.025Q278.53125 36.025 277.4375 37.11875Q276.35938 38.2125 276.35938 40.61875L276.35938 49.65L273.71875 49.65L273.71875 39.540627Q273.71875 37.790627 273.07812 36.915627Q272.4375 36.025 270.96875 36.025Q269.85938 36.025 268.90625 36.61875Q267.96875 37.196877 267.53125 38.321877Q267.10938 39.446877 267.10938 41.571877L267.10938 49.65L264.48438 49.65ZM299.625 47.728127Q298.17188 48.978127 296.8125 49.49375Q295.45312 50.009377 293.90625 50.009377Q291.34375 50.009377 289.95312 48.759377Q288.57812 47.49375 288.57812 45.540627Q288.57812 44.4 289.09375 43.4625Q289.625 42.509377 290.46875 41.946877Q291.3125 41.36875 292.35938 41.0875Q293.14062 40.86875 294.70312 40.68125Q297.90625 40.30625 299.40625 39.775Q299.42188 39.228127 299.42188 39.0875Q299.42188 37.478127 298.67188 36.821877Q297.67188 35.93125 295.67188 35.93125Q293.8125 35.93125 292.92188 36.5875Q292.04688 37.228127 291.60938 38.884377L289.03125 38.525Q289.39062 36.86875 290.1875 35.853127Q291.0 34.8375 292.51562 34.290627Q294.04688 33.74375 296.0625 33.74375Q298.04688 33.74375 299.28125 34.2125Q300.53125 34.68125 301.10938 35.4Q301.70312 36.103127 301.9375 37.18125Q302.07812 37.853127 302.07812 39.61875L302.07812 43.134377Q302.07812 46.80625 302.23438 47.790627Q302.40625 48.759377 302.90625 49.65L300.15625 49.65Q299.75 48.821877 299.625 47.728127ZM299.40625 41.8375Q297.96875 42.43125 295.10938 42.8375Q293.48438 43.071877 292.79688 43.36875Q292.125 43.665627 291.75 44.228127Q291.39062 44.790627 291.39062 45.478127Q291.39062 46.525 292.1875 47.228127Q293.0 47.93125 294.53125 47.93125Q296.0625 47.93125 297.23438 47.275Q298.42188 46.603127 298.98438 45.446877Q299.40625 44.55625 299.40625 42.80625L299.40625 41.8375ZM305.48438 49.65L305.48438 34.0875L307.84375 34.0875L307.84375 36.30625Q309.5625 33.74375 312.79688 33.74375Q314.20312 33.74375 315.375 34.259377Q316.5625 34.759377 317.14062 35.5875Q317.73438 36.4 317.96875 37.525Q318.125 38.259377 318.125 40.0875L318.125 49.65L315.48438 49.65L315.48438 40.18125Q315.48438 38.571877 315.17188 37.775Q314.875 36.978127 314.07812 36.509377Q313.29688 36.025 312.25 36.025Q310.5625 36.025 309.32812 37.103127Q308.10938 38.165627 308.10938 41.15L308.10938 49.65L305.48438 49.65ZM332.625 43.946877L335.21875 44.290627Q334.79688 46.9625 333.04688 48.49375Q331.29688 50.009377 328.75 50.009377Q325.54688 50.009377 323.60938 47.915627Q321.67188 45.821877 321.67188 41.93125Q321.67188 39.415627 322.5 37.525Q323.34375 35.634377 325.04688 34.696877Q326.75 33.74375 328.76562 33.74375Q331.29688 33.74375 332.90625 35.025Q334.51562 36.30625 334.96875 38.665627L332.40625 39.05625Q332.04688 37.49375 331.10938 36.7125Q330.1875 35.915627 328.85938 35.915627Q326.875 35.915627 325.625 37.3375Q324.375 38.759377 324.375 41.853127Q324.375 44.99375 325.57812 46.415627Q326.78125 47.8375 328.71875 47.8375Q330.26562 47.8375 331.29688 46.884377Q332.34375 45.93125 332.625 43.946877ZM348.125 44.634377L350.85938 44.978127Q350.20312 47.36875 348.45312 48.696877Q346.71875 50.009377 344.01562 50.009377Q340.59375 50.009377 338.59375 47.9Q336.59375 45.790627 336.59375 42.009377Q336.59375 38.071877 338.60938 35.915627Q340.64062 33.74375 343.85938 33.74375Q346.98438 33.74375 348.95312 35.86875Q350.9375 37.99375 350.9375 41.8375Q350.9375 42.071877 350.92188 42.540627L339.32812 42.540627Q339.46875 45.103127 340.76562 46.478127Q342.07812 47.8375 344.03125 47.8375Q345.46875 47.8375 346.5 47.071877Q347.53125 46.30625 348.125 44.634377ZM339.46875 40.384377L348.15625 40.384377Q347.98438 38.415627 347.15625 37.43125Q345.90625 35.915627 343.89062 35.915627Q342.07812 35.915627 340.84375 37.134377Q339.60938 38.3375 339.46875 40.384377ZM361.8125 49.65L361.8125 28.181252L369.92188 28.181252Q372.04688 28.181252 373.1875 28.384377Q374.76562 28.650002 375.82812 29.384377Q376.90625 30.118752 377.54688 31.462502Q378.20312 32.790627 378.20312 34.384377Q378.20312 37.11875 376.45312 39.025Q374.71875 40.915627 370.17188 40.915627L364.65625 40.915627L364.65625 49.65L361.8125 49.65ZM364.65625 38.384377L370.20312 38.384377Q372.96875 38.384377 374.125 37.36875Q375.28125 36.3375 375.28125 34.478127Q375.28125 33.11875 374.59375 32.165627Q373.92188 31.212502 372.79688 30.900002Q372.07812 30.712502 370.15625 30.712502L364.65625 30.712502L364.65625 38.384377ZM381.45312 49.65L381.45312 34.0875L383.82812 34.0875L383.82812 36.446877Q384.73438 34.790627 385.5 34.275Q386.26562 33.74375 387.1875 33.74375Q388.53125 33.74375 389.90625 34.5875L389.0 37.040627Q388.03125 36.4625 387.0625 36.4625Q386.1875 36.4625 385.5 36.99375Q384.8125 37.509377 384.53125 38.43125Q384.07812 39.8375 384.07812 41.509377L384.07812 49.65L381.45312 49.65ZM391.5 31.212502L391.5 28.181252L394.125 28.181252L394.125 31.212502L391.5 31.212502ZM391.5 49.65L391.5 34.0875L394.125 34.0875L394.125 49.65L391.5 49.65ZM408.625 43.946877L411.21875 44.290627Q410.79688 46.9625 409.04688 48.49375Q407.29688 50.009377 404.75 50.009377Q401.54688 50.009377 399.60938 47.915627Q397.67188 45.821877 397.67188 41.93125Q397.67188 39.415627 398.5 37.525Q399.34375 35.634377 401.04688 34.696877Q402.75 33.74375 404.76562 33.74375Q407.29688 33.74375 408.90625 35.025Q410.51562 36.30625 410.96875 38.665627L408.40625 39.05625Q408.04688 37.49375 407.10938 36.7125Q406.1875 35.915627 404.85938 35.915627Q402.875 35.915627 401.625 37.3375Q400.375 38.759377 400.375 41.853127Q400.375 44.99375 401.57812 46.415627Q402.78125 47.8375 404.71875 47.8375Q406.26562 47.8375 407.29688 46.884377Q408.34375 45.93125 408.625 43.946877ZM413.5 31.212502L413.5 28.181252L416.125 28.181252L416.125 31.212502L413.5 31.212502ZM413.5 49.65L413.5 34.0875L416.125 34.0875L416.125 49.65L413.5 49.65ZM420.48438 49.65L420.48438 34.0875L422.84375 34.0875L422.84375 36.30625Q424.5625 33.74375 427.79688 33.74375Q429.20312 33.74375 430.375 34.259377Q431.5625 34.759377 432.14062 35.5875Q432.73438 36.4 432.96875 37.525Q433.125 38.259377 433.125 40.0875L433.125 49.65L430.48438 49.65L430.48438 40.18125Q430.48438 38.571877 430.17188 37.775Q429.875 36.978127 429.07812 36.509377Q428.29688 36.025 427.25 36.025Q425.5625 36.025 424.32812 37.103127Q423.10938 38.165627 423.10938 41.15L423.10938 49.65L420.48438 49.65ZM437.0 50.946877L439.5625 51.321877Q439.71875 52.509377 440.45312 53.05625Q441.4375 53.775 443.125 53.775Q444.96875 53.775 445.95312 53.040627Q446.95312 52.321877 447.3125 50.99375Q447.51562 50.196877 447.5 47.61875Q445.76562 49.65 443.1875 49.65Q439.98438 49.65 438.21875 47.3375Q436.46875 45.025 436.46875 41.790627Q436.46875 39.55625 437.26562 37.68125Q438.07812 35.790627 439.60938 34.775Q441.14062 33.74375 443.20312 33.74375Q445.95312 33.74375 447.75 35.9625L447.75 34.0875L450.17188 34.0875L450.17188 47.540627Q450.17188 51.18125 449.4375 52.696877Q448.70312 54.2125 447.09375 55.0875Q445.48438 55.9625 443.14062 55.9625Q440.35938 55.9625 438.64062 54.7125Q436.9375 53.4625 437.0 50.946877ZM439.17188 41.5875Q439.17188 44.65 440.39062 46.05625Q441.60938 47.4625 443.4375 47.4625Q445.25 47.4625 446.48438 46.071877Q447.71875 44.665627 447.71875 41.68125Q447.71875 38.821877 446.45312 37.384377Q445.1875 35.93125 443.39062 35.93125Q441.64062 35.93125 440.40625 37.353127Q439.17188 38.775 439.17188 41.5875ZM462.8125 49.65L462.8125 28.181252L470.92188 28.181252Q473.04688 28.181252 474.1875 28.384377Q475.76562 28.650002 476.82812 29.384377Q477.90625 30.118752 478.54688 31.462502Q479.20312 32.790627 479.20312 34.384377Q479.20312 37.11875 477.45312 39.025Q475.71875 40.915627 471.17188 40.915627L465.65625 40.915627L465.65625 49.65L462.8125 49.65ZM465.65625 38.384377L471.20312 38.384377Q473.96875 38.384377 475.125 37.36875Q476.28125 36.3375 476.28125 34.478127Q476.28125 33.11875 475.59375 32.165627Q474.92188 31.212502 473.79688 30.900002Q473.07812 30.712502 471.15625 30.712502L465.65625 30.712502L465.65625 38.384377ZM482.70312 49.65L482.70312 28.181252L485.54688 28.181252L485.54688 47.11875L496.10938 47.11875L496.10938 49.65L482.70312 49.65ZM499.875 49.65L499.875 28.181252L515.40625 28.181252L515.40625 30.712502L502.71875 30.712502L502.71875 37.290627L514.59375 37.290627L514.59375 39.80625L502.71875 39.80625L502.71875 47.11875L515.90625 47.11875L515.90625 49.65L499.875 49.65Z" fill-rule="nonzero"/></svg>